<?xml version="1.0" encoding="UTF-8"?>
<svg xmlns="http://www.w3.org/2000/svg" xmlns:xlink="http://www.w3.org/1999/xlink" viewBox="0 0 32 32">
  <defs>
    <style>
      .cls-1 {
        fill: none;
      }

      .cls-2 {
        fill: #fff;
      }

      .cls-3 {
        fill: #231f20;
      }

      .cls-4 {
        fill: url(#_linear-gradient_106);
      }

      .cls-5 {
        fill: url(#_linear-gradient_187);
      }

      .cls-6 {
        fill: url(#_linear-gradient_148);
      }

      .cls-7 {
        fill: url(#_linear-gradient_231);
      }

      .cls-8 {
        mix-blend-mode: hard-light;
        opacity: .8;
      }

      .cls-9 {
        fill: url(#_linear-gradient_1005);
      }

      .cls-10 {
        fill: url(#_linear-gradient_1034);
      }

      .cls-11 {
        fill: url(#HQDark-2);
      }

      .cls-12 {
        isolation: isolate;
      }

      .cls-13 {
        fill: url(#HQDark);
      }
    </style>
    <linearGradient id="HQDark" x1="0" y1="15.98" x2="31.98" y2="15.98" gradientUnits="userSpaceOnUse">
      <stop offset="0" stop-color="#86d5f2"/>
      <stop offset=".05" stop-color="#7bc1e7"/>
      <stop offset=".12" stop-color="#6facdc"/>
      <stop offset=".18" stop-color="#689fd5"/>
      <stop offset=".24" stop-color="#669bd3"/>
      <stop offset=".31" stop-color="#6696cf"/>
      <stop offset=".38" stop-color="#6988c5"/>
      <stop offset=".46" stop-color="#6e71b5"/>
      <stop offset=".49" stop-color="#7165ad"/>
      <stop offset=".76" stop-color="#a684bc"/>
      <stop offset="1" stop-color="#f0648b"/>
    </linearGradient>
    <radialGradient id="_linear-gradient_1034" data-name="linear-gradient 1034" cx="41.37" cy="5.01" fx="41.37" fy="5.01" r="11.64" gradientTransform="translate(-9.41 -5.16) scale(.93 .99)" gradientUnits="userSpaceOnUse">
      <stop offset="0" stop-color="#fff"/>
      <stop offset=".11" stop-color="#fff" stop-opacity=".98"/>
      <stop offset=".23" stop-color="#fff" stop-opacity=".93"/>
      <stop offset=".36" stop-color="#fff" stop-opacity=".83"/>
      <stop offset=".5" stop-color="#fff" stop-opacity=".71"/>
      <stop offset=".64" stop-color="#fff" stop-opacity=".54"/>
      <stop offset=".79" stop-color="#fff" stop-opacity=".34"/>
      <stop offset=".94" stop-color="#fff" stop-opacity=".11"/>
      <stop offset="1" stop-color="#fff" stop-opacity="0"/>
    </radialGradient>
    <radialGradient id="_linear-gradient_1005" data-name="linear-gradient 1005" cx="25.64" cy="19.8" fx="25.64" fy="19.8" r="14.99" gradientTransform="translate(nan nan) scale(nan)" gradientUnits="userSpaceOnUse">
      <stop offset="0" stop-color="#86d2d9"/>
      <stop offset=".39" stop-color="#8ad1dd"/>
      <stop offset=".83" stop-color="#98d1ea"/>
      <stop offset="1" stop-color="#a0d1f1"/>
    </radialGradient>
    <linearGradient id="_linear-gradient_148" data-name="linear-gradient 148" x1="-.59" y1="14.45" x2="30.41" y2="8.22" gradientUnits="userSpaceOnUse">
      <stop offset="0" stop-color="#ef3955"/>
      <stop offset=".14" stop-color="#ef3d56"/>
      <stop offset=".29" stop-color="#f04b5c"/>
      <stop offset=".46" stop-color="#f16365"/>
      <stop offset=".64" stop-color="#f38371"/>
      <stop offset=".82" stop-color="#f6ad81"/>
      <stop offset="1" stop-color="#f9df95"/>
    </linearGradient>
    <linearGradient id="_linear-gradient_187" data-name="linear-gradient 187" x1="-1.25" y1="19.48" x2="31.33" y2="8.1" gradientUnits="userSpaceOnUse">
      <stop offset="0" stop-color="#925ea7"/>
      <stop offset=".18" stop-color="#9661a6"/>
      <stop offset=".39" stop-color="#a469a3"/>
      <stop offset=".61" stop-color="#bc789f"/>
      <stop offset=".84" stop-color="#dc8c9a"/>
      <stop offset="1" stop-color="#f79d96"/>
    </linearGradient>
    <linearGradient id="_linear-gradient_231" data-name="linear-gradient 231" x1="-1.29" y1="19.81" x2="31.85" y2="8.35" gradientUnits="userSpaceOnUse">
      <stop offset="0" stop-color="#8087c2"/>
      <stop offset=".18" stop-color="#8489c2"/>
      <stop offset=".39" stop-color="#928fc5"/>
      <stop offset=".61" stop-color="#aa9ac9"/>
      <stop offset=".84" stop-color="#caa8cf"/>
      <stop offset="1" stop-color="#e5b5d4"/>
    </linearGradient>
    <linearGradient id="_linear-gradient_106" data-name="linear-gradient 106" x1="-1.98" y1="19.72" x2="31.65" y2="9.13" gradientUnits="userSpaceOnUse">
      <stop offset="0" stop-color="#6cb0e1"/>
      <stop offset=".22" stop-color="#70b0e0"/>
      <stop offset=".48" stop-color="#7eb0de"/>
      <stop offset=".76" stop-color="#95b0db"/>
      <stop offset="1" stop-color="#b1b1d8"/>
    </linearGradient>
    <linearGradient id="HQDark-2" data-name="HQDark" x1="-.03" y1="16.01" x2="31.94" y2="16.01" xlink:href="#HQDark"/>
  </defs>
  <g class="cls-12">
    <g id="Layer_1" data-name="Layer 1">
      <g>
        <g>
          <rect class="cls-1" x="0" y="-1.08" width="31.98" height="34.04"/>
          <g>
            <polygon class="cls-3" points="0 -.03 0 28.84 2.96 31.98 31.98 31.98 31.98 3.16 29.02 0 0 -.03"/>
            <path class="cls-13" d="M.5,.48l28.3,.03,2.67,2.84V31.48H3.17l-2.67-2.84V.48M0-.03V28.84l2.96,3.15H31.98V3.16L29.02,0,0-.03H0Z"/>
          </g>
        </g>
        <g>
          <path class="cls-2" d="M29.06,16.66L29.02-.03h0S13.81,16.66,13.81,16.66H0v.67H13.2l-1.62,1.77h0s-11.55,0-11.55,0l-.03,.76H10.88l-1.38,1.52H0v1.2H8.4l-1.4,1.54H0v1.55H5.58l-1.4,1.54L0,27.25v1.59H2.53l3.99-1.62,1.26-1.53h3l3.33-1.57,.94-1.52h2.67l2.52-1.21,.62-1.52h2.33l1.89-.76,.36-1.78h2.08l1.52-.67Zm-4.87,0h-2L29.02-.03h0l-4.83,16.69h0Zm-9.51,.67h2.12l-1.25,1.77h-2.34l1.47-1.77h0Zm4.04-.67L29.02-.03h0l-8.29,16.69h-2.01Zm-.42,.67h2.09l-.88,1.77h-2.31l1.1-1.77ZM29.02-.03l-11.74,16.69h-2.04L29.02-.03h0ZM12.58,19.87h2.44l-1.07,1.52h-2.62l1.25-1.52h0Zm-.57,4.26h-2.96l1.27-1.54h2.77l-1.08,1.54Zm3.78-2.75l.94-1.52h2.4l-.75,1.52h-2.58Zm5.38-2.28l.73-1.77h2.09l-.51,1.77h-2.31Zm4.41-2.45L29.02-.03l-1.42,16.69h-2.01Z"/>
          <polygon class="cls-10" points="28.83 16.66 29.04 16.66 29 -.03 27.59 16.66 25.59 16.66 29 -.03 24.17 16.66 22.17 16.66 29 -.03 20.72 16.66 18.7 16.66 29 -.03 17.27 16.66 15.23 16.66 29 -.03 13.8 16.66 -.02 16.66 -.02 16.66 28.83 16.66"/>
          <g>
            <polygon class="cls-9" points="29.02 -.03 6.52 27.21 2.53 28.84 0 28.84 0 27.25 4.18 27.22 29.02 -.03"/>
            <polygon class="cls-6" points="29.02 -.03 29.06 16.66 27.53 17.33 0 17.33 0 16.66 27.6 16.66 29.02 -.03"/>
            <polygon class="cls-5" points="29.02 -.03 25.09 19.11 23.2 19.87 0 19.87 .03 19.11 23.49 19.11 29.02 -.03"/>
            <polygon class="cls-7" points="29.02 -.03 20.25 21.39 17.72 22.59 0 22.59 0 21.39 18.38 21.39 29.02 -.03"/>
            <polygon class="cls-4" points="29.02 -.03 14.12 24.11 10.78 25.68 0 25.68 0 24.14 12.02 24.14 29.02 -.03"/>
            <g class="cls-8">
              <polygon class="cls-2" points="11.58 19.11 10.88 19.87 12.58 19.87 13.22 19.11 11.58 19.11"/>
              <polygon class="cls-2" points="15.56 19.11 15.02 19.87 16.73 19.87 17.21 19.11 15.56 19.11"/>
              <polygon class="cls-2" points="19.52 19.11 19.14 19.87 20.87 19.87 21.18 19.11 19.52 19.11"/>
              <polygon class="cls-2" points="15.8 21.39 15.05 22.59 13.1 22.59 13.95 21.39 15.8 21.39"/>
              <polygon class="cls-2" points="11.33 21.39 10.33 22.59 8.4 22.59 9.5 21.39 11.33 21.39"/>
              <polygon class="cls-2" points="9.06 24.14 7.79 25.68 5.58 25.68 6.99 24.14 9.06 24.14"/>
              <polygon class="cls-2" points="13.81 16.66 13.2 17.33 14.68 17.33 15.24 16.66 13.81 16.66"/>
              <polygon class="cls-2" points="17.28 16.66 16.81 17.33 18.3 17.33 18.72 16.66 17.28 16.66"/>
              <polygon class="cls-2" points="20.73 16.66 20.4 17.33 21.91 17.33 22.19 16.66 20.73 16.66"/>
              <polygon class="cls-2" points="24.19 16.66 24 17.33 25.45 17.33 25.6 16.66 24.19 16.66"/>
            </g>
          </g>
        </g>
      </g>
      <path class="cls-11" d="M.47,.51l28.3,.03,2.67,2.84V31.51H3.14L.47,28.67V.51M-.03,0V28.87l2.96,3.15H31.94V3.19L28.99,.04-.03,0H-.03Z"/>
    </g>
  </g>
</svg>
