<?xml version="1.0" encoding="UTF-8"?>
<svg id="Layer_2" data-name="Layer 2" xmlns="http://www.w3.org/2000/svg" xmlns:xlink="http://www.w3.org/1999/xlink" viewBox="0 0 294.5 44">
  <defs>
    <style>
      .cls-1 {
        fill: url(#linear-gradient);
      }

      .cls-2 {
        fill: url(#linear-gradient-8);
      }

      .cls-3 {
        fill: url(#linear-gradient-9);
      }

      .cls-4 {
        fill: url(#linear-gradient-3);
      }

      .cls-5 {
        fill: url(#linear-gradient-4);
      }

      .cls-6 {
        fill: url(#linear-gradient-2);
      }

      .cls-7 {
        fill: url(#linear-gradient-6);
      }

      .cls-8 {
        fill: url(#linear-gradient-7);
      }

      .cls-9 {
        fill: url(#linear-gradient-5);
      }

      .cls-10 {
        fill: url(#linear-gradient-14);
      }

      .cls-11 {
        fill: url(#linear-gradient-15);
      }

      .cls-12 {
        fill: url(#linear-gradient-13);
      }

      .cls-13 {
        fill: url(#linear-gradient-12);
      }

      .cls-14 {
        fill: url(#linear-gradient-10);
      }

      .cls-15 {
        fill: url(#linear-gradient-11);
      }
    </style>
    <linearGradient id="linear-gradient" x1="-18.8" y1="21.24" x2="286.1" y2="21.24" gradientUnits="userSpaceOnUse">
      <stop offset="0" stop-color="#7edcfa"/>
      <stop offset=".05" stop-color="#6ec9fb"/>
      <stop offset=".11" stop-color="#5bb4fd"/>
      <stop offset=".18" stop-color="#50a7fe"/>
      <stop offset=".24" stop-color="#4da3ff"/>
      <stop offset=".3" stop-color="#519eff"/>
      <stop offset=".36" stop-color="#5d90ff"/>
      <stop offset=".43" stop-color="#7079ff"/>
      <stop offset=".49" stop-color="#875fff"/>
      <stop offset=".76" stop-color="#c380ff"/>
      <stop offset="1" stop-color="#ff638b"/>
    </linearGradient>
    <linearGradient id="linear-gradient-2" x1="-18.8" y1="18.41" x2="286.1" y2="18.41" xlink:href="#linear-gradient"/>
    <linearGradient id="linear-gradient-3" x1="-18.8" y1="28.29" x2="286.1" y2="28.29" xlink:href="#linear-gradient"/>
    <linearGradient id="linear-gradient-4" x1="-18.8" y1="21.22" x2="286.1" y2="21.22" xlink:href="#linear-gradient"/>
    <linearGradient id="linear-gradient-5" x1="-18.8" y1="18.89" x2="286.1" y2="18.89" xlink:href="#linear-gradient"/>
    <linearGradient id="linear-gradient-6" x1="-18.8" y1="21.24" x2="286.1" y2="21.24" xlink:href="#linear-gradient"/>
    <linearGradient id="linear-gradient-7" x1="-18.8" y1="18.41" x2="286.1" y2="18.41" xlink:href="#linear-gradient"/>
    <linearGradient id="linear-gradient-8" x1="-18.8" y1="21.24" x2="286.1" y2="21.24" xlink:href="#linear-gradient"/>
    <linearGradient id="linear-gradient-9" x1="-18.8" y1="21.24" x2="286.1" y2="21.24" xlink:href="#linear-gradient"/>
    <linearGradient id="linear-gradient-10" x1="-18.8" y1="21.24" x2="286.1" y2="21.24" xlink:href="#linear-gradient"/>
    <linearGradient id="linear-gradient-11" x1="-18.8" x2="286.1" xlink:href="#linear-gradient"/>
    <linearGradient id="linear-gradient-12" x1="-18.8" y1="21.66" x2="286.1" y2="21.66" xlink:href="#linear-gradient"/>
    <linearGradient id="linear-gradient-13" x1="-18.8" y1="8.36" x2="286.1" y2="8.36" xlink:href="#linear-gradient"/>
    <linearGradient id="linear-gradient-14" x1="-18.8" y1="21.08" x2="286.1" y2="21.08" xlink:href="#linear-gradient"/>
    <linearGradient id="linear-gradient-15" x1="-18.8" y1="24.91" x2="286.1" y2="24.91" xlink:href="#linear-gradient"/>
  </defs>
  <path class="cls-1" d="M229.51,12.25h-18.23v14.49l3.48,3.48h14.75l3.48-3.48v-1.28h-15.91v-2.33h15.91v-7.41l-3.48-3.48Zm-2.32,7.09h-10.11v-2.33h10.11v2.33Z"/>
  <path class="cls-6" d="M93.75,6.6v5.65h-15.91v14.49l3.48,3.48h18.23V6.6h-5.81Zm0,18.87h-10.11v-8.46h10.11v8.46Z"/>
  <rect class="cls-4" x="250.42" y="26.36" width="5.81" height="3.87"/>
  <polygon class="cls-5" points="191.84 17.01 191.84 12.25 183.42 12.25 179.94 15.74 179.94 30.18 185.74 30.18 185.74 17.01 191.84 17.01"/>
  <polygon class="cls-9" points="207.57 17.01 207.57 12.25 201.23 12.25 201.23 7.56 195.42 7.56 195.42 12.25 195.42 17.01 195.42 26.75 198.9 30.23 207.57 30.23 207.57 25.47 201.23 25.47 201.23 17.01 207.57 17.01"/>
  <polygon class="cls-7" points="144.27 12.25 144.27 12.25 144.27 25.47 134.17 25.47 134.17 12.25 128.36 12.25 128.36 15.74 128.36 26.75 131.84 30.23 150.08 30.23 150.08 12.25 144.27 12.25"/>
  <polygon class="cls-8" points="17.52 6.6 17.52 15.54 6.23 15.54 6.23 6.6 -.01 6.6 -.01 30.23 6.23 30.23 6.23 20.38 17.52 20.38 17.52 30.23 23.76 30.23 23.76 6.6 17.52 6.6"/>
  <path class="cls-2" d="M70.77,12.25h-18.23v4.76h15.91v2.33h-15.91v7.41l3.48,3.48h18.23V15.74l-3.48-3.48Zm-2.62,13.21h-9.81v-2.33h10.11v2.33h-.3Z"/>
  <path class="cls-3" d="M277.29,12.25h-18.23v4.76h15.91v2.33h-15.91v7.41l3.48,3.48h18.23V15.74l-3.48-3.48Zm-2.62,13.21h-9.81v-2.33h10.11v2.33h-.3Z"/>
  <path class="cls-14" d="M172.26,12.25h-18.23v4.76h15.91v2.33h-15.91v7.41l3.48,3.48h18.23V15.74l-3.48-3.48Zm-2.62,13.21h-9.81v-2.33h10.11v2.33h-.3Z"/>
  <path class="cls-15" d="M45.58,12.25H27.35v14.49l3.48,3.48h18.23v-4.76h-15.91v-2.33h15.91v-7.41l-3.48-3.48Zm-2.32,7.09h-10.11v-2.33h10.11v2.33Z"/>
  <polygon class="cls-13" points="249.21 17.43 249.21 12.67 240.18 12.67 236.7 16.16 236.7 30.23 242.51 30.23 242.51 30.65 242.51 17.43 249.21 17.43"/>
  <rect class="cls-12" x="288.65" y="6.43" width="5.83" height="3.87"/>
  <polygon class="cls-10" points="294.48 15.44 291.17 12.11 284.41 12.11 284.41 16.86 288.65 16.86 288.77 30.06 294.48 30.06 294.48 15.44"/>
  <path class="cls-11" d="M124.9,32.82V15.74l-3.48-3.48h-18.23v14.49l3.48,3.48h12.43v3.87l3.48,3.48h5.14v-4.76h-2.82Zm-15.91-15.8h10.11v8.46h-10.11v-8.46Z"/>
</svg>
