<?xml version="1.0" encoding="UTF-8"?>
<svg id="Layer_2" data-name="Layer 2" xmlns="http://www.w3.org/2000/svg" viewBox="0 0 294.5 44">
  <defs>
    <style>
      .cls-1 {
        fill: #00265c;
      }
    </style>
  </defs>
  <path class="cls-1" d="M229.53,12.25h-18.23v14.49l3.48,3.48h14.75l3.48-3.48v-1.28h-15.91v-2.33h15.91v-7.41l-3.48-3.48Zm-2.32,7.09h-10.11v-2.33h10.11v2.33Z"/>
  <path class="cls-1" d="M93.77,6.6v5.65h-15.91v14.49l3.48,3.48h18.23V6.6h-5.81Zm0,18.87h-10.11v-8.46h10.11v8.46Z"/>
  <rect class="cls-1" x="250.44" y="26.36" width="5.81" height="3.87"/>
  <polygon class="cls-1" points="191.86 17.01 191.86 12.25 183.44 12.25 179.96 15.74 179.96 30.18 185.76 30.18 185.76 17.01 191.86 17.01"/>
  <polygon class="cls-1" points="207.59 17.01 207.59 12.25 201.25 12.25 201.25 7.56 195.44 7.56 195.44 12.25 195.44 17.01 195.44 26.75 198.92 30.23 207.59 30.23 207.59 25.47 201.25 25.47 201.25 17.01 207.59 17.01"/>
  <polygon class="cls-1" points="144.29 12.25 144.29 12.25 144.29 25.47 134.18 25.47 134.18 12.25 128.38 12.25 128.38 15.74 128.38 26.75 131.86 30.23 150.1 30.23 150.1 12.25 144.29 12.25"/>
  <polygon class="cls-1" points="17.54 6.6 17.54 15.54 6.25 15.54 6.25 6.6 0 6.6 0 30.23 6.25 30.23 6.25 20.38 17.54 20.38 17.54 30.23 23.78 30.23 23.78 6.6 17.54 6.6"/>
  <path class="cls-1" d="M70.79,12.25h-18.23v4.76h15.91v2.33h-15.91v7.41l3.48,3.48h18.23V15.74l-3.48-3.48Zm-2.62,13.21h-9.81v-2.33h10.11v2.33h-.3Z"/>
  <path class="cls-1" d="M277.31,12.25h-18.23v4.76h15.91v2.33h-15.91v7.41l3.48,3.48h18.23V15.74l-3.48-3.48Zm-2.62,13.21h-9.81v-2.33h10.11v2.33h-.3Z"/>
  <path class="cls-1" d="M172.28,12.25h-18.23v4.76h15.91v2.33h-15.91v7.41l3.48,3.48h18.23V15.74l-3.48-3.48Zm-2.62,13.21h-9.81v-2.33h10.11v2.33h-.3Z"/>
  <path class="cls-1" d="M45.6,12.25H27.37v14.49l3.48,3.48h18.23v-4.76h-15.91v-2.33h15.91v-7.41l-3.48-3.48Zm-2.32,7.09h-10.11v-2.33h10.11v2.33Z"/>
  <polygon class="cls-1" points="249.23 17.43 249.23 12.67 240.2 12.67 236.72 16.16 236.72 30.23 242.53 30.23 242.53 30.65 242.53 17.43 249.23 17.43"/>
  <rect class="cls-1" x="288.67" y="6.43" width="5.83" height="3.87"/>
  <polygon class="cls-1" points="294.5 15.44 291.19 12.11 284.43 12.11 284.43 16.86 288.67 16.86 288.78 30.06 294.5 30.06 294.5 15.44"/>
  <path class="cls-1" d="M124.92,32.82V15.74l-3.48-3.48h-18.23v14.49l3.48,3.48h12.43v3.87l3.48,3.48h5.14v-4.76h-2.82Zm-15.91-15.8h10.11v8.46h-10.11v-8.46Z"/>
</svg>
