<svg width="20" height="20" viewBox="0 0 20 20" fill="none" xmlns="http://www.w3.org/2000/svg">
<path d="M0 2C0 0.895431 0.895431 0 2 0H18C19.1046 0 20 0.895431 20 2V18C20 19.1046 19.1046 20 18 20H2C0.895431 20 0 19.1046 0 18V2Z" fill="#FBFEFE"/>
<path d="M8.9642 9.95667C8.97967 9.892 8.99522 9.82732 9.01053 9.76257C9.20117 8.95427 9.39174 8.14597 9.58247 7.33767C9.65736 7.02026 9.73233 6.70292 9.80778 6.38566C9.81389 6.36003 9.82357 6.33527 9.83111 6.31004C9.86276 6.2041 9.93813 6.14808 10.0442 6.14546C10.2422 6.14054 10.4404 6.14101 10.6384 6.14538C10.7363 6.14752 10.8051 6.20331 10.836 6.29663C10.8599 6.36916 10.8781 6.44375 10.8957 6.51818C11.0539 7.18626 11.2113 7.8545 11.3691 8.52266C11.4822 9.00196 11.5956 9.48118 11.7089 9.96048C11.7122 9.97452 11.7162 9.98833 11.7222 10.0102C11.7283 9.99436 11.7327 9.98579 11.735 9.97675C11.9465 9.15869 12.1578 8.34063 12.3691 7.52249C12.4649 7.15175 12.5599 6.78092 12.6566 6.41042C12.6682 6.36598 12.6881 6.32369 12.705 6.28076C12.7409 6.18982 12.8139 6.14966 12.9058 6.14451C13.0047 6.13903 13.1038 6.1403 13.2029 6.13951C13.2928 6.13879 13.3826 6.13847 13.4725 6.13967C13.5729 6.14101 13.6223 6.19061 13.6079 6.28988C13.5956 6.37551 13.5724 6.46026 13.5466 6.5431C13.1617 7.77975 12.7755 9.01601 12.3896 10.2523C12.3443 10.3973 12.2997 10.5425 12.2539 10.6873C12.1957 10.8715 12.1229 10.9249 11.9305 10.9253C11.7772 10.9257 11.6239 10.9265 11.4706 10.9251C11.2819 10.9234 11.2132 10.8669 11.1691 10.6828C11.1099 10.4349 11.05 10.1873 10.9905 9.93953C10.8158 9.21297 10.6411 8.4864 10.4664 7.75984C10.4245 7.58526 10.3823 7.41068 10.3402 7.23618C10.3369 7.22221 10.3327 7.20848 10.3264 7.18555C10.32 7.20301 10.3156 7.21198 10.3133 7.22142C10.0888 8.16002 9.86443 9.0987 9.63991 10.0373C9.5908 10.2427 9.54161 10.4482 9.49115 10.6533C9.48076 10.6955 9.46576 10.7366 9.45045 10.7773C9.41816 10.8629 9.35326 10.9082 9.26385 10.914C9.17698 10.9196 9.08963 10.9208 9.00252 10.9208C8.88097 10.9208 8.75943 10.9202 8.63804 10.9154C8.54704 10.9118 8.4777 10.8661 8.44438 10.7809C8.40416 10.6778 8.36853 10.5727 8.33624 10.4668C8.05071 9.5311 7.76637 8.59504 7.48163 7.65906C7.36175 7.26498 7.24124 6.87099 7.12247 6.4766C7.10391 6.41486 7.08701 6.35146 7.08003 6.28774C7.069 6.18712 7.11581 6.13982 7.21744 6.13982C7.40903 6.13982 7.60063 6.14062 7.79215 6.14212C7.90465 6.143 7.98066 6.19863 8.01525 6.30464C8.04714 6.40241 8.07586 6.50136 8.10125 6.60095C8.33299 7.51058 8.56378 8.42046 8.79473 9.33033C8.84416 9.52483 8.89335 9.7194 8.94277 9.9139C8.9465 9.9285 8.9511 9.94286 8.95531 9.95731C8.95825 9.95715 8.96126 9.95707 8.9642 9.95691V9.95667Z" fill="#252E3E"/>
<path d="M10.0744 15.6772C9.90402 15.6772 9.73337 15.6845 9.56351 15.6755C9.30812 15.6619 9.05258 15.6439 8.79854 15.6151C8.50642 15.582 8.21423 15.5441 7.92504 15.4918C7.6242 15.4375 7.3247 15.3719 7.02854 15.2957C6.73618 15.2205 6.44549 15.1354 6.1602 15.0369C5.86355 14.9345 5.57136 14.8176 5.28241 14.6947C5.03607 14.5898 4.7933 14.4748 4.55593 14.3509C4.30102 14.2177 4.04936 14.0768 3.80532 13.9248C3.53438 13.7559 3.27067 13.5748 3.00925 13.3913C2.72697 13.1931 2.46183 12.9724 2.20184 12.746C2.16202 12.7113 2.11997 12.6786 2.08355 12.6406C2.05578 12.6116 2.03159 12.5777 2.01263 12.5424C1.98787 12.4964 2.00176 12.4502 2.03484 12.4142C2.06864 12.3773 2.11489 12.3575 2.16424 12.3757C2.21708 12.3951 2.26761 12.4217 2.31768 12.4481C2.619 12.6068 2.91572 12.775 3.22211 12.9232C3.53565 13.0747 3.85665 13.2113 4.17797 13.3461C4.41026 13.4436 4.64637 13.5331 4.88438 13.6158C5.15103 13.7084 5.42101 13.7918 5.691 13.8745C5.86252 13.9271 6.03524 13.9769 6.20978 14.018C6.5526 14.0987 6.89636 14.1758 7.24116 14.2479C7.44632 14.2907 7.65347 14.3257 7.86094 14.3558C8.10752 14.3914 8.35529 14.4198 8.6029 14.448C9.00172 14.4937 9.40158 14.5245 9.80326 14.5275C10.082 14.5297 10.3607 14.5371 10.6392 14.5331C10.8687 14.5298 11.0986 14.5199 11.3272 14.5006C11.6465 14.4737 11.9654 14.4399 12.2833 14.3999C12.537 14.368 12.7901 14.3291 13.0413 14.2812C13.3639 14.2198 13.6859 14.1535 14.005 14.0763C14.319 14.0003 14.6314 13.9156 14.9402 13.8207C15.2415 13.728 15.5386 13.6212 15.8351 13.5139C16.0372 13.4407 16.2353 13.356 16.435 13.2764C16.5356 13.2364 16.657 13.2579 16.7268 13.3284C16.8002 13.4026 16.8131 13.5148 16.7454 13.5943C16.6974 13.6507 16.6378 13.6991 16.5775 13.7428C16.3144 13.9338 16.0406 14.1093 15.7537 14.262C15.501 14.3965 15.2439 14.5237 14.984 14.6434C14.7708 14.7416 14.5533 14.8326 14.3323 14.9111C14.0278 15.0193 13.7192 15.1166 13.4102 15.211C13.221 15.2688 13.0289 15.3178 12.8359 15.3612C12.6018 15.414 12.3666 15.4634 12.1298 15.5021C11.8423 15.5491 11.5532 15.5881 11.2637 15.6216C11.0569 15.6456 10.8485 15.6578 10.6406 15.6699C10.4522 15.6809 10.2634 15.6847 10.0748 15.6916C10.0748 15.6867 10.0747 15.6819 10.0747 15.6771L10.0744 15.6772Z" fill="#FF9900"/>
<path d="M5.66902 8.2519C5.67124 8.24095 5.67418 8.23349 5.67402 8.22619C5.66973 8.01757 5.67251 7.80847 5.65751 7.60056C5.64934 7.48748 5.61935 7.37377 5.58405 7.26529C5.51114 7.04096 5.35254 6.89876 5.12969 6.82543C4.96102 6.76988 4.78679 6.75163 4.61059 6.74608C4.17669 6.73251 3.76914 6.84717 3.3692 7.00001C3.29288 7.02921 3.21584 7.05746 3.13722 7.07929C3.05566 7.10198 2.99569 7.06429 2.99219 6.98049C2.98624 6.83821 2.98878 6.69537 2.99346 6.55293C2.996 6.47389 3.04868 6.41993 3.1154 6.38875C3.25869 6.32177 3.40197 6.25242 3.55088 6.20044C4.03714 6.03086 4.53863 5.97674 5.05075 6.02618C5.30058 6.0503 5.54351 6.10387 5.7716 6.21393C6.10458 6.37454 6.31855 6.63776 6.43827 6.98271C6.52141 7.22244 6.5541 7.47074 6.55489 7.72308C6.55672 8.30054 6.55315 8.87808 6.5564 9.45554C6.55815 9.77089 6.61709 10.0742 6.77902 10.3508C6.78767 10.3657 6.79521 10.3811 6.80306 10.3964C6.85955 10.5059 6.84622 10.5893 6.74713 10.6607C6.62392 10.7494 6.49714 10.8336 6.36782 10.9131C6.26682 10.9752 6.16908 10.9524 6.08339 10.86C5.96915 10.7369 5.88053 10.5967 5.80548 10.4472C5.78191 10.4002 5.75803 10.3534 5.73209 10.302C5.69234 10.3443 5.65617 10.3837 5.6192 10.4222C5.28217 10.7729 4.87303 10.9803 4.38868 11.0314C4.10918 11.061 3.83047 11.0505 3.56247 10.9557C3.08137 10.7857 2.79377 10.4451 2.69659 9.94595C2.64668 9.68963 2.6543 9.43292 2.72515 9.18058C2.82971 8.80825 3.06471 8.53837 3.39404 8.34601C3.63078 8.20778 3.88973 8.13818 4.16051 8.10906C4.58845 8.06304 5.00941 8.11549 5.42791 8.20087C5.50773 8.21714 5.58738 8.23452 5.66918 8.25182L5.66902 8.2519ZM4.71372 8.73056C4.51618 8.72945 4.32013 8.74215 4.13155 8.8073C3.8864 8.89205 3.71329 9.05004 3.64188 9.3054C3.60039 9.45395 3.60039 9.60528 3.62237 9.75724C3.66616 10.0597 3.87244 10.2723 4.17201 10.3234C4.32069 10.3487 4.4696 10.3452 4.61765 10.3211C4.86177 10.2815 5.09168 10.2068 5.28844 10.0482C5.4867 9.88834 5.61586 9.69082 5.65561 9.43515C5.68338 9.25644 5.68354 9.0775 5.6852 8.89792C5.68552 8.86205 5.67219 8.85134 5.6399 8.84396C5.33501 8.77405 5.02671 8.73389 4.71372 8.73056Z" fill="#252E3E"/>
<path d="M15.834 6.00055C16.2297 6.00611 16.6152 6.0692 16.9824 6.22029C17.0579 6.25131 17.1264 6.30265 17.1923 6.35225C17.2469 6.39336 17.2757 6.45557 17.2774 6.52485C17.2803 6.63697 17.2828 6.74942 17.2782 6.86147C17.2735 6.97534 17.2088 7.02168 17.0992 6.98819C17.015 6.9624 16.9346 6.92392 16.8524 6.89154C16.5751 6.78227 16.2867 6.73148 15.9894 6.72569C15.8053 6.72212 15.6221 6.72942 15.4429 6.77608C15.2974 6.81393 15.1621 6.87202 15.0631 6.99121C14.8707 7.22308 14.9122 7.59382 15.1511 7.77808C15.2997 7.89275 15.4717 7.96155 15.6478 8.01932C15.9465 8.11724 16.2472 8.2085 16.5454 8.30785C16.779 8.3857 16.9982 8.49306 17.1801 8.66351C17.3836 8.8542 17.5023 9.09107 17.5378 9.36611C17.6233 10.0283 17.2865 10.5559 16.7321 10.8298C16.4169 10.9856 16.079 11.0558 15.7289 11.0648C15.2696 11.0766 14.8235 11.0006 14.3925 10.8417C14.304 10.8091 14.2203 10.7619 14.1377 10.7154C14.045 10.6631 14.0015 10.5764 13.998 10.4722C13.9944 10.3667 13.9965 10.2609 13.9977 10.1552C13.998 10.1332 14.0036 10.1106 14.0106 10.0895C14.0278 10.0371 14.0632 10.0068 14.1171 10.0138C14.1764 10.0215 14.2353 10.0386 14.292 10.0582C14.4491 10.1124 14.6028 10.1775 14.7619 10.2249C14.9996 10.2957 15.2449 10.3255 15.4929 10.3332C15.72 10.3403 15.9449 10.328 16.1626 10.2569C16.3256 10.2036 16.4687 10.12 16.5659 9.97238C16.7466 9.69781 16.664 9.33286 16.3832 9.16384C16.2407 9.07798 16.0855 9.02196 15.9279 8.97204C15.6346 8.87928 15.3394 8.79199 15.0483 8.69272C14.8058 8.61003 14.5866 8.48362 14.4075 8.29563C14.0537 7.92425 13.9504 7.36544 14.1542 6.89979C14.2415 6.7003 14.3767 6.53548 14.547 6.39978C14.8542 6.15506 15.2099 6.04023 15.5964 6.00841C15.6386 6.00492 15.6808 6.00214 15.723 6.00063C15.7599 5.99936 15.7969 6.0004 15.834 6.0004L15.834 6.00055Z" fill="#252E3E"/>
<path d="M17.0929 12.0468C17.3409 12.0501 17.5862 12.0733 17.8279 12.1271C17.927 12.1491 18.0249 12.1779 18.1123 12.2332C18.1525 12.2586 18.1768 12.2944 18.1885 12.3399C18.2181 12.4563 18.2215 12.5738 18.2122 12.6933C18.1991 12.862 18.176 13.0291 18.1374 13.1935C18.0478 13.576 17.9117 13.9407 17.7137 14.2815C17.5801 14.5113 17.4206 14.7203 17.2255 14.9014C17.1966 14.9283 17.1668 14.9548 17.1353 14.9786C17.1145 14.9943 17.0909 15.0073 17.0667 15.0171C17.0269 15.0333 16.9853 15.0371 16.9519 15.0038C16.9194 14.9714 16.9259 14.9295 16.9391 14.892C16.9651 14.8187 16.9953 14.7468 17.0243 14.6745C17.1539 14.351 17.2745 14.0243 17.369 13.6885C17.4152 13.5247 17.4582 13.3594 17.4687 13.1888C17.4736 13.109 17.4706 13.0273 17.4592 12.9483C17.4406 12.8202 17.3413 12.7674 17.2315 12.7325C17.0958 12.6895 16.9551 12.6774 16.8137 12.6725C16.7161 12.6691 16.6181 12.6614 16.5209 12.6673C16.2538 12.6837 15.987 12.7052 15.7204 12.7271C15.5877 12.7381 15.4556 12.7557 15.323 12.7683C15.2738 12.7729 15.2209 12.7742 15.1974 12.7175C15.1751 12.6639 15.2044 12.6168 15.242 12.5883C15.3278 12.5231 15.4171 12.4612 15.5109 12.4084C15.7452 12.2765 15.9985 12.1925 16.2607 12.139C16.418 12.1069 16.5782 12.0876 16.7379 12.0695C16.8556 12.0562 16.9746 12.054 17.093 12.0468L17.0929 12.0468Z" fill="#FF9900"/>
</svg>
