<svg width="20" height="20" viewBox="0 0 20 20" fill="none" xmlns="http://www.w3.org/2000/svg">
<path d="M9.73633 0.900391C13.5488 0.900474 16.6475 4.15893 16.6445 8.15234C16.6445 9.57773 16.2499 10.9043 15.5732 12.0244L18.6455 15.2646L18.8057 15.4336H18.7773C18.9862 15.7216 19.0996 16.0698 19.0996 16.4375C19.0995 16.8799 18.934 17.2943 18.6338 17.6084L18.6348 17.6094C18.3368 17.9241 17.9328 18.0996 17.5098 18.0996C17.0868 18.0996 16.6887 17.927 16.3906 17.6123L13.2959 14.3604C12.2553 15.0224 11.0384 15.4072 9.7334 15.4072C7.18652 15.4072 4.85319 13.9407 3.64648 11.5889L3.60254 11.5029L3.68555 11.4561L4.19043 11.1699L4.28125 11.1182L4.32812 11.2109C5.40427 13.3058 7.47846 14.6045 9.73633 14.6045C13.115 14.6044 15.8738 11.7163 15.874 8.15234C15.874 4.58818 13.1179 1.6993 9.73633 1.69922C7.30581 1.69922 5.09784 3.20895 4.11523 5.55078L4.0752 5.64648L3.98145 5.60352L3.45703 5.36133L3.36914 5.32129L3.40625 5.23242C4.5105 2.60262 6.99312 0.900391 9.73633 0.900391ZM15.123 12.6865C14.7788 13.1362 14.3849 13.5428 13.9473 13.8965L16.9453 17.0479L17.0049 17.1045C17.3168 17.3687 17.804 17.3477 18.0918 17.0449L18.1211 17.0146C18.2586 16.8557 18.3349 16.652 18.335 16.4346V16.4326C18.3374 16.2025 18.2525 15.9892 18.0977 15.8262L15.123 12.6865ZM9.73633 2.70117C12.6034 2.70125 14.9297 5.14921 14.9297 8.14941C14.9294 11.1493 12.6033 13.5995 9.73633 13.5996C7.70878 13.5996 5.95978 12.3721 5.10352 10.5957H2.47363V9.79395H4.78809C4.68963 9.47118 4.61754 9.13793 4.57812 8.79199H1.90039V7.99219H4.54688C4.55765 7.64843 4.60004 7.31523 4.66797 6.99023H2.47363V6.19043H4.89746C5.65054 4.15585 7.52933 2.70117 9.73633 2.70117ZM9.7334 3.50684C7.29993 3.50684 5.31055 5.58727 5.31055 8.15527C5.31073 10.7231 7.30004 12.8027 9.7334 12.8027C12.1667 12.8027 14.1551 10.7231 14.1553 8.15527C14.1553 5.58731 12.1668 3.50689 9.7334 3.50684ZM8.27734 10.374C8.30376 10.3906 8.34424 10.4132 8.40332 10.4365C8.48637 10.4693 8.59652 10.5034 8.73047 10.5342C8.99842 10.5958 9.35858 10.6436 9.78516 10.6436C10.173 10.6436 10.5599 10.5998 10.874 10.5244L11.0371 10.4775L11.1777 10.4268C11.2363 10.4024 11.2735 10.3805 11.2959 10.3662L11.4814 9.04199C11.0926 8.89563 10.5896 8.67378 9.93457 8.33887C9.88675 8.35387 9.83667 8.36523 9.78516 8.36523C9.49158 8.36522 9.25879 8.1122 9.25879 7.81445C9.25903 7.51736 9.48843 7.26466 9.78516 7.26465C10.014 7.26465 10.1992 7.41417 10.2744 7.61719C10.7263 7.84325 11.2005 8.05762 11.5977 8.21875L11.7871 6.87793C11.1956 7.07797 10.4354 7.14841 9.86914 7.14844C9.30163 7.14844 8.50981 7.07783 7.91406 6.86621L8.27734 10.374ZM9.86914 5.64258C9.22978 5.64258 8.7375 5.71715 8.3916 5.80859C8.21853 5.85436 8.08282 5.90403 7.98438 5.9502C7.95342 5.96471 7.92759 5.97947 7.90527 5.99219C7.92767 6.00497 7.95323 6.02055 7.98438 6.03516C8.08282 6.08132 8.21853 6.13099 8.3916 6.17676C8.7375 6.2682 9.22979 6.34277 9.86914 6.34277C10.5085 6.34274 11.0008 6.26822 11.3467 6.17676C11.5195 6.13104 11.6546 6.08127 11.7529 6.03516C11.7837 6.02075 11.8088 6.00483 11.8311 5.99219C11.8089 5.97961 11.7835 5.96452 11.7529 5.9502C11.6546 5.90408 11.5195 5.85431 11.3467 5.80859C11.0008 5.71713 10.5085 5.64261 9.86914 5.64258ZM12.584 6.03711L12.6826 6.05176L12.4189 7.92773C12.5196 8.01687 12.6392 8.12861 12.7432 8.24707C12.8584 8.37839 12.9675 8.53108 13.001 8.6748V8.67578C13.0291 8.79972 13.0119 8.92733 12.9453 9.03516C12.9202 9.07647 12.8811 9.14276 12.8037 9.19434C12.7257 9.24632 12.6199 9.2783 12.4717 9.27832C12.4032 9.27832 12.3237 9.26732 12.2334 9.25195L12.0547 10.5225C12.0361 10.8136 11.8137 11.0246 11.4668 11.1689C11.3422 11.2224 11.2045 11.267 11.0508 11.3037L11.0498 11.3027C10.6777 11.3943 10.2292 11.4434 9.78516 11.4434C9.73849 11.4434 9.19556 11.4407 8.6582 11.332C8.39032 11.2779 8.11548 11.1955 7.90332 11.0693C7.69098 10.943 7.52441 10.7611 7.51465 10.5059V10.5049L7.05078 6.03906L7.04395 5.9707L7.05469 5.96387C7.06427 5.7298 7.19019 5.54304 7.375 5.39844C7.56538 5.2495 7.82411 5.13884 8.10645 5.05762C8.6722 4.89488 9.36261 4.83984 9.87207 4.83984C10.3816 4.83987 11.0711 4.8965 11.6367 5.05957C11.9189 5.14095 12.1778 5.25074 12.3682 5.39941C12.5603 5.54958 12.6893 5.74544 12.6895 5.99219C12.6895 6.01086 12.6857 6.02846 12.6846 6.03418C12.6829 6.04306 12.6836 6.04083 12.6836 6.03711V6.05176L12.584 6.03711Z" fill="white" stroke="white" stroke-width="0.2"/>
</svg>
