<svg width="20" height="20" viewBox="0 0 20 20" fill="none" xmlns="http://www.w3.org/2000/svg">
<path d="M0 2C0 0.895431 0.895431 0 2 0H18C19.1046 0 20 0.895431 20 2V18C20 19.1046 19.1046 20 18 20H2C0.895431 20 0 19.1046 0 18V2Z" fill="white"/>
<g clip-path="url(#clip0_793_69)">
<path d="M2 9.8014C2.60933 9.8014 3.20761 9.8014 3.80589 9.8014C3.87794 9.8014 3.95078 9.79831 4.02223 9.80518C4.21231 9.82319 4.31219 9.96063 4.25554 10.1202C4.20758 10.2554 4.08322 10.3289 3.86926 10.3302C3.28381 10.334 2.69836 10.3328 2.11291 10.3337C2.0752 10.3337 2.0377 10.3337 2.00059 10.3337V10.9776C2.03336 10.9793 2.06218 10.9821 2.091 10.9821C2.7027 10.9824 3.3148 10.9901 3.9261 10.9786C4.19376 10.9737 4.46517 10.9476 4.72651 10.898C5.07529 10.8319 5.30683 10.63 5.38775 10.3268C5.46829 10.0257 5.39624 9.75078 5.09858 9.55312C4.98962 9.48071 4.86053 9.43129 4.73796 9.36986C4.75237 9.36317 4.77072 9.35288 4.79046 9.34533C5.27584 9.16362 5.40098 8.61146 5.03621 8.27927C4.81138 8.07439 4.52596 8.0061 4.21685 8.0037C3.50981 7.99838 2.80277 8.00198 2.09554 8.00198C2.06415 8.00198 2.03277 8.00198 2.00296 8.00198V8.65058C2.06514 8.65058 2.12041 8.65058 2.17587 8.65058C2.72184 8.65058 3.26782 8.65075 3.81379 8.65058C3.95196 8.65058 4.06921 8.68712 4.12744 8.80415C4.21291 8.97625 4.06526 9.14938 3.83432 9.14972C3.26209 9.15092 2.68967 9.15006 2.11745 9.15006C2.07935 9.15006 2.04125 9.15006 2 9.15006V9.80123V9.8014ZM13.6727 9.02155C13.6814 9.02155 13.6899 9.02172 13.6985 9.02189C13.9727 9.6746 14.2471 10.3273 14.5207 10.9785H15.7123C15.6981 10.944 15.6878 10.915 15.6746 10.8869C15.5502 10.6207 15.4255 10.3549 15.3009 10.0888C14.9879 9.42014 14.6736 8.75181 14.3637 8.08211C14.3341 8.01794 14.2968 7.99941 14.2196 8.00027C13.8713 8.00421 13.5227 8.00439 13.1741 8.00027C13.0957 7.99924 13.0604 8.02034 13.0312 8.08297C12.6123 8.98208 12.1903 9.88016 11.7695 10.7786C11.7395 10.8426 11.7128 10.908 11.6807 10.9819C12.0634 10.9819 12.4282 10.9835 12.7927 10.979C12.82 10.9786 12.8598 10.9406 12.8717 10.9128C13.1129 10.345 13.3507 9.77601 13.5898 9.20754C13.616 9.14509 13.6452 9.08349 13.6731 9.02155H13.6727ZM10.5713 10.9986C10.1006 9.99358 9.63809 9.0061 9.17581 8.0188C8.77215 8.0188 8.37758 8.01777 7.9832 8.02103C7.95537 8.0212 7.91313 8.04866 7.90207 8.07216C7.49091 8.94553 7.08272 9.8201 6.67393 10.6945C6.62794 10.7928 6.58175 10.8911 6.53161 10.998C6.91316 10.998 7.27793 10.9992 7.6427 10.9955C7.66955 10.9951 7.71021 10.9641 7.72047 10.9395C7.92753 10.4548 8.13084 9.96887 8.33514 9.48328C8.3987 9.33229 8.46285 9.18146 8.53292 9.01623C8.55167 9.04728 8.56233 9.06135 8.56884 9.07662C8.82742 9.69279 9.0862 10.3091 9.34319 10.9258C9.36491 10.9776 9.39215 11.0016 9.46222 10.9998C9.64618 10.9944 9.83054 10.9982 10.0147 10.9984C10.1945 10.9984 10.3745 10.9984 10.5715 10.9984L10.5713 10.9986ZM16.8642 10.9833H17.9998V8.0224H16.8642V10.9835V10.9833Z" fill="white"/>
<path d="M2 9.80154V9.15037C2.04125 9.15037 2.07935 9.15037 2.11745 9.15037C2.68967 9.15037 3.26209 9.15106 3.83432 9.15003C4.06546 9.14951 4.21291 8.97638 4.12744 8.80445C4.06941 8.68743 3.95216 8.65071 3.81379 8.65088C3.26782 8.65123 2.72184 8.65088 2.17587 8.65088C2.12041 8.65088 2.06514 8.65088 2.00296 8.65088V8.00212C2.03277 8.00212 2.06415 8.00212 2.09554 8.00212C2.80277 8.00212 3.50981 7.99852 4.21705 8.00384C4.52616 8.00624 4.81158 8.07453 5.0368 8.2794C5.40177 8.61159 5.27643 9.16358 4.79105 9.34546C4.77131 9.35284 4.75276 9.36314 4.73855 9.37C4.86113 9.43125 4.99022 9.48084 5.09917 9.55325C5.39683 9.75092 5.46888 10.0258 5.38835 10.3269C5.30742 10.63 5.07569 10.8319 4.7271 10.8981C4.46576 10.9477 4.19435 10.9736 3.9267 10.9788C3.31519 10.9903 2.70329 10.9824 2.09159 10.9822C2.06277 10.9822 2.03395 10.9795 2.00118 10.9778V10.3338C2.03829 10.3338 2.0758 10.3338 2.1135 10.3338C2.69895 10.3329 3.2844 10.3341 3.86985 10.3304C4.08382 10.329 4.20817 10.2557 4.25613 10.1203C4.31259 9.96077 4.21291 9.82333 4.02282 9.80531C3.95137 9.79845 3.87873 9.80171 3.80649 9.80154C3.20821 9.80136 2.60993 9.80154 2.00059 9.80154H2Z" fill="#498FD0"/>
<path d="M13.6727 9.02145C13.6449 9.08339 13.6156 9.14499 13.5894 9.20745C13.3504 9.77591 13.1125 10.3449 12.8713 10.9127C12.8594 10.9403 12.8196 10.9786 12.7923 10.9789C12.4278 10.9834 12.063 10.9818 11.6803 10.9818C11.7124 10.9079 11.7391 10.8425 11.7691 10.7785C12.1899 9.88006 12.6119 8.98199 13.0308 8.08288C13.06 8.02025 13.0953 7.99914 13.1737 8.00017C13.5221 8.00446 13.8707 8.00429 14.2192 8.00017C14.2964 7.99932 14.3337 8.01785 14.3633 8.08202C14.6734 8.75172 14.9875 9.42004 15.3005 10.0887C15.4251 10.3547 15.55 10.6206 15.6742 10.8868C15.6872 10.9147 15.6977 10.9437 15.7119 10.9784H14.5203C14.2467 10.3274 13.9725 9.67468 13.6981 9.02179C13.6895 9.02179 13.681 9.02162 13.6723 9.02145H13.6727Z" fill="#498FD0"/>
<path d="M10.5715 10.9986C10.3745 10.9986 10.1947 10.9986 10.0147 10.9986C9.83055 10.9986 9.64619 10.9947 9.46222 11C9.39215 11.0021 9.36491 10.978 9.3432 10.926C9.0862 10.3092 8.82762 9.69303 8.56885 9.07687C8.56233 9.0616 8.55168 9.04753 8.53292 9.01647C8.46305 9.18171 8.3987 9.33236 8.33514 9.48353C8.13085 9.96911 7.92734 10.455 7.72048 10.9398C7.71002 10.9643 7.66955 10.9954 7.64271 10.9957C7.27794 10.9995 6.91317 10.9983 6.53162 10.9983C6.58175 10.8914 6.62814 10.7931 6.67393 10.6947C7.08252 9.82035 7.49092 8.94595 7.90207 8.07241C7.91313 8.0489 7.95517 8.02162 7.9832 8.02128C8.37778 8.01802 8.77235 8.01904 9.17581 8.01904C9.63829 9.00635 10.1008 9.99382 10.5713 10.9988L10.5715 10.9986Z" fill="#498FD0"/>
<path d="M16.8644 10.9834V8.0223H18V10.9834H16.8644Z" fill="#498FD0"/>
</g>
<defs>
<clipPath id="clip0_793_69">
<rect width="16" height="3" fill="white" transform="translate(2 8)"/>
</clipPath>
</defs>
</svg>
