<svg width="20" height="20" viewBox="0 0 20 20" fill="none" xmlns="http://www.w3.org/2000/svg">
<rect width="20" height="20" rx="2" fill="#FBFEFE"/>
<g clip-path="url(#clip0_490_511)">
<path d="M6.14004 2C9.07397 2 12.0074 2 14.9506 2.0077C14.9765 2.02364 14.9924 2.03408 15.01 2.03958C15.2568 2.11215 15.5125 2.16217 15.7483 2.26057C16.254 2.47167 16.6773 2.79821 17.0226 3.2292C17.5025 3.82786 17.7334 4.51393 17.757 5.27311C17.7625 5.44408 17.7334 5.61615 17.7202 5.78712C17.6943 6.1208 17.5981 6.4369 17.4585 6.73816C17.248 7.19278 16.9203 7.55726 16.5355 7.86841C16.2128 8.12953 15.8538 8.33843 15.4806 8.51709C14.7571 8.86343 14.032 9.20591 13.3014 9.5363C12.7891 9.76774 12.2679 9.98048 11.7479 10.1943C11.1762 10.4291 10.6028 10.6605 10.0261 10.8837C9.61986 11.0409 9.21086 11.1937 8.79636 11.3273C8.39285 11.4571 7.97176 11.5197 7.54846 11.5357C7.07459 11.5538 6.60072 11.5434 6.1296 11.462C5.65463 11.3801 5.19285 11.2542 4.75527 11.0558C4.0725 10.7463 3.48208 10.3125 3.01151 9.72266C2.74159 9.38402 2.52005 9.019 2.35623 8.61769C2.199 8.23288 2.08521 7.83817 2.03793 7.42422C2.03628 7.40828 2.01319 7.39454 2 7.37969C2 6.97234 2 6.56554 2.00825 6.14884C2.02419 6.12575 2.03573 6.11311 2.03848 6.09881C2.07037 5.9306 2.09345 5.76018 2.13359 5.59416C2.23968 5.15052 2.41835 4.73602 2.64814 4.34242C2.92135 3.87514 3.26219 3.46339 3.67724 3.11651C4.01587 2.8334 4.38529 2.59866 4.78825 2.41505C5.16317 2.24463 5.55238 2.12479 5.95863 2.05772C6.02075 2.04728 6.07957 2.01979 6.14004 2Z" fill="#39594D"/>
<path d="M14.8401 18C13.6197 18 12.3993 18 11.1761 17.9934C11.1602 17.978 11.1481 17.9632 11.1338 17.9615C10.7204 17.9049 10.3433 17.7482 9.98982 17.5349C9.69792 17.3585 9.44119 17.1369 9.22459 16.873C9.01185 16.6141 8.83593 16.3316 8.71004 16.0199C8.58251 15.7049 8.4995 15.3761 8.4852 15.0386C8.47421 14.7863 8.4973 14.5306 8.52258 14.2783C8.55557 13.9512 8.66662 13.6428 8.81889 13.3553C8.92884 13.1475 9.06572 12.9518 9.2092 12.7649C9.45988 12.4394 9.76773 12.1712 10.1394 11.9953C10.5852 11.7842 11.0409 11.594 11.4955 11.4015C11.9491 11.2097 12.4065 11.0272 12.8616 10.8403C13.2937 10.6627 13.7434 10.5654 14.2096 10.5643C14.4449 10.5638 14.6807 10.594 14.9154 10.622C15.2475 10.6622 15.5597 10.7732 15.8615 10.9128C16.1353 11.0398 16.3871 11.2014 16.624 11.39C16.8642 11.5813 17.0759 11.7985 17.2606 12.0425C17.4492 12.2916 17.6053 12.5587 17.724 12.849C17.8351 13.1222 17.923 13.4004 17.9621 13.6928C17.9643 13.7099 17.9874 13.7247 18.0005 13.7407C18.0005 14.1013 18.0005 14.4614 17.9939 14.8247C17.9654 14.9171 17.939 15.0067 17.9214 15.0974C17.8637 15.3976 17.7609 15.6829 17.6185 15.95C17.4975 16.1771 17.3607 16.3992 17.2023 16.6009C17.0457 16.8005 16.8675 16.989 16.6735 17.1518C16.4096 17.3739 16.1144 17.5553 15.7956 17.6938C15.5042 17.8208 15.2029 17.9142 14.888 17.9621C14.8704 17.9648 14.8561 17.9874 14.8401 18.0005V18Z" fill="#D18EE2"/>
<path d="M2 14.4493C2.01319 14.4306 2.03628 14.4223 2.03793 14.4108C2.12204 13.9171 2.33534 13.4861 2.66133 13.1074C3.07858 12.6225 3.59643 12.3119 4.22807 12.202C4.42103 12.1684 4.61948 12.1387 4.81409 12.1448C5.17306 12.1563 5.52214 12.2283 5.85528 12.3768C6.18292 12.5225 6.47208 12.7193 6.72056 12.9738C7.09548 13.358 7.34231 13.8171 7.45611 14.341C7.52757 14.6708 7.53747 15.0094 7.51823 15.3464C7.48414 15.9544 7.28844 16.508 6.90362 16.9819C6.5364 17.4343 6.07133 17.7499 5.50235 17.9016C5.4034 17.928 5.30555 17.9588 5.21319 17.994C4.91249 18.0005 4.60574 18.0005 4.29569 17.994C4.27645 17.9786 4.2605 17.9659 4.24291 17.9615C4.13956 17.9351 4.03401 17.9164 3.93231 17.8846C3.4359 17.7301 3.01536 17.4596 2.67232 17.0655C2.34633 16.6911 2.13578 16.2639 2.03848 15.7785C2.03573 15.7637 2.01319 15.7532 2 15.7406C2 15.3135 2 14.8863 2 14.4498L2 14.4493Z" fill="#FF7759"/>
</g>
<defs>
<clipPath id="clip0_490_511">
<rect width="16" height="16" fill="white" transform="translate(2 2)"/>
</clipPath>
</defs>
</svg>
