<svg width="20" height="20" viewBox="0 0 20 20" fill="none" xmlns="http://www.w3.org/2000/svg">
<path d="M0 2C0 0.895431 0.895431 0 2 0H18C19.1046 0 20 0.895431 20 2V18C20 19.1046 19.1046 20 18 20H2C0.895431 20 0 19.1046 0 18V2Z" fill="white"/>
<path d="M6.41802 8.2757C5.92158 7.71378 5.42601 7.15187 4.92097 6.58094C5.10337 6.38663 5.28147 6.19732 5.46559 6C6.62537 7.31013 7.80666 8.6453 9 9.99249C7.81182 11.3347 6.62795 12.6728 5.4544 14C5.27458 13.8037 5.09821 13.6104 4.91581 13.411C5.42085 12.8391 5.91642 12.2782 6.43351 11.6923H2V8.30675H6.40511C6.40942 8.29673 6.41372 8.28571 6.41802 8.2757Z" fill="#498FD0"/>
<path d="M13 9.99749C12.0082 11.3437 11.0243 12.6799 10.0518 14C9.90383 13.8045 9.75867 13.6141 9.60922 13.4176C10.0304 12.8433 10.4444 12.2799 10.8742 11.6935H9.03075C9.02717 11.6845 9.02288 11.6755 9.01931 11.6665C9.42331 11.1141 9.82803 10.5608 10.2406 9.99649C9.83089 9.43817 9.42403 8.88285 9 8.30548H10.877C10.4444 7.71708 10.0311 7.15274 9.60851 6.57837C9.75867 6.38391 9.90383 6.19546 10.0547 6C11.0236 7.31512 12.0068 8.65029 12.9993 9.99749H13Z" fill="#498FD0"/>
<path d="M18 9.99347C16.7615 11.3394 15.5328 12.6732 14.3122 14C14.1307 13.8132 13.95 13.6264 13.7586 13.4295C14.2979 12.8439 14.8192 12.2765 15.3405 11.71L15.3306 11.6819H13C13.5303 11.1053 14.0381 10.5529 14.5522 9.99448C14.0372 9.43402 13.5276 8.87859 13 8.30408H15.3108C15.318 8.29203 15.3252 8.28098 15.3324 8.26893C14.8147 7.70546 14.297 7.142 13.7748 6.57351C13.9572 6.38267 14.137 6.19485 14.3239 6C15.531 7.31174 16.7588 8.64557 18 9.99448V9.99347Z" fill="#498FD0"/>
</svg>
