<svg width="20" height="20" viewBox="0 0 20 20" fill="none" xmlns="http://www.w3.org/2000/svg">
<path d="M0 2C0 0.895431 0.895431 0 2 0H18C19.1046 0 20 0.895431 20 2V18C20 19.1046 19.1046 20 18 20H2C0.895431 20 0 19.1046 0 18V2Z" fill="white"/>
<g clip-path="url(#clip0_830_97)">
<path d="M2 2.34841C2.12476 2.07803 2.3384 1.99541 2.62922 2C3.44078 2.01293 4.25317 2.00376 5.06473 2.00501C5.34596 2.00542 5.54791 2.18359 5.56418 2.43728C5.58212 2.72393 5.376 2.93924 5.07307 2.94049C4.42258 2.94299 3.77208 2.94132 3.12116 2.94132C3.06525 2.94132 3.00934 2.94132 2.93674 2.94132C2.93674 3.0882 2.93674 3.22214 2.93674 3.35607C2.93674 3.89183 2.93674 4.428 2.93674 4.96375C2.93674 5.30673 2.83075 5.48782 2.59125 5.55416C2.35467 5.61967 2.16148 5.51119 1.99917 5.2212V2.34841H2Z" fill="#629ED7"/>
<path d="M2 14.7792C2.05549 14.6999 2.09931 14.6069 2.1694 14.5439C2.31336 14.4141 2.4886 14.3937 2.66385 14.4742C2.84619 14.5581 2.9359 14.7112 2.93632 14.9111C2.93799 15.5666 2.93715 16.2217 2.93715 16.8772C2.93715 16.9331 2.93715 16.9886 2.93715 17.0595H3.41574C3.93063 17.0595 4.44594 17.0595 4.96083 17.0595C5.30381 17.0595 5.48365 17.1651 5.55083 17.405C5.61675 17.6399 5.50702 17.8339 5.21744 17.9962H2.34382C2.18943 17.9216 2.07469 17.8072 2 17.6528C2 16.6948 2 15.7372 2 14.7792Z" fill="#629ED7"/>
<path d="M14.7775 17.9962C14.6983 17.9407 14.6052 17.8969 14.5422 17.8268C14.4125 17.6825 14.3916 17.5081 14.473 17.3324C14.5572 17.1505 14.71 17.0603 14.9098 17.0599C15.5553 17.0587 16.2008 17.0595 16.8463 17.0595C16.9085 17.0595 16.9711 17.0595 17.0583 17.0595C17.0583 16.9998 17.0583 16.9456 17.0583 16.8909C17.0583 16.2613 17.0583 15.6317 17.0583 15.002C17.0583 14.6403 17.2331 14.4304 17.531 14.4325C17.8222 14.4346 17.9954 14.644 17.9954 14.9945C17.9954 15.7856 17.9871 16.5767 18 17.3674C18.0046 17.6579 17.9216 17.8715 17.652 17.9967H14.778L14.7775 17.9962Z" fill="#629ED7"/>
<path d="M2 17.6524C2.07469 17.8068 2.18943 17.9211 2.34382 17.9958H2V17.6524Z" fill="white"/>
<path d="M10.005 4.75554C11.5772 4.75554 13.1498 4.75554 14.7221 4.75554C15.0325 4.75554 15.1126 4.8344 15.1126 5.1415C15.1126 6.05236 15.1126 6.96323 15.1126 7.87409C15.1126 8.1645 15.0287 8.24837 14.7425 8.24879C14.3365 8.24879 13.9301 8.24879 13.5241 8.24879C13.2496 8.24879 13.1636 8.16158 13.1628 7.88202C13.1619 7.59579 13.1644 7.30955 13.1619 7.02331C13.1599 6.79508 13.0685 6.70245 12.8369 6.70119C12.3216 6.69827 11.8059 6.69827 11.2906 6.70119C11.0644 6.70245 10.9689 6.80175 10.9689 7.02915C10.968 9.42336 10.968 11.818 10.9689 14.2122C10.9689 14.4496 11.0632 14.5456 11.2985 14.5489C11.5017 14.5522 11.7045 14.5481 11.9077 14.5501C12.1326 14.5527 12.2256 14.639 12.2273 14.8585C12.2306 15.3008 12.2306 15.7435 12.2273 16.1858C12.2256 16.3948 12.1272 16.4929 11.9189 16.4929C10.638 16.4945 9.35743 16.4945 8.07646 16.4929C7.86783 16.4929 7.76978 16.3952 7.76811 16.1862C7.76477 15.7439 7.76477 15.3012 7.76811 14.8589C7.76978 14.639 7.86241 14.5527 8.08689 14.5501C8.29009 14.5481 8.49288 14.5518 8.69608 14.5489C8.93141 14.5451 9.02613 14.4492 9.02613 14.2126C9.02696 11.8184 9.02696 9.42377 9.02613 7.02957C9.02613 6.80259 8.93016 6.70245 8.70443 6.70119C8.18912 6.69786 7.67339 6.69827 7.15808 6.70119C6.92025 6.70245 6.83388 6.79466 6.83263 7.03875C6.83096 7.32499 6.83346 7.61122 6.83179 7.89746C6.83054 8.15657 6.73958 8.24837 6.48631 8.24879C6.06446 8.24962 5.64304 8.24962 5.22119 8.24879C4.9771 8.24837 4.88322 8.15449 4.8828 7.9058C4.88155 6.97408 4.88197 6.04235 4.8828 5.11062C4.8828 4.84525 4.97418 4.75596 5.24164 4.75596C6.82971 4.75596 8.41736 4.75596 10.0054 4.75596L10.005 4.75554Z" fill="#629ED7"/>
<path d="M17.0578 2.94174C16.3339 2.94174 15.6317 2.94257 14.9298 2.94132C14.6691 2.94091 14.4734 2.78527 14.4346 2.55495C14.3878 2.27497 14.5881 2.01043 14.8748 2.00793C15.7648 2.00083 16.6544 2.00167 17.5444 2.00751C17.7935 2.00918 17.9908 2.20904 17.9925 2.45898C17.9979 3.34356 17.9979 4.22772 17.9925 5.11229C17.9908 5.3785 17.7789 5.57211 17.5185 5.56877C17.2602 5.56543 17.0608 5.36682 17.0591 5.09644C17.0553 4.44093 17.0578 3.78543 17.0578 3.12992C17.0578 3.07359 17.0578 3.01726 17.0578 2.94174Z" fill="#629ED7"/>
</g>
<defs>
<clipPath id="clip0_830_97">
<rect width="16" height="15.9962" fill="white" transform="translate(2 2)"/>
</clipPath>
</defs>
</svg>
