<svg width="20" height="20" viewBox="0 0 20 20" fill="none" xmlns="http://www.w3.org/2000/svg">
<path d="M0 2C0 0.895431 0.895431 0 2 0H18C19.1046 0 20 0.895431 20 2V18C20 19.1046 19.1046 20 18 20H2C0.895431 20 0 19.1046 0 18V2Z" fill="white"/>
<g clip-path="url(#clip0_769_167)">
<path d="M5.23542 13.9998V17.9951H4V13.8762C4.40893 13.9171 4.81114 13.957 5.23542 13.9998Z" fill="#498FD0"/>
<path d="M10.3297 5.24163C10.7915 5.24163 11.1054 5.23676 11.4192 5.24357C11.6602 5.24843 11.7744 5.37195 11.7159 5.62093C11.0151 8.59218 9.52244 10.9137 6.55916 11.9972C5.92177 12.2297 5.25366 12.3736 4.59035 12.5613C5.60307 12.713 7.43461 12.608 8.39741 12.3454C11.6746 11.4516 13.6626 9.1874 14.803 6.07221C15.0209 5.47796 15.2426 5.10644 15.9126 5.21148C15.929 5.21439 15.952 5.16966 16.001 5.11422C15.0852 4.08911 14.1675 3.06109 13.2191 2C12.263 3.07276 11.3501 4.09689 10.3297 5.24163ZM14.9825 9.33816C14.587 9.80986 14.2433 10.1931 13.9333 10.6025C13.8191 10.7542 13.7211 10.9653 13.7192 11.1501C13.7048 13.317 13.7096 15.4839 13.7106 17.6518C13.7106 17.7607 13.7269 17.8697 13.7365 17.9835H14.9815V9.33816H14.9825ZM12.5539 11.8708C12.2342 12.0838 11.9866 12.2929 11.7034 12.4242C11.3597 12.5846 11.2743 12.8151 11.2801 13.1818C11.3012 14.6193 11.2877 16.0577 11.2897 17.4952C11.2897 17.6645 11.3041 17.8347 11.3108 17.9815H12.5539V11.8698V11.8708ZM10.1138 17.9971V13.2548C9.67507 13.3977 9.25942 13.5319 8.87065 13.6584V17.9971H10.1138ZM5.23542 13.9998C4.81114 13.957 4.40893 13.9171 4 13.8762V17.9951H5.23542V13.9998ZM7.65155 18.001V13.8957C7.22534 13.9395 6.83465 13.9803 6.44492 14.0202V18H7.65155V18.001Z" fill="white"/>
<path d="M10.3297 5.24163C11.3501 4.09689 12.263 3.07276 13.2191 2C14.1665 3.06109 15.0842 4.08911 16.001 5.11422C15.953 5.16868 15.929 5.21342 15.9126 5.21148C15.2426 5.10644 15.0199 5.47796 14.803 6.07221C13.6626 9.18741 11.6746 11.4526 8.39741 12.3454C7.43461 12.608 5.60307 12.7121 4.59035 12.5613C5.25366 12.3736 5.92273 12.2297 6.55916 11.9972C9.5234 10.9137 11.0151 8.59121 11.7159 5.62094C11.7744 5.37195 11.6602 5.24843 11.4192 5.24357C11.1054 5.23774 10.7915 5.24163 10.3297 5.24163Z" fill="#498FD0"/>
<path d="M14.9815 9.33815V17.9835H13.7365C13.7269 17.8697 13.7106 17.7607 13.7106 17.6518C13.7087 15.4849 13.7039 13.318 13.7192 11.1501C13.7202 10.9653 13.8181 10.7533 13.9333 10.6025C14.2433 10.1931 14.587 9.80985 14.9825 9.33815H14.9815Z" fill="#498FD0"/>
<path d="M12.5529 11.8708V17.9825H11.3098C11.3031 17.8347 11.2897 17.6654 11.2887 17.4962C11.2868 16.0587 11.3002 14.6203 11.2791 13.1828C11.2733 12.8151 11.3588 12.5846 11.7024 12.4251C11.9856 12.2938 12.2333 12.0838 12.5529 11.8717V11.8708Z" fill="#498FD0"/>
<path d="M10.1128 17.9971H8.86969V13.6584C9.25846 13.5319 9.67411 13.3968 10.1128 13.2548V17.9971Z" fill="#498FD0"/>
<path d="M7.65155 18H6.44492V14.0202C6.83465 13.9803 7.22534 13.9395 7.65155 13.8957V18.001V18Z" fill="#498FD0"/>
<path d="M5 17.9993H4V15.091C4.32299 15.0618 4.64678 15.032 5 15V18V17.9993Z" fill="#498FD0"/>
</g>
<defs>
<clipPath id="clip0_769_167">
<rect width="12" height="16" fill="white" transform="translate(4 2)"/>
</clipPath>
</defs>
</svg>
