<svg width="20" height="20" viewBox="0 0 20 20" fill="none" xmlns="http://www.w3.org/2000/svg">
<path d="M0 2C0 0.895431 0.895431 0 2 0H18C19.1046 0 20 0.895431 20 2V18C20 19.1046 19.1046 20 18 20H2C0.895431 20 0 19.1046 0 18V2Z" fill="white"/>
<path d="M5.27508 5.93124C5.38465 5.81006 5.49331 5.69475 5.59686 5.57424C5.90901 5.2112 6.2192 4.84598 6.53014 4.4816C6.58643 4.41564 6.58523 4.39181 6.51314 4.31796C6.29009 4.08936 6.06689 3.8611 5.84218 3.63451C5.39639 3.18453 4.94878 2.73657 4.50374 2.28575C4.34164 2.12143 4.26007 1.92473 4.33622 1.6775C4.3874 1.5115 4.50103 1.41449 4.6407 1.35138C4.97392 1.201 5.31647 1.08502 5.67407 1.03618C6.15072 0.97089 6.62406 0.99271 7.09363 1.11188C7.89161 1.31446 8.58018 1.73775 9.15496 2.38545C9.61761 2.90693 9.95173 3.51753 10.135 4.22514C10.3185 4.93326 10.3546 5.64893 10.2089 6.37115C10.1971 6.43039 10.207 6.46564 10.2466 6.5076C10.8609 7.15815 11.4739 7.81004 12.086 8.46311C12.5043 8.90939 12.9201 9.35837 13.3375 9.80549C13.8504 10.355 14.3635 10.9042 14.877 11.4527C16.0589 12.7153 17.249 13.9688 18.4198 15.244C18.9358 15.8061 19.0988 16.5132 18.9438 17.3014C18.7716 18.177 18.1088 18.8628 17.3142 18.979C16.681 19.0714 16.1327 18.8576 15.6712 18.3653C14.9304 17.5751 14.1895 16.7851 13.448 15.9958C13.0092 15.5287 12.5696 15.0629 12.1301 14.5968C11.6437 14.0809 11.1571 13.5649 10.6705 13.0492C9.93111 12.2654 9.19198 11.4814 8.4524 10.6977C8.13799 10.3646 7.82374 10.0316 7.50632 9.70193C7.48585 9.68079 7.43603 9.67659 7.40653 9.68733C6.98482 9.83923 6.55257 9.902 6.11023 9.88941C5.50219 9.87196 4.92696 9.711 4.38047 9.41359C3.85069 9.12524 3.39 8.73551 3.00892 8.23585C2.48381 7.5472 2.16594 6.75483 2.08873 5.84933C2.03319 5.19744 2.11386 4.56687 2.33812 3.96163C2.44181 3.68168 2.60195 3.5704 2.83448 3.59591C2.95579 3.60917 3.04925 3.68285 3.13564 3.7708C3.49264 4.13434 3.84904 4.49856 4.20619 4.86176C4.52285 5.18368 4.83997 5.50509 5.15753 5.826C5.19441 5.86326 5.23489 5.89582 5.27508 5.93174V5.93124ZM3.00425 4.98647C2.99823 5.01013 2.99372 5.01986 2.99342 5.02977C2.9889 5.28908 2.95805 5.55209 2.98574 5.80704C3.08538 6.72663 3.47609 7.47553 4.11799 8.05794C4.63347 8.52554 5.2221 8.80617 5.88733 8.88036C6.38807 8.93608 6.8736 8.87079 7.33971 8.65931C7.56201 8.55827 7.75119 8.58748 7.92638 8.77361C8.49589 9.37884 9.06857 9.98038 9.63913 10.5844C10.3461 11.333 11.0521 12.0826 11.7581 12.8322C12.4808 13.5993 13.2025 14.3677 13.9257 15.1342C14.6979 15.9528 15.4736 16.7672 16.2427 17.5896C16.4444 17.8053 16.6599 17.9622 16.9474 17.9924C17.4141 18.0414 17.8978 17.7062 18.0384 17.2076C18.177 16.7161 18.0858 16.2762 17.7574 15.9127C17.3947 15.5112 17.0208 15.1222 16.6522 14.7269C15.8321 13.8472 15.0125 12.9669 14.1922 12.0876C13.829 11.6982 13.4639 11.3112 13.1006 10.922C12.6324 10.4203 12.166 9.91643 11.6973 9.41526C10.9356 8.60074 10.1739 7.78604 9.40901 6.9752C9.25549 6.81257 9.22013 6.62526 9.27732 6.41042C9.40705 5.92234 9.4358 5.42822 9.3625 4.92588C9.22675 3.99571 8.80473 3.25771 8.13242 2.70183C7.65096 2.30371 7.10778 2.06235 6.50395 2.00848C6.20836 1.98213 5.91548 2.00294 5.61477 2.05833C5.63418 2.08099 5.64668 2.09777 5.66112 2.1122C6.10948 2.56302 6.55859 3.013 7.00619 3.46483C7.09695 3.55647 7.19402 3.64492 7.26807 3.752C7.56517 4.18217 7.52182 4.76206 7.17461 5.16639C6.7866 5.61855 6.3992 6.07139 6.01496 6.52757C5.61913 6.99753 5.02253 7.03764 4.60232 6.61216C4.18858 6.19324 3.7789 5.76944 3.36667 5.34866C3.24928 5.22883 3.12977 5.11167 3.00425 4.98647Z" fill="#498FD0"/>
<path d="M3.1811 12.8634C3.51056 13.2247 3.84558 13.592 4.17941 13.9582C4.41976 13.7833 4.64507 13.6218 4.86797 13.4562C4.98461 13.3696 5.1023 13.2868 5.24965 13.315C5.31211 13.327 5.37412 13.3543 5.43116 13.3862C5.6971 13.5356 5.95507 13.7046 6.22763 13.8363C6.46769 13.9523 6.71994 14.0423 6.97309 14.1175C7.20246 14.1856 7.3331 14.3308 7.37147 14.5886C7.41211 14.8612 7.45741 15.1331 7.49684 15.4058C7.50603 15.4693 7.53131 15.4867 7.58519 15.4864C8.03114 15.483 8.47724 15.4812 8.92318 15.4815C8.97706 15.4815 8.99001 15.454 8.99723 15.4035C9.03787 15.1223 9.08091 14.8415 9.12215 14.5604C9.15933 14.307 9.29599 14.1648 9.5237 14.1218C9.88416 14.0537 10.2427 13.9736 10.6028 13.9037C10.8662 13.8525 11.0795 14.0151 11.1251 14.2932C11.1705 14.5712 11.0172 14.8219 10.7574 14.8766C10.5879 14.9124 10.4156 14.9322 10.2443 14.9572C10.0523 14.9852 9.94206 15.104 9.91366 15.3138C9.8816 15.5485 9.8512 15.7835 9.81388 16.0171C9.77565 16.2559 9.62048 16.4164 9.4042 16.4389C8.81723 16.4998 8.22875 16.501 7.63998 16.4807C7.4696 16.4748 7.29938 16.4672 7.12931 16.4553C6.88474 16.4384 6.724 16.2798 6.68141 16.0116C6.63249 15.7036 6.58779 15.3947 6.54189 15.0863C6.53527 15.0414 6.53045 15.0045 6.47868 14.9889C6.0681 14.8652 5.67934 14.6809 5.31256 14.4421C5.23911 14.3942 5.1905 14.4021 5.12548 14.4508C4.88859 14.6286 4.64928 14.8023 4.40968 14.9751C4.22621 15.1076 4.03763 15.0998 3.87117 14.9513C3.67597 14.7773 3.48738 14.5916 3.31114 14.3941C2.96678 14.0081 2.6304 13.613 2.29613 13.2158C2.14487 13.0361 2.13991 12.7684 2.27506 12.5582C2.44589 12.2926 2.62077 12.0302 2.79656 11.7686C2.8229 11.7293 2.82772 11.7038 2.80529 11.6591C2.64049 11.3313 2.50699 10.9886 2.4221 10.6242C2.40856 10.566 2.38177 10.5467 2.3309 10.5366C2.02011 10.4757 1.70961 10.4133 1.40002 10.3453C1.19669 10.3006 1.05085 10.1103 1.037 9.88153C0.996519 9.21722 0.992003 8.55224 1.01021 7.88692C1.01789 7.60696 1.21084 7.40371 1.45842 7.4069C1.71232 7.41009 1.90587 7.62895 1.90497 7.91797C1.90422 8.17225 1.89504 8.42636 1.89579 8.68064C1.89654 8.90688 1.90738 9.13297 1.91024 9.35921C1.91099 9.42501 1.93402 9.44951 1.99151 9.46109C2.27235 9.51782 2.5532 9.57539 2.83238 9.64152C3.01525 9.68482 3.14619 9.80953 3.19239 10.0145C3.30979 10.5363 3.48919 11.0272 3.74475 11.4842C3.85145 11.6749 3.82587 11.8662 3.7148 12.0423C3.54488 12.3117 3.36848 12.5759 3.18125 12.8632L3.1811 12.8634Z" fill="#498FD0"/>
<path d="M15.1944 9.60996C15.2391 9.16401 15.2385 8.72293 15.2133 8.28151C15.2101 8.22713 15.1895 8.20497 15.1415 8.19641C14.8966 8.15244 14.6523 8.10561 14.4079 8.05861C14.1502 8.0091 14.0351 7.88154 13.9755 7.59856C13.8816 7.15328 13.7358 6.72932 13.5405 6.32667C13.4746 6.19072 13.4028 6.05276 13.4432 5.89146C13.4656 5.802 13.5013 5.71187 13.549 5.63618C13.6932 5.40791 13.8458 5.1862 13.996 4.96263C14.0198 4.92722 14.0407 4.89919 14.0015 4.85606C13.7207 4.54555 13.4417 4.23303 13.1616 3.92169C13.1494 3.9081 13.1342 3.89786 13.1154 3.88174C12.9126 4.03632 12.7042 4.18167 12.5099 4.34733C12.2886 4.53598 12.0617 4.52507 11.8419 4.35304C11.4932 4.08013 11.1067 3.87839 10.6918 3.77097C10.399 3.6951 10.2625 3.50981 10.2311 3.19091C10.2097 2.97457 10.1704 2.7604 10.1421 2.54473C10.1328 2.47289 10.108 2.4316 10.0428 2.40022C9.74871 2.25856 9.6849 1.79834 9.9227 1.56807C10.106 1.39066 10.6462 1.40241 10.8111 1.60147C10.8758 1.67968 10.9297 1.78794 10.9484 1.89133C11.0029 2.19226 11.0382 2.49757 11.0781 2.80169C11.0851 2.85456 11.1069 2.8794 11.1495 2.89501C11.486 3.01871 11.8088 3.17614 12.111 3.38359C12.1478 3.40877 12.1764 3.41011 12.2128 3.38225C12.4194 3.22448 12.6246 3.06403 12.8363 2.91515C12.9233 2.85389 13.0221 2.80522 13.1214 2.77568C13.2478 2.73791 13.3676 2.78474 13.4609 2.88561C13.8134 3.26644 14.1644 3.64912 14.5125 4.03481C14.6314 4.16657 14.7377 4.31259 14.8543 4.44703C15.073 4.69912 15.0912 4.96146 14.9049 5.2441C14.7566 5.46901 14.6102 5.69542 14.46 5.91865C14.4175 5.98176 14.4102 6.03194 14.4395 6.11083C14.5583 6.43023 14.6674 6.75399 14.7762 7.07776C14.7931 7.12794 14.8176 7.1454 14.8609 7.15278C15.116 7.19608 15.3708 7.24157 15.6258 7.28605C15.9164 7.3369 16.0612 7.50927 16.0748 7.83522C16.0921 8.25129 16.1152 8.66754 16.1134 9.08378C16.1119 9.41292 16.0835 9.74255 16.0538 10.0705C16.0356 10.2714 15.9378 10.4283 15.7542 10.4774C15.4867 10.5489 15.2169 10.6145 14.9451 10.66C14.7196 10.6977 14.5044 10.5039 14.4767 10.2691C14.4433 9.98559 14.5956 9.74104 14.8361 9.69002C14.9562 9.66451 15.0759 9.63631 15.1941 9.60979L15.1944 9.60996Z" fill="#498FD0"/>
<path d="M8.24953 13.1697C7.58354 13.1717 6.95744 13.0002 6.36716 12.6517C5.69018 12.2521 5.14054 11.7006 4.72168 10.9864C4.52828 10.6568 4.69444 10.2424 5.03849 10.2031C5.22843 10.1815 5.37533 10.2755 5.47677 10.4505C5.62035 10.6981 5.77778 10.9332 5.97283 11.1323C6.80377 11.9802 7.76746 12.3471 8.89113 12.1177C9.03185 12.089 9.1637 12.0883 9.28847 12.1794C9.44574 12.2942 9.51016 12.4591 9.48788 12.6606C9.46531 12.8644 9.36327 13.0215 9.18085 13.0586C8.91581 13.1126 8.64551 13.1348 8.3773 13.1688C8.33531 13.1742 8.29227 13.1695 8.24968 13.1695L8.24953 13.1697Z" fill="#498FD0"/>
<path d="M13.6358 8.36461C13.6411 8.612 13.5127 8.80099 13.3095 8.86158C13.1137 8.92016 12.8804 8.81156 12.7904 8.61116C12.7586 8.54033 12.738 8.45994 12.7264 8.38139C12.58 7.38761 12.159 6.57224 11.4566 5.93831C11.3523 5.84415 11.258 5.74261 11.2242 5.58853C11.1827 5.39904 11.2515 5.18001 11.3927 5.06755C11.5402 4.95007 11.7348 4.94453 11.8851 5.06655C12.1967 5.31965 12.4707 5.61841 12.7117 5.95291C13.2058 6.63887 13.5037 7.42252 13.6299 8.28908C13.6343 8.31929 13.6347 8.35017 13.6358 8.36461Z" fill="#498FD0"/>
</svg>
