<svg width="20" height="20" viewBox="0 0 20 20" fill="none" xmlns="http://www.w3.org/2000/svg">
<rect width="20" height="20" rx="2" fill="#FBFEFE"/>
<path d="M3.25 6.5H4.25V13.5H3.25V6.5ZM5.25 6.5H6.25V13.5H5.25V6.5ZM3.25 9.5H6.25V10.5H3.25V9.5ZM6.75 6.5H9.75V7.5H6.75V6.5ZM7.75 6.5H8.75V13.5H7.75V6.5ZM10.25 6.5H13.25V7.5H10.25V6.5ZM11.25 6.5H12.25V13.5H11.25V6.5ZM13.75 6.5H14.75V13.5H13.75V6.5ZM14.75 6.5H16.75V7.5H14.75V6.5ZM14.75 9.5H16.75V10.5H14.75V9.5ZM15.75 7.5H16.75V9.5H15.75V7.5Z" fill="#498FD0"/>
</svg>
