<svg width="20" height="20" viewBox="0 0 20 20" fill="none" xmlns="http://www.w3.org/2000/svg">
<path d="M0 2C0 0.895431 0.895431 0 2 0H18C19.1046 0 20 0.895431 20 2V18C20 19.1046 19.1046 20 18 20H2C0.895431 20 0 19.1046 0 18V2Z" fill="white"/>
<path d="M7 10.5C9.48528 10.5 11.5 8.48528 11.5 6C11.5 3.51472 9.48528 1.5 7 1.5C4.51472 1.5 2.5 3.51472 2.5 6C2.5 8.48528 4.51472 10.5 7 10.5Z" stroke="#498FD0" stroke-width="1.5" stroke-linecap="round" stroke-linejoin="round"/>
<path d="M4.5 5H9.5" stroke="#498FD0" stroke-width="1.1" stroke-linecap="round" stroke-linejoin="round"/>
<path d="M4.5 7H8.5" stroke="#498FD0" stroke-width="1.1" stroke-linecap="round" stroke-linejoin="round"/>
<path d="M10.2 9.2L12.5 11.5" stroke="#498FD0" stroke-width="1.6" stroke-linecap="round" stroke-linejoin="round"/>
<path d="M14 14.8C14.9941 14.8 15.8 13.9941 15.8 13C15.8 12.0059 14.9941 11.2 14 11.2C13.0059 11.2 12.2 12.0059 12.2 13C12.2 13.9941 13.0059 14.8 14 14.8Z" stroke="#498FD0" stroke-width="1.3" stroke-linecap="round" stroke-linejoin="round"/>
<path d="M16.5 11.3C17.4941 11.3 18.3 10.4941 18.3 9.5C18.3 8.50588 17.4941 7.7 16.5 7.7C15.5059 7.7 14.7 8.50588 14.7 9.5C14.7 10.4941 15.5059 11.3 16.5 11.3Z" stroke="#498FD0" stroke-width="1.3" stroke-linecap="round" stroke-linejoin="round"/>
<path d="M15.5 11.5L15.8 11.8" stroke="#498FD0" stroke-width="1.2" stroke-linecap="round" stroke-linejoin="round"/>
<path d="M7 10.5V17" stroke="#498FD0" stroke-width="1.4" stroke-linecap="round" stroke-linejoin="round"/>
<path d="M5 15L7 17.5L9 15" stroke="#498FD0" stroke-width="1.3" stroke-linecap="round" stroke-linejoin="round"/>
</svg>
