<svg width="20" height="20" viewBox="0 0 20 20" fill="none" xmlns="http://www.w3.org/2000/svg">
<path d="M0 2C0 0.895431 0.895431 0 2 0H18C19.1046 0 20 0.895431 20 2V18C20 19.1046 19.1046 20 18 20H2C0.895431 20 0 19.1046 0 18V2Z" fill="white"/>
<circle cx="13" cy="10" r="5.75" stroke="#629ED7" stroke-width="0.5"/>
<circle cx="7" cy="10" r="5.75" stroke="#629ED7" stroke-width="0.5"/>
<path d="M4.07271 12H3.24885L4.50417 8.36364H5.49494L6.74849 12H5.92463L5.01376 9.1946H4.98535L4.07271 12ZM4.02122 10.5707H5.96724V11.1708H4.02122V10.5707Z" fill="#629ED7"/>
<path d="M13.6632 12V8.36364H15.1192C15.3867 8.36364 15.6098 8.40329 15.7886 8.4826C15.9673 8.56191 16.1017 8.67199 16.1916 8.81286C16.2816 8.95253 16.3266 9.11352 16.3266 9.29581C16.3266 9.43786 16.2982 9.56274 16.2413 9.67045C16.1845 9.77699 16.1064 9.86458 16.007 9.93324C15.9087 10.0007 15.7963 10.0487 15.6696 10.0771V10.1126C15.8081 10.1185 15.9377 10.1576 16.0585 10.2298C16.1804 10.302 16.2792 10.4032 16.355 10.5334C16.4307 10.6624 16.4686 10.8163 16.4686 10.995C16.4686 11.188 16.4207 11.3602 16.3248 11.5117C16.2301 11.6621 16.0898 11.781 15.904 11.8686C15.7181 11.9562 15.4891 12 15.2168 12H13.6632ZM14.432 11.3714H15.0588C15.2731 11.3714 15.4293 11.3306 15.5276 11.2489C15.6258 11.1661 15.6749 11.056 15.6749 10.9187C15.6749 10.8181 15.6507 10.7293 15.6021 10.6523C15.5536 10.5754 15.4844 10.515 15.3944 10.4712C15.3056 10.4274 15.1997 10.4055 15.0766 10.4055H14.432V11.3714ZM14.432 9.8853H15.002C15.1073 9.8853 15.2009 9.86695 15.2825 9.83026C15.3654 9.79238 15.4305 9.73911 15.4778 9.67045C15.5264 9.6018 15.5506 9.51953 15.5506 9.42365C15.5506 9.29226 15.5039 9.18632 15.4104 9.10582C15.318 9.02533 15.1867 8.98509 15.0162 8.98509H14.432V9.8853Z" fill="#629ED7"/>
<mask id="path-6-inside-1_793_96" fill="white">
<path fill-rule="evenodd" clip-rule="evenodd" d="M10 15.3946C11.7934 14.3572 13 12.4182 13 10.1973C13 7.97646 11.7934 6.03743 10 5C8.2066 6.03743 7 7.97646 7 10.1973C7 12.4182 8.2066 14.3572 10 15.3946Z"/>
</mask>
<path fill-rule="evenodd" clip-rule="evenodd" d="M10 15.3946C11.7934 14.3572 13 12.4182 13 10.1973C13 7.97646 11.7934 6.03743 10 5C8.2066 6.03743 7 7.97646 7 10.1973C7 12.4182 8.2066 14.3572 10 15.3946Z" fill="#498FD0" fill-opacity="0.3"/>
<path d="M10 15.3946L9.74964 15.8274L10 15.9722L10.2504 15.8274L10 15.3946ZM10 5L10.2504 4.5672L10 4.42237L9.74964 4.5672L10 5ZM12.5 10.1973C12.5 12.2325 11.3949 14.0101 9.74964 14.9618L10.2504 15.8274C12.1919 14.7043 13.5 12.6039 13.5 10.1973H12.5ZM9.74964 5.4328C11.3949 6.38453 12.5 8.16216 12.5 10.1973H13.5C13.5 7.79076 12.1919 5.69032 10.2504 4.5672L9.74964 5.4328ZM7.5 10.1973C7.5 8.16216 8.60511 6.38453 10.2504 5.4328L9.74964 4.5672C7.80809 5.69032 6.5 7.79076 6.5 10.1973H7.5ZM10.2504 14.9618C8.60511 14.0101 7.5 12.2325 7.5 10.1973H6.5C6.5 12.6039 7.80809 14.7043 9.74964 15.8274L10.2504 14.9618Z" fill="#629ED7" mask="url(#path-6-inside-1_793_96)"/>
</svg>
