<svg width="20" height="20" viewBox="0 0 20 20" fill="none" xmlns="http://www.w3.org/2000/svg">
<rect width="20" height="20" rx="2" fill="white"/>
<g clip-path="url(#clip0_550_67)">
<path d="M6.33 4.01H7.66V5.34H6.33V8.67C6.33 9.41 5.73 10 5 10C5.74 10 6.33 10.6 6.33 11.33V14.66H7.66V15.99H6.33C5.62 15.81 5 15.39 5 14.66V11.99C5 11.25 4.4 10.66 3.67 10.66H3V9.33H3.67C4.41 9.33 5 8.73 5 8V5.33C5 4.59 5.6 4 6.33 4M13.91 4C14.65 4 15.24 4.6 15.24 5.33V8C15.24 8.74 15.84 9.33 16.57 9.33H17.24V10.66H16.57C15.83 10.66 15.24 11.26 15.24 11.99V14.66C15.24 15.4 14.64 15.99 13.91 15.99H12.58V14.66H13.91V11.33C13.91 10.59 14.51 10 15.24 10C14.5 10 13.91 9.4 13.91 8.67V5.34H12.58V4.01H13.91" fill="#498FD0"/>
<path d="M9.51 7.74V6.35H10.9V7.74H9.51ZM9.51 13.38V12.79C9.97 12.73 10.2 12.45 10.2 11.93C10.2 11.88 10.2 11.85 10.18 11.83H9.51V10.44H10.9V11.77C10.9 12.15 10.86 12.45 10.78 12.68C10.7 12.91 10.56 13.07 10.36 13.19C10.16 13.31 9.88 13.37 9.51 13.38Z" fill="#498FD0"/>
</g>
<defs>
<clipPath id="clip0_550_67">
<rect width="14.24" height="11.99" fill="white" transform="translate(3 4)"/>
</clipPath>
</defs>
</svg>
