<svg width="20" height="20" viewBox="0 0 20 20" fill="none" xmlns="http://www.w3.org/2000/svg">
<rect width="20" height="20" rx="2" fill="#FBFEFE"/>
<path d="M13.3333 6.66667H16.6667V13.3333H13.3333V14.6667C13.3333 14.8435 13.4036 15.013 13.5286 15.1381C13.6536 15.2631 13.8232 15.3333 14 15.3333H15.3333V16.6667H13.6667C13.3 16.6667 12.6667 16.3667 12.6667 16C12.6667 16.3667 12.0333 16.6667 11.6667 16.6667H9.99999V15.3333H11.3333C11.5101 15.3333 11.6797 15.2631 11.8047 15.1381C11.9298 15.013 12 14.8435 12 14.6667V5.33333C12 5.15652 11.9298 4.98695 11.8047 4.86193C11.6797 4.7369 11.5101 4.66667 11.3333 4.66667H9.99999V3.33333H11.6667C12.0333 3.33333 12.6667 3.63333 12.6667 4C12.6667 3.63333 13.3 3.33333 13.6667 3.33333H15.3333V4.66667H14C13.8232 4.66667 13.6536 4.7369 13.5286 4.86193C13.4036 4.98695 13.3333 5.15652 13.3333 5.33333V6.66667ZM3.33333 6.66667H10.6667V8H4.66666V12H10.6667V13.3333H3.33333V6.66667ZM15.3333 12V8H13.3333V12H15.3333ZM7.66666 10C7.66666 9.73478 7.5613 9.48043 7.37377 9.29289C7.18623 9.10536 6.93188 9 6.66666 9C6.40144 9 6.14709 9.10536 5.95955 9.29289C5.77202 9.48043 5.66666 9.73478 5.66666 10C5.66666 10.2652 5.77202 10.5196 5.95955 10.7071C6.14709 10.8946 6.40144 11 6.66666 11C6.93188 11 7.18623 10.8946 7.37377 10.7071C7.5613 10.5196 7.66666 10.2652 7.66666 10ZM10.6667 9.26C10.26 8.88667 9.62666 8.92 9.25333 9.33333C8.87999 9.73333 8.91333 10.3667 9.33333 10.74C9.69999 11.0867 10.2867 11.0867 10.6667 10.74V9.26Z" fill="#498FD0"/>
</svg>
