<svg width="20" height="20" viewBox="0 0 20 20" fill="none" xmlns="http://www.w3.org/2000/svg">
<path d="M0 2C0 0.895431 0.895431 0 2 0H18C19.1046 0 20 0.895431 20 2V18C20 19.1046 19.1046 20 18 20H2C0.895431 20 0 19.1046 0 18V2Z" fill="#FBFEFE"/>
<g clip-path="url(#clip0_490_513)">
<path d="M10.2076 7.20204C10.3714 7.00351 10.5352 6.80498 10.7007 6.6081C10.8363 6.44762 10.9637 6.27556 11.1176 6.13328C11.3277 5.93971 11.5626 5.77261 11.7827 5.58732C12.092 5.32592 12.456 5.17702 12.8398 5.07279C12.9722 5.03639 13.1112 5.01654 13.2485 5.00827C13.6207 4.98841 13.9946 4.99834 14.3487 5.12739C14.7507 5.27298 15.1411 5.44835 15.4687 5.73787C15.5994 5.85368 15.75 5.94467 15.8757 6.06545C16.018 6.20111 16.1503 6.35001 16.2711 6.50387C16.4217 6.69579 16.5689 6.89101 16.6947 7.10112C16.875 7.40388 17.0487 7.71326 17.1976 8.03257C17.3266 8.30886 17.4292 8.59838 17.5235 8.88956C17.6824 9.37266 17.8131 9.86402 17.8726 10.3703C17.9024 10.6168 17.9388 10.865 17.957 11.1131C17.9801 11.4357 18.0066 11.7583 17.9983 12.081C17.9818 12.6815 17.9107 13.2788 17.6956 13.8446C17.5301 14.278 17.3151 14.6883 16.9594 15.001C16.7923 15.1466 16.597 15.2591 16.4018 15.3799C16.3836 15.231 16.3224 15.1119 16.2397 14.9994C16.2049 14.953 16.1785 14.9001 16.1421 14.8571C16.0759 14.776 16.0627 14.6834 16.0709 14.5825C16.0908 14.3525 16.0776 14.1242 16.013 13.9008C16.0015 13.8595 15.9816 13.8131 15.9899 13.7751C16.0064 13.6874 15.97 13.6642 15.8972 13.6642C15.9419 13.6229 15.9899 13.5948 16.0213 13.5534C16.1801 13.3383 16.3125 13.1117 16.3373 12.8354C16.3555 12.6418 16.4068 12.4499 16.4151 12.2563C16.425 12.0164 16.4101 11.7749 16.3952 11.535C16.3803 11.2753 16.3356 11.0172 16.3356 10.7574C16.3356 10.4547 16.2678 10.1635 16.1967 9.87726C15.9915 9.04342 15.6987 8.24268 15.1858 7.53955C14.9707 7.24506 14.7226 6.98531 14.4281 6.77354C14.2941 6.67593 14.1303 6.61472 13.9748 6.55185C13.677 6.42942 13.3693 6.3831 13.0466 6.45755C12.6479 6.55185 12.3137 6.76196 12.0341 7.04653C11.8058 7.27815 11.6056 7.53624 11.4038 7.79102C11.2648 7.96473 11.144 8.15169 11.0084 8.32871C10.9769 8.29893 10.9488 8.27577 10.929 8.24764C10.747 7.99451 10.5633 7.74139 10.3847 7.48495C10.3218 7.39561 10.2672 7.29965 10.2093 7.20701L10.2076 7.20204Z" fill="#0080F9"/>
<path d="M9.99421 10.0857C9.69476 10.6052 9.3953 11.1264 9.09585 11.6458C8.84438 12.0826 8.59952 12.5227 8.33978 12.9545C8.16275 13.249 7.97249 13.5369 7.77396 13.8181C7.64161 14.0067 7.48444 14.1788 7.33885 14.3575C7.25116 14.465 7.17671 14.5841 7.07579 14.6784C6.70355 15.0242 6.32303 15.3667 5.82504 15.5205C5.61658 15.5834 5.3982 15.6264 5.18147 15.6396C4.93165 15.6562 4.67687 15.6496 4.42705 15.6181C4.12263 15.5801 3.83311 15.4858 3.56013 15.3319C3.28218 15.1764 3.03567 14.9861 2.83383 14.7446C2.53603 14.3889 2.32096 13.9819 2.19853 13.5336C2.12904 13.2788 2.07445 13.019 2.02812 12.7593C2.00331 12.6153 2.00993 12.4664 2.00993 12.3093C2.03143 12.2927 2.04798 12.2894 2.0579 12.2795C2.16544 12.162 2.28952 12.1289 2.43842 12.1984C2.47317 12.2133 2.51784 12.2166 2.55589 12.2117C2.86196 12.1703 3.16803 12.1256 3.4741 12.081C3.58329 12.0644 3.70737 12.0661 3.72061 11.9089C3.72061 11.9006 3.74377 11.8957 3.75866 11.899C3.75039 12.3324 3.78348 12.7477 3.95554 13.1431C4.08954 13.4508 4.29139 13.699 4.61069 13.8198C4.97301 13.9571 5.3221 13.9025 5.6414 13.6858C5.94251 13.4823 6.19067 13.2225 6.40078 12.9264C6.60924 12.6319 6.83094 12.3473 7.03609 12.0495C7.21973 11.7832 7.38683 11.5052 7.56054 11.2322C7.82194 10.8219 8.08003 10.4083 8.34309 9.99803C8.49199 9.76641 8.64916 9.54141 8.79971 9.31145C8.91552 9.13608 9.02802 8.9574 9.14879 8.78203C9.18519 8.81015 9.21993 8.83332 9.23979 8.86475C9.43005 9.14931 9.62031 9.43553 9.80395 9.72505C9.87674 9.83921 9.92969 9.96495 9.99255 10.0857H9.99421Z" fill="#0081FA"/>
<path d="M2.58401 8.65133C2.62041 8.56034 2.66343 8.46935 2.69321 8.3767C2.8603 7.84728 3.15148 7.38239 3.45921 6.92742C3.66436 6.623 3.88771 6.33017 4.15903 6.08035C4.62724 5.64358 5.14838 5.28953 5.77045 5.1092C6.05005 5.02648 6.33626 5.00497 6.62744 5.00166C7.0212 4.99835 7.39841 5.06453 7.769 5.19688C8.12636 5.32593 8.43739 5.52942 8.74842 5.74284C9.00321 5.91821 9.21663 6.1366 9.44328 6.34175C9.55909 6.44598 9.65836 6.57006 9.75928 6.69414C9.74439 6.70738 9.73446 6.71234 9.72619 6.7173C9.31258 7.03661 8.89898 7.35426 8.48702 7.67522C8.44897 7.705 8.43077 7.7629 8.39768 7.80427C8.16772 7.5925 7.9543 7.36915 7.71606 7.17558C7.41495 6.93073 7.06421 6.78844 6.67377 6.76363C6.42064 6.74708 6.17909 6.81161 5.95409 6.92411C5.66291 7.0697 5.42963 7.28312 5.21125 7.52467C4.96805 7.79434 4.77117 8.09048 4.60573 8.40813C4.49157 8.62817 4.39892 8.85814 4.28973 9.08149C4.13752 9.02358 3.99524 8.96237 3.84965 8.91273C3.6445 8.8449 3.43605 8.78534 3.22924 8.72247C3.17134 8.70428 3.11343 8.6778 3.05387 8.67284C2.8967 8.65961 2.73953 8.65464 2.58236 8.64637L2.58401 8.65133Z" fill="#0164E0"/>
<path d="M8.4043 7.80922C8.43078 7.76455 8.44897 7.70665 8.48703 7.67687C8.89732 7.35425 9.31259 7.0366 9.72619 6.71895C9.73447 6.71233 9.74605 6.70903 9.76259 6.70241C9.83704 6.7752 9.90653 6.84965 9.97105 6.92741C10.0472 7.01675 10.1199 7.10774 10.201 7.20039C10.2655 7.29635 10.3201 7.39231 10.383 7.48164C10.5617 7.73643 10.7453 7.99121 10.9273 8.24434C10.9472 8.27246 10.9753 8.29562 11.0084 8.33368C11.111 8.48258 11.2102 8.61658 11.2996 8.75721C11.4882 9.05666 11.6702 9.35942 11.8554 9.66218C12.0275 9.94344 12.2012 10.223 12.37 10.5059C12.5073 10.7376 12.633 10.9758 12.7737 11.2041C12.949 11.487 13.1343 11.7633 13.3064 12.0462C13.2749 12.1141 13.2485 12.1786 13.227 12.2448C13.0648 12.7676 12.7786 13.2291 12.4924 13.6874C12.4544 13.7486 12.3716 13.7801 12.3088 13.8247C12.1599 13.6113 12.0027 13.4012 11.8621 13.1812C11.6867 12.9065 11.5229 12.6236 11.3558 12.344C11.1672 12.028 10.9819 11.7104 10.7933 11.396C10.5501 10.9923 10.3019 10.592 10.0571 10.1899C10.0389 10.1602 10.0223 10.1271 9.99918 10.0923C9.92969 9.96825 9.87675 9.84252 9.80395 9.72836C9.62031 9.43884 9.43005 9.15427 9.23979 8.86806C9.21828 8.83662 9.18354 8.81512 9.14549 8.77872C9.01644 8.60666 8.90063 8.44287 8.77986 8.28239C8.67894 8.14673 8.57306 8.01272 8.46883 7.87044C8.45394 7.85389 8.4407 7.84397 8.42085 7.83073C8.41258 7.82246 8.40761 7.81749 8.4043 7.81088V7.80922Z" fill="#0768E1"/>
<path d="M15.8939 13.6676C15.97 13.6609 16.0081 13.6841 15.9915 13.7718C15.9833 13.8115 16.0031 13.8562 16.0147 13.8975C16.0792 14.1209 16.0908 14.3492 16.0726 14.5791C16.0643 14.6784 16.0776 14.7711 16.1437 14.8538C16.1801 14.8985 16.2066 14.9497 16.2413 14.9961C16.3241 15.1086 16.3853 15.2277 16.3952 15.3766C16.1834 15.5271 15.9353 15.5867 15.6855 15.6165C15.4522 15.6446 15.2139 15.6429 14.9774 15.6413C14.6365 15.6396 14.3139 15.5503 14.0062 15.4113C13.897 15.3617 13.7944 15.3005 13.6952 15.2376C13.8656 15.2426 13.9384 15.2393 13.9963 14.9828C14.0012 14.9613 14.0046 14.9398 14.0079 14.9183C14.0509 14.6668 14.1336 14.4319 14.2759 14.2168C14.3288 14.1374 14.352 14.0348 14.3785 13.9389C14.4149 13.8115 14.4397 13.6824 14.4761 13.5584C14.4959 13.5815 14.5042 13.608 14.5224 13.6229C14.931 13.9422 15.4737 13.9902 15.8956 13.6642L15.8939 13.6676Z" fill="#0278F1"/>
<path d="M14.4661 13.5584C14.4364 13.6874 14.4099 13.8165 14.3751 13.9422C14.3487 14.0365 14.3255 14.1391 14.2726 14.2201C14.1303 14.4352 14.0476 14.6702 14.0045 14.9216C14.0012 14.9431 13.9963 14.9646 13.993 14.9862C13.9351 15.2426 13.8623 15.2459 13.6886 15.2343C13.3395 14.9895 13.0152 14.7281 12.7521 14.4005C12.6032 14.2152 12.4626 14.0249 12.3137 13.8297C12.3716 13.7784 12.456 13.7453 12.4941 13.6858C12.7803 13.2258 13.0665 12.7659 13.2286 12.2431C13.2485 12.1769 13.2766 12.1124 13.3147 12.0479C13.4288 12.2067 13.5297 12.3639 13.629 12.521C13.8672 12.9016 14.1501 13.244 14.4678 13.5584H14.4661Z" fill="#0471E9"/>
<path d="M2.5774 8.6563C2.74119 8.6596 2.90001 8.66457 3.05553 8.6778C3.11509 8.68277 3.17299 8.71089 3.2309 8.72744C3.4377 8.7903 3.64616 8.84986 3.85131 8.9177C3.99855 8.96567 4.14083 9.02854 4.29304 9.09307C4.28312 9.15593 4.26326 9.20888 4.24837 9.26182C4.13422 9.65226 4.02172 10.0427 3.90094 10.4348C3.72392 10.4629 3.55351 10.5126 3.38476 10.5109C3.09027 10.5076 2.79578 10.4811 2.50295 10.4514C2.40368 10.4414 2.30938 10.3885 2.21342 10.3554C2.18695 10.3455 2.16048 10.3355 2.13401 10.3256C2.18695 10.0659 2.22831 9.80447 2.29449 9.54803C2.3739 9.24858 2.47648 8.95575 2.57574 8.6563H2.5774Z" fill="#006DE8"/>
<path d="M2.13401 10.3339C2.16214 10.3339 2.18861 10.3455 2.21508 10.3554C2.31103 10.3885 2.40534 10.4414 2.5046 10.4513C2.79744 10.4828 3.09193 10.5093 3.38641 10.5109C3.55517 10.5109 3.72557 10.4629 3.90425 10.4447C3.87778 10.6747 3.83146 10.8964 3.80829 11.1197C3.78182 11.3745 3.77521 11.6326 3.75866 11.889C3.74543 11.8957 3.72226 11.9023 3.72226 11.9089C3.70903 12.0661 3.5866 12.0661 3.47575 12.081C3.16968 12.1256 2.86361 12.1703 2.55754 12.2117C2.51949 12.2166 2.47482 12.215 2.44008 12.1984C2.29118 12.1289 2.1671 12.162 2.05956 12.2795C2.05129 12.2894 2.03474 12.2911 2.01324 12.2993C2.00496 12.081 2 11.8609 2.00166 11.6409C2.00331 11.4804 2.00827 11.3199 2.02482 11.1594C2.0546 10.8865 2.09596 10.6135 2.13401 10.3322V10.3339Z" fill="#0078F2"/>
<path d="M8.47048 7.86713C8.45724 7.86216 8.44566 7.85224 8.42912 7.83569C8.4407 7.84066 8.45559 7.85058 8.47048 7.86713Z" fill="#0164E0"/>
</g>
<defs>
<clipPath id="clip0_490_513">
<rect width="16" height="10.6479" fill="white" transform="translate(2 5)"/>
</clipPath>
</defs>
</svg>
