<svg width="20" height="20" viewBox="0 0 20 20" fill="none" xmlns="http://www.w3.org/2000/svg">
<path d="M0 2C0 0.895431 0.895431 0 2 0H18C19.1046 0 20 0.895431 20 2V18C20 19.1046 19.1046 20 18 20H2C0.895431 20 0 19.1046 0 18V2Z" fill="white"/>
<path d="M10.4124 17.0002H3.00528C3.00528 16.8351 3.00528 16.6797 3.00528 16.5252C3.00528 14.3882 3.00967 12.2513 3.00001 10.1143C2.99913 9.83071 3.07731 9.62702 3.28199 9.42334C5.34988 7.37154 7.4046 5.30657 9.47337 3.25565C9.6025 3.12746 9.81597 3.01333 9.99078 3.01157C12.2458 2.99577 14.5008 3.00016 16.7558 3.00192C16.8269 3.00192 16.8981 3.01421 16.9991 3.02299V10.4339C16.14 10.4339 15.2949 10.4427 14.4507 10.4216C14.3585 10.4189 14.2698 10.246 14.1802 10.152L14.261 10.0291H16.5977V3.43036C16.4404 3.42158 16.299 3.40578 16.1576 3.40578C14.1951 3.40402 12.2335 3.397 10.271 3.41719C10.0532 3.41983 9.78522 3.52782 9.62798 3.67795C8.76358 4.50235 7.92553 5.35486 6.98118 6.29428H13.6979V13.7166C12.8203 13.7166 11.962 13.7201 11.1038 13.7087C11.0414 13.7087 10.9817 13.5919 10.9202 13.5296C10.9949 13.4655 11.0678 13.3487 11.1433 13.347C11.7284 13.3303 12.3152 13.318 12.9002 13.3426C13.249 13.3566 13.3518 13.2381 13.3491 12.893C13.3342 10.9606 13.3368 9.02913 13.3465 7.09674C13.3483 6.79998 13.2701 6.68497 12.9547 6.68673C10.9342 6.69814 8.91379 6.68848 6.89246 6.69902C6.73521 6.69902 6.53756 6.76399 6.42775 6.8711C5.57741 7.69726 4.74463 8.54098 3.90746 9.38119C3.86968 9.41895 3.84596 9.46987 3.77129 9.57961H10.4124V17.0002ZM10.004 16.5981V10.0212H3.4489V16.5981H10.004Z" fill="#498FD0" stroke="#498FD0" stroke-width="0.3"/>
<path d="M16.1303 3.90533V6.44791H14.2662C14.1599 6.17047 14.2504 6.06512 14.5359 6.07477C14.9145 6.08794 15.294 6.07829 15.7113 6.07829V4.32324H10.8807C10.8807 4.72359 10.8728 5.11428 10.8833 5.50498C10.8903 5.79558 10.7732 6.60799 10.5 6.5L10.4977 3.90533H16.1303Z" fill="#498FD0" stroke="#498FD0" stroke-width="0.3"/>
<path d="M12.8115 9.76748C12.2423 9.76748 11.7038 9.77714 11.1653 9.75783C11.0809 9.75519 11.001 9.62262 10.9184 9.55063C11.001 9.49444 11.0801 9.39347 11.1653 9.3882C11.5008 9.36889 11.8408 9.4005 12.1737 9.36538C12.2783 9.35396 12.4408 9.19593 12.4487 9.09584C12.4795 8.68847 12.4531 8.27758 12.4636 7.86757C12.4698 7.63052 12.3556 7.56819 12.1421 7.56819C10.7225 7.57258 9.30206 7.5638 7.88247 7.58399C7.77882 7.58575 7.60576 7.76836 7.58995 7.88425C7.54778 8.18539 7.59171 9.28191 7.56447 9.58744C7.55481 9.69455 7.56764 9.39816 7.5 9.5C7.44026 9.40694 7.19377 9.68226 7.19025 9.58744C7.17356 9.0633 7.19025 7.77978 7.19025 7.21964H12.8115V9.76748Z" fill="#498FD0" stroke="#498FD0" stroke-width="0.3"/>
<path d="M9.53838 10.4936V13.0344H3.9136V10.4936H9.53838ZM4.32033 10.8904V12.6244H9.11935V10.8904H4.31945H4.32033Z" fill="#498FD0" stroke="#498FD0" stroke-width="0.3"/>
</svg>
