<?xml version="1.0" encoding="UTF-8"?>
<svg id="Layer_1" data-name="Layer 1" xmlns="http://www.w3.org/2000/svg" viewBox="0 0 20 20">
  <defs>
    <style>
      .cls-1 {
        fill: #fbfefe;
      }

      .cls-2 {
        fill: #00758f;
        fill-rule: evenodd;
        stroke: #00758f;
        stroke-miterlimit: 10;
        stroke-width: .5px;
      }
    </style>
  </defs>
  <rect class="cls-1" y="0" width="20" height="20" rx="2" ry="2"/>
  <g>
    <path class="cls-2" d="M5.56,4.37c-.16,0-.33,.02-.48,.06v.02h.02c.11,.17,.24,.33,.38,.48,.09,.19,.18,.38,.27,.57,.01-.01,.02-.02,.02-.02,.18-.14,.27-.36,.25-.59-.05-.08-.1-.16-.14-.25-.07-.12-.4-.25-.49-.34"/>
    <path class="cls-2" d="M17.27,14.66c-.78-.05-1.56,.06-2.29,.33-.18,.07-.46,.07-.48,.29,.09,.09,.11,.25,.19,.38,.16,.27,.37,.52,.61,.72,.25,.19,.49,.38,.76,.54,.46,.28,.98,.45,1.43,.73,.26,.17,.52,.38,.78,.55,.13,.09,.21,.25,.38,.31v-.04c-.05-.13-.11-.26-.18-.38-.12-.12-.24-.22-.35-.34-.35-.46-.76-.86-1.23-1.19-.38-.26-1.2-.62-1.36-1.05l-.02-.02c.28-.04,.55-.1,.81-.19,.4-.11,.77-.08,1.18-.18,.19-.05,.53-.17,.53-.17v-.18c-.21-.21-.36-.49-.58-.69-.6-.53-1.25-1.01-1.92-1.43-.36-.23-.83-.38-1.21-.58-.14-.07-.37-.1-.45-.22-.19-.28-.35-.58-.48-.9-.34-.64-.67-1.35-.96-2.03-.17-.45-.37-.9-.59-1.33-1.08-1.84-2.64-3.35-4.51-4.37-.47-.23-.97-.39-1.49-.48-.29-.01-.58-.04-.87-.05-.19-.12-.37-.26-.54-.41-.67-.42-2.38-1.33-2.87-.13-.31,.76,.47,1.5,.74,1.89,.23,.27,.43,.56,.59,.87,.08,.2,.11,.41,.18,.62,.17,.53,.37,1.06,.61,1.56,.13,.25,.27,.49,.43,.72,.09,.13,.26,.18,.29,.4-.13,.28-.22,.57-.27,.87-.41,1.3-.29,2.71,.34,3.92,.18,.29,.63,.93,1.22,.69,.52-.21,.41-.87,.56-1.46,.03-.14,.01-.23,.08-.33v.11s.3,.65,.45,.99c.4,.61,.9,1.15,1.48,1.6,.23,.2,.41,.44,.54,.72v.21h.26c-.01-.19-.11-.37-.26-.49-.22-.22-.41-.46-.59-.72-.48-.69-.91-1.41-1.27-2.17-.18-.37-.34-.78-.49-1.14-.07-.14-.07-.36-.18-.43-.21,.25-.39,.52-.54,.81-.18,.58-.29,1.19-.32,1.8-.04,.01-.02,0-.04,.02-.36-.1-.49-.49-.63-.82-.35-1.03-.39-2.14-.1-3.18,.08-.25,.42-1.04,.28-1.27-.07-.23-.3-.36-.42-.54-.16-.24-.3-.5-.41-.76-.27-.66-.41-1.4-.7-2.07-.16-.32-.35-.63-.57-.92-.24-.29-.45-.6-.63-.93-.06-.13-.14-.35-.05-.49,.01-.08,.08-.15,.16-.16,.15-.13,.57,.04,.72,.11,.4,.16,.77,.36,1.12,.6,.16,.12,.53,.42,.53,.42h.11c.38,.08,.8,.02,1.16,.13,.6,.2,1.17,.47,1.7,.81,1.56,1,2.83,2.39,3.68,4.03,.14,.27,.2,.52,.33,.8,.25,.58,.55,1.17,.8,1.73,.22,.56,.5,1.09,.84,1.58,.18,.25,.88,.38,1.2,.51,.28,.1,.55,.21,.81,.33,.4,.25,.8,.53,1.18,.8,.19,.14,.78,.44,.81,.67"/>
  </g>
</svg>