<svg width="20" height="20" viewBox="0 0 20 20" fill="none" xmlns="http://www.w3.org/2000/svg">
<path d="M0 2C0 0.895431 0.895431 0 2 0H18C19.1046 0 20 0.895431 20 2V18C20 19.1046 19.1046 20 18 20H2C0.895431 20 0 19.1046 0 18V2Z" fill="white"/>
<g clip-path="url(#clip0_1264_22)">
<path d="M10.4178 2.69275C10.4178 2.63791 10.4039 2.58396 10.3774 2.53595C10.3509 2.48794 10.3127 2.44744 10.2663 2.41825L8.065 1.04725C8.01504 1.01614 7.95736 0.999649 7.8985 0.999649C7.83964 0.999649 7.78196 1.01614 7.732 1.04725L3.70075 3.54625L3.68425 3.5575C3.64227 3.5875 3.6081 3.62713 3.58461 3.67306C3.56112 3.719 3.54899 3.7699 3.54925 3.8215V6.40375L1.53175 7.6C1.48382 7.62871 1.44418 7.66939 1.4167 7.71803C1.38922 7.76668 1.37485 7.82163 1.375 7.8775V12.091C1.37862 12.1437 1.39514 12.1948 1.42313 12.2397C1.45112 12.2845 1.48971 12.3218 1.5355 12.3482L3.54925 13.5182V16.1522C3.54886 16.2072 3.56251 16.2613 3.58889 16.3094C3.61527 16.3576 3.65352 16.3983 3.7 16.4275L7.7305 18.952C7.78016 18.983 7.83748 18.9996 7.89604 18.9999C7.9546 19.0002 8.01207 18.9841 8.062 18.9535L10.2633 17.611C10.3105 17.582 10.3495 17.5413 10.3764 17.4928C10.4034 17.4443 10.4173 17.3897 10.417 17.3342V10.8182H9.78025V11.6717L5.56 14.2375L5.887 14.7902L9.78025 12.4232V17.152L7.9 18.2995L6.331 17.317L7.981 16.3225L7.6555 15.7675L5.7205 16.9345L4.18525 15.973V13.4185L5.96575 12.346L5.641 11.7917L3.784 12.9115L2.01175 11.8817V10.183L3.9505 9.013L3.625 8.4595L2.01175 9.43225V8.06125L3.8605 6.96475L5.617 8.09875V9.727L4.3045 10.5895L4.65025 11.1295L5.90275 10.3082L7.0525 11.1242L7.417 10.5955L6.2545 9.7705V8.068L8.17 6.86275C8.21609 6.83332 8.25401 6.79274 8.28023 6.74475C8.30645 6.69676 8.32013 6.64293 8.32 6.58825V4.546H7.684V6.40825L5.9125 7.525L4.18525 6.412V4.00225L5.59 3.13V5.164H6.2275V2.73625L7.89775 1.7005L9.7795 2.87275V8.97775H10.417V2.69275H10.4178Z" fill="url(#paint0_linear_1264_22)"/>
<path fill-rule="evenodd" clip-rule="evenodd" d="M15.2095 10.2047C15.286 10.6186 15.5144 10.989 15.8499 11.2431C16.1854 11.4973 16.6038 11.6169 17.0229 11.5785C17.442 11.54 17.8317 11.3464 18.1154 11.0355C18.3991 10.7246 18.5564 10.3189 18.5564 9.898C18.5564 9.47711 18.3991 9.07141 18.1154 8.76051C17.8317 8.44961 17.442 8.25596 17.0229 8.21754C16.6038 8.17913 16.1854 8.29873 15.8499 8.55288C15.5144 8.80702 15.286 9.17737 15.2095 9.59125H9.04526V10.2047H15.2103H15.2095ZM17.9433 9.89725C17.947 10.0406 17.9221 10.1833 17.8698 10.3169C17.8176 10.4505 17.7391 10.5722 17.639 10.675C17.539 10.7777 17.4193 10.8594 17.2872 10.9151C17.155 10.9709 17.0131 10.9996 16.8696 10.9996C16.7262 10.9996 16.5842 10.9709 16.4521 10.9151C16.3199 10.8594 16.2003 10.7777 16.1002 10.675C16.0002 10.5722 15.9217 10.4505 15.8694 10.3169C15.8172 10.1833 15.7922 10.0406 15.796 9.89725C15.8034 9.61742 15.9198 9.35153 16.1203 9.15623C16.3208 8.96092 16.5897 8.85163 16.8696 8.85163C17.1496 8.85163 17.4184 8.96092 17.619 9.15623C17.8195 9.35153 17.9359 9.61742 17.9433 9.89725Z" fill="url(#paint1_linear_1264_22)"/>
<path fill-rule="evenodd" clip-rule="evenodd" d="M14.5683 12.0452H11.0395V11.4317H15.1818V14.5H16.4095V17.5682H13.3413V14.5007H14.5683V12.0452ZM13.9548 16.9547V15.1135H15.7953V16.9547H13.9548Z" fill="url(#paint2_linear_1264_22)"/>
<path fill-rule="evenodd" clip-rule="evenodd" d="M14.5683 7.74999H11.0395V8.36349H15.1818V5.29599H16.963L14.875 1.95474L12.7878 5.29449H14.5683V7.74999ZM14.8758 3.11274L13.894 4.68249H15.8553L14.8758 3.11274Z" fill="url(#paint3_linear_1264_22)"/>
</g>
<defs>
<linearGradient id="paint0_linear_1264_22" x1="3.625" y1="3.625" x2="16.375" y2="17.125" gradientUnits="userSpaceOnUse">
<stop stop-color="#43E3E4"/>
<stop offset="0.25" stop-color="#4A9FFF"/>
<stop offset="0.5" stop-color="#AA4BFB"/>
<stop offset="0.75" stop-color="#FC5978"/>
<stop offset="1" stop-color="#FF6D32"/>
</linearGradient>
<linearGradient id="paint1_linear_1264_22" x1="3.62501" y1="3.625" x2="16.375" y2="17.125" gradientUnits="userSpaceOnUse">
<stop stop-color="#43E3E4"/>
<stop offset="0.25" stop-color="#4A9FFF"/>
<stop offset="0.5" stop-color="#AA4BFB"/>
<stop offset="0.75" stop-color="#FC5978"/>
<stop offset="1" stop-color="#FF6D32"/>
</linearGradient>
<linearGradient id="paint2_linear_1264_22" x1="3.62501" y1="3.625" x2="16.375" y2="17.125" gradientUnits="userSpaceOnUse">
<stop stop-color="#43E3E4"/>
<stop offset="0.25" stop-color="#4A9FFF"/>
<stop offset="0.5" stop-color="#AA4BFB"/>
<stop offset="0.75" stop-color="#FC5978"/>
<stop offset="1" stop-color="#FF6D32"/>
</linearGradient>
<linearGradient id="paint3_linear_1264_22" x1="3.625" y1="3.62499" x2="16.375" y2="17.125" gradientUnits="userSpaceOnUse">
<stop stop-color="#43E3E4"/>
<stop offset="0.25" stop-color="#4A9FFF"/>
<stop offset="0.5" stop-color="#AA4BFB"/>
<stop offset="0.75" stop-color="#FC5978"/>
<stop offset="1" stop-color="#FF6D32"/>
</linearGradient>
<clipPath id="clip0_1264_22">
<rect width="18" height="18" fill="white" transform="translate(1 1)"/>
</clipPath>
</defs>
</svg>
