<svg width="20" height="20" viewBox="0 0 20 20" fill="none" xmlns="http://www.w3.org/2000/svg">
<path d="M0 2C0 0.895431 0.895431 0 2 0H18C19.1046 0 20 0.895431 20 2V18C20 19.1046 19.1046 20 18 20H2C0.895431 20 0 19.1046 0 18V2Z" fill="white"/>
<g clip-path="url(#clip0_811_2654)">
<path d="M14.8235 20H5.3097C5.16166 19.6701 5.10475 19.3243 5.12787 18.9637C5.16566 18.3795 5.3217 17.831 5.59244 17.3113C5.73159 17.0441 5.68625 16.8774 5.51198 16.6613C5.38438 16.503 5.25413 16.3305 5.18833 16.142C4.92292 15.3854 4.93359 14.6132 5.16343 13.8521C5.23368 13.6191 5.38483 13.4057 5.52265 13.1994C5.65201 13.0056 5.63245 12.7482 5.48886 12.5419C5.31459 12.2907 5.13231 12.0316 5.02873 11.7479C4.49347 10.2889 5.75249 8.2314 7.46985 8.53103C7.68769 8.56927 7.86152 8.47769 7.95665 8.26696C8.14915 7.84107 8.47146 7.54498 8.85913 7.29069C10.0852 6.48513 11.6306 7.16755 12.1334 8.22206C12.2641 8.49636 12.3948 8.55815 12.7046 8.53059C12.8585 8.51725 13.0167 8.49369 13.1674 8.51459C13.9912 8.62751 14.542 9.1112 14.9146 9.82962C15.3529 10.6761 15.328 11.8213 14.6345 12.5397C14.442 12.7389 14.4571 13.0283 14.6372 13.2443C14.7074 13.3284 14.7679 13.4235 14.8172 13.5213C15.0871 14.0535 15.1302 14.6261 15.1031 15.2084C15.0764 15.7722 14.971 16.3056 14.5532 16.7338C14.4078 16.8831 14.3989 17.069 14.4976 17.2681C14.6158 17.5055 14.7274 17.7492 14.8066 18.0017C15.0142 18.6632 15.0782 19.3314 14.8243 19.9996L14.8235 20ZM9.95632 14.5665C10.8721 14.5665 11.0455 14.5496 11.6083 14.2504C12.5104 13.7707 12.7633 12.7273 12.3019 11.9142C11.9938 11.3714 11.523 11.042 10.9419 10.8481C9.88341 10.4951 8.65863 10.8206 7.99489 11.635C7.27158 12.5219 7.54587 13.7538 8.55949 14.2873C9.03562 14.538 9.53398 14.5598 9.95677 14.5669L9.95632 14.5665ZM7.57521 11.3838C7.57566 11.0806 7.32003 10.8357 7.00083 10.8335C6.63362 10.8308 6.35354 11.1322 6.35176 11.5314C6.35043 11.8431 6.61317 12.0889 6.94837 12.0898C7.27691 12.0907 7.57477 11.7555 7.57566 11.3838H7.57521ZM13.1737 12.0902C13.5053 12.0854 13.7649 11.8355 13.7623 11.5225C13.7592 11.1309 13.468 10.8259 13.1034 10.833C12.7807 10.8397 12.5339 11.0833 12.5384 11.3918C12.5437 11.7662 12.8425 12.0947 13.1737 12.0898V12.0902Z" fill="white"/>
<path d="M14.8235 20.0001C15.0778 19.3319 15.0133 18.6637 14.8057 18.0022C14.7266 17.7501 14.6145 17.5061 14.4967 17.2687C14.3976 17.0695 14.4065 16.8832 14.5523 16.7343C14.9702 16.3062 15.0755 15.7727 15.1022 15.209C15.1298 14.6266 15.0867 14.0536 14.8164 13.5219C14.7666 13.4241 14.7061 13.3289 14.6363 13.2449C14.4563 13.0288 14.4411 12.7394 14.6336 12.5403C15.3276 11.8218 15.3521 10.6766 14.9137 9.83017C14.5416 9.11175 13.9904 8.62806 13.1666 8.51514C13.0159 8.49424 12.8576 8.51781 12.7038 8.53114C12.3944 8.55826 12.2632 8.49647 12.1325 8.22261C11.6301 7.1681 10.0848 6.48569 8.85826 7.29124C8.47104 7.54554 8.14829 7.84162 7.95579 8.26751C7.86065 8.47824 7.68682 8.56938 7.46899 8.53159C5.75162 8.2315 4.4926 10.2894 5.02786 11.7485C5.13189 12.0317 5.31416 12.2913 5.48799 12.5425C5.63159 12.7492 5.6507 13.0066 5.52178 13.2C5.38396 13.4063 5.23281 13.6197 5.16257 13.8526C4.93273 14.6137 4.9225 15.3859 5.18746 16.1426C5.2537 16.3311 5.38352 16.5036 5.51111 16.6618C5.68493 16.8779 5.73028 17.0446 5.59158 17.3118C5.32083 17.8319 5.16479 18.3801 5.127 18.9643C5.10388 19.3248 5.16079 19.6702 5.30883 20.0006H4.33167C4.12895 19.0581 4.25031 18.1494 4.60152 17.2602C4.63264 17.1811 4.62286 17.0566 4.58152 16.9815C4.01514 15.9577 3.98135 14.8796 4.24765 13.7739C4.309 13.5183 4.4397 13.28 4.52239 13.0284C4.54729 12.9519 4.54817 12.8368 4.50727 12.7741C3.924 11.8743 3.88355 10.9114 4.18452 9.91953C4.38191 9.27002 4.74912 8.7192 5.28705 8.29419C5.40352 8.20216 5.41197 8.0968 5.39285 7.96165C5.25948 7.00672 5.23592 6.0549 5.58535 5.13598C5.6836 4.87768 5.81919 4.61939 5.99302 4.40644C6.45404 3.84184 7.17824 3.88274 7.62503 4.45846C8.0407 4.99416 8.17763 5.62545 8.28744 6.27007C8.30077 6.34965 8.31144 6.42923 8.32745 6.53726C9.47799 5.86374 10.6201 5.85618 11.7666 6.53014C11.8435 6.17271 11.9102 5.82195 11.9951 5.47563C12.0952 5.06885 12.2659 4.68697 12.5553 4.38244C13.1172 3.79027 13.8343 3.90275 14.2784 4.60783C14.6007 5.11953 14.7572 5.69436 14.775 6.29052C14.7919 6.85779 14.7515 7.42728 14.7123 7.99455C14.7034 8.12392 14.7221 8.20439 14.8146 8.27863C15.1889 8.57871 15.4894 8.94281 15.6984 9.37271C16.2523 10.5121 16.299 11.6422 15.617 12.7572C15.5708 12.8328 15.5637 12.9733 15.6019 13.0533C16.1301 14.1612 16.1336 15.2966 15.7891 16.448C15.7286 16.6498 15.5988 16.8303 15.5059 17.0233C15.4832 17.0708 15.4534 17.1389 15.4708 17.178C15.8727 18.0854 15.9665 19.0274 15.8011 20.0006H14.823L14.8235 20.0001ZM6.27532 7.69269C6.55229 7.66023 6.79902 7.62022 7.04798 7.60555C7.33161 7.58866 7.43431 7.49441 7.42764 7.19788C7.42186 6.93915 7.41653 6.67952 7.39074 6.42211C7.34228 5.93176 7.2178 5.46185 6.92928 5.05284C6.80658 4.87902 6.71278 4.87724 6.62208 5.06707C6.49583 5.3307 6.38202 5.60722 6.31355 5.89041C6.16996 6.48524 6.16862 7.08897 6.27532 7.69224V7.69269ZM13.8708 7.68646C13.8708 7.22322 13.9068 6.75643 13.8592 6.29808C13.8219 5.93798 13.6947 5.5841 13.5787 5.2369C13.5391 5.11864 13.412 5.03017 13.3248 4.92792C13.235 5.03195 13.1203 5.12309 13.0594 5.24134C12.7291 5.88508 12.6687 6.58349 12.694 7.29124C12.6989 7.42284 12.7358 7.58866 12.9376 7.60333C13.231 7.62467 13.5236 7.6549 13.8708 7.68646Z" fill="black"/>
<path d="M9.95632 14.566C9.53354 14.5589 9.03473 14.5371 8.55904 14.2864C7.54587 13.7529 7.27158 12.521 7.99444 11.6341C8.65863 10.8197 9.88297 10.4942 10.9415 10.8472C11.5225 11.0411 11.9933 11.3705 12.3014 11.9133C12.7629 12.7264 12.5104 13.7698 11.6079 14.2495C11.0451 14.5487 10.8717 14.566 9.95588 14.5656L9.95632 14.566ZM10.0386 13.9517C10.2231 13.9517 10.3871 13.9645 10.548 13.949C11.0131 13.9041 11.4305 13.7409 11.7128 13.3524C12.1458 12.7553 11.8702 12.1494 11.3554 11.7506C10.5636 11.1371 9.2668 11.1896 8.53459 11.9467C7.98644 12.5135 8.13982 13.4026 8.8529 13.7449C9.24012 13.9308 9.64068 13.9823 10.0381 13.9512L10.0386 13.9517Z" fill="black"/>
<path d="M7.57566 11.3834C7.57477 11.7555 7.27735 12.0907 6.94837 12.0894C6.61317 12.0885 6.35043 11.8426 6.35176 11.531C6.35354 11.1313 6.63362 10.8303 7.00083 10.833C7.32003 10.8352 7.57566 11.0806 7.57522 11.3834H7.57566Z" fill="black"/>
<path d="M13.1741 12.0902C12.8429 12.0951 12.5442 11.7666 12.5388 11.3923C12.5344 11.0837 12.7811 10.8397 13.1039 10.8335C13.4684 10.8259 13.7596 11.1309 13.7627 11.523C13.7649 11.836 13.5058 12.0858 13.1741 12.0907V12.0902Z" fill="black"/>
<path d="M6.2753 7.69258C6.1686 7.0893 6.16994 6.48513 6.31353 5.89075C6.38199 5.60756 6.4958 5.33104 6.62206 5.06741C6.71275 4.87758 6.80656 4.87891 6.92926 5.05318C7.21778 5.46218 7.34226 5.93209 7.39072 6.42245C7.41606 6.67986 7.42139 6.93948 7.42762 7.19822C7.43429 7.49475 7.33159 7.589 7.04796 7.60589C6.79944 7.62056 6.55226 7.66102 6.2753 7.69303V7.69258Z" fill="white"/>
<path d="M13.8703 7.68636C13.5231 7.65479 13.2306 7.62456 12.9371 7.60322C12.7353 7.58855 12.698 7.42273 12.6935 7.29114C12.6682 6.58339 12.7286 5.88541 13.059 5.24123C13.1199 5.12254 13.2346 5.0314 13.3244 4.92781C13.4115 5.03007 13.5391 5.11853 13.5782 5.23679C13.6942 5.584 13.8214 5.93787 13.8587 6.29797C13.9063 6.75632 13.8703 7.22312 13.8703 7.68636Z" fill="white"/>
<path d="M10.039 13.9517C9.64157 13.9823 9.24101 13.9308 8.85379 13.7454C8.14026 13.4031 7.98733 12.5139 8.53548 11.9471C9.26724 11.19 10.564 11.1375 11.3563 11.751C11.8706 12.1498 12.1467 12.7558 11.7137 13.3528C11.4318 13.7414 11.0139 13.9045 10.5489 13.9494C10.388 13.965 10.224 13.9521 10.0395 13.9521L10.039 13.9517ZM10.0461 13.3133C10.2328 13.3141 10.3511 13.2128 10.3084 13.0443C10.2591 12.8496 10.3124 12.7313 10.4676 12.6175C10.5765 12.5375 10.6725 12.3943 10.5472 12.2792C10.468 12.2067 10.3146 12.2072 10.1928 12.1912C10.0941 12.1778 9.991 12.1978 9.89186 12.1867C9.75138 12.1707 9.60645 12.1289 9.51664 12.285C9.43129 12.4335 9.52376 12.5357 9.62245 12.6317C9.63846 12.6473 9.65313 12.6664 9.67269 12.6749C9.81095 12.7371 9.80917 12.8402 9.77849 12.9696C9.72559 13.1937 9.8234 13.3119 10.0461 13.3128V13.3133Z" fill="white"/>
<path d="M10.0461 13.3133C9.8234 13.3119 9.72515 13.1941 9.77849 12.97C9.80917 12.8407 9.81095 12.738 9.67269 12.6753C9.65357 12.6664 9.63846 12.6473 9.62245 12.6322C9.52376 12.5357 9.43129 12.4339 9.51664 12.2854C9.60645 12.1289 9.75138 12.1712 9.89186 12.1872C9.991 12.1983 10.0941 12.1787 10.1928 12.1916C10.3151 12.2076 10.468 12.2072 10.5472 12.2796C10.6725 12.3948 10.5765 12.5379 10.4676 12.618C10.3124 12.7318 10.2591 12.85 10.3084 13.0447C10.3511 13.2132 10.2328 13.3146 10.0461 13.3137V13.3133Z" fill="black"/>
</g>
<defs>
<clipPath id="clip0_811_2654">
<rect width="12.1216" height="16" fill="white" transform="translate(4 4)"/>
</clipPath>
</defs>
</svg>
