<svg width="20" height="20" viewBox="0 0 20 20" fill="none" xmlns="http://www.w3.org/2000/svg">
<path d="M0 2C0 0.895431 0.895431 0 2 0H18C19.1046 0 20 0.895431 20 2V18C20 19.1046 19.1046 20 18 20H2C0.895431 20 0 19.1046 0 18V2Z" fill="white"/>
<g clip-path="url(#clip0_683_532)">
<path d="M16.8546 8.5474C17.0335 8.00865 17.0954 7.43793 17.0361 6.87336C16.9768 6.30878 16.7977 5.76336 16.5108 5.27353C16.0854 4.53315 15.436 3.94697 14.656 3.5995C13.876 3.25204 13.0058 3.16124 12.1709 3.3402C11.6966 2.81257 11.0918 2.41905 10.4172 2.19914C9.74268 1.97923 9.02214 1.94069 8.32798 2.08738C7.63382 2.23408 6.99048 2.56084 6.46257 3.03485C5.93466 3.50887 5.54077 4.11345 5.32046 4.78787C4.76424 4.90192 4.23877 5.13339 3.77916 5.46679C3.31956 5.8002 2.93641 6.22786 2.65533 6.7212C2.22535 7.46035 2.04158 8.31709 2.13059 9.16756C2.21959 10.018 2.57676 10.8182 3.15046 11.4523C2.9709 11.9908 2.90841 12.5614 2.96716 13.126C3.02591 13.6906 3.20455 14.2361 3.49113 14.7261C3.91702 15.4667 4.56707 16.053 5.3476 16.4005C6.12813 16.748 6.99882 16.8386 7.83419 16.6595C8.21103 17.0838 8.67407 17.4229 9.1924 17.6541C9.71072 17.8853 10.2724 18.0032 10.8399 18C11.6957 18.0008 12.5296 17.7296 13.2212 17.2257C13.9128 16.7217 14.4264 16.011 14.6878 15.1961C15.2439 15.0819 15.7693 14.8503 16.2289 14.5169C16.6885 14.1835 17.0717 13.756 17.3529 13.2627C17.7778 12.5247 17.9584 11.6711 17.8689 10.8242C17.7794 9.97732 17.4244 9.18034 16.8546 8.5474ZM10.8399 16.9528C10.1391 16.9539 9.46019 16.7083 8.92233 16.2589L9.01693 16.2053L12.2025 14.3665C12.2817 14.32 12.3476 14.2537 12.3935 14.1741C12.4394 14.0944 12.4638 14.0042 12.4643 13.9123V9.42107L13.8109 10.2001C13.8176 10.2035 13.8233 10.2084 13.8278 10.2144C13.8322 10.2205 13.8351 10.2274 13.8363 10.2348V13.9565C13.8346 14.7507 13.5183 15.5118 12.9568 16.0734C12.3952 16.6349 11.6341 16.9511 10.8399 16.9528ZM4.39946 14.2025C4.04797 13.5956 3.92177 12.8842 4.04306 12.1934L4.13773 12.2502L7.32639 14.089C7.40529 14.1353 7.49511 14.1597 7.58659 14.1597C7.67807 14.1597 7.76789 14.1353 7.84679 14.089L11.742 11.8433V13.3983C11.7416 13.4063 11.7394 13.4142 11.7356 13.4213C11.7318 13.4284 11.7264 13.4345 11.7199 13.4393L8.49333 15.3001C7.80474 15.6968 6.98689 15.804 6.21933 15.5982C5.45177 15.3924 4.79725 14.8905 4.39946 14.2025ZM3.56053 7.26373C3.91445 6.65291 4.47308 6.18702 5.13753 5.94853V9.73333C5.13633 9.82477 5.15969 9.91485 5.20518 9.99418C5.25066 10.0735 5.31661 10.1392 5.39613 10.1843L9.27239 12.4205L7.92566 13.1995C7.91837 13.2034 7.91025 13.2054 7.90199 13.2054C7.89374 13.2054 7.88562 13.2034 7.87833 13.1995L4.65813 11.3419C3.97083 10.9435 3.46943 10.289 3.2637 9.52165C3.05798 8.75434 3.16471 7.93678 3.56053 7.248V7.26373ZM14.6247 9.83426L10.7359 7.576L12.0795 6.8C12.0867 6.79613 12.0949 6.79411 12.1031 6.79411C12.1114 6.79411 12.1195 6.79613 12.1268 6.8L15.347 8.66086C15.8394 8.94497 16.2407 9.36327 16.5043 9.86694C16.7678 10.3706 16.8827 10.9389 16.8354 11.5053C16.7881 12.0718 16.5807 12.6132 16.2372 13.0662C15.8938 13.5192 15.4286 13.8651 14.896 14.0637V10.2789C14.8932 10.1876 14.8667 10.0986 14.8192 10.0206C14.7716 9.94268 14.7046 9.8785 14.6247 9.83426ZM15.9652 7.81887L15.8705 7.76206L12.6882 5.90753C12.6088 5.86095 12.5184 5.83639 12.4264 5.83639C12.3344 5.83639 12.244 5.86095 12.1646 5.90753L8.27266 8.15313V6.59827C8.27183 6.59036 8.27315 6.58238 8.27649 6.57516C8.27982 6.56794 8.28504 6.56176 8.29159 6.55727L11.5118 4.69953C12.0053 4.41521 12.5696 4.27729 13.1387 4.3019C13.7077 4.32652 14.258 4.51265 14.7252 4.83852C15.1923 5.1644 15.557 5.61654 15.7766 6.14209C15.9962 6.66763 16.0617 7.24483 15.9653 7.8062L15.9652 7.81887ZM7.53766 10.5753L6.19099 9.79946C6.18426 9.79541 6.17849 9.78992 6.17412 9.78339C6.16974 9.77685 6.16685 9.76944 6.16566 9.76166V6.04947C6.1664 5.47998 6.32925 4.92248 6.63516 4.44213C6.94107 3.96179 7.37741 3.57846 7.89315 3.33696C8.4089 3.09546 8.98273 3.00577 9.54757 3.07838C10.1124 3.151 10.6449 3.38291 11.0828 3.747L10.9881 3.80067L7.80266 5.63933C7.72338 5.68583 7.65755 5.75215 7.61165 5.83179C7.56575 5.91142 7.54136 6.00162 7.54086 6.09353L7.53766 10.5753ZM8.26939 8.9984L10.0041 7.99853L11.742 8.9984V10.998L10.0104 11.9978L8.27259 10.998L8.26939 8.9984Z" fill="black"/>
</g>
<defs>
<clipPath id="clip0_683_532">
<rect width="16" height="16" fill="white" transform="translate(2 2)"/>
</clipPath>
</defs>
</svg>
