<?xml version="1.0" encoding="UTF-8"?>
<svg id="Layer_1" data-name="Layer 1" xmlns="http://www.w3.org/2000/svg" viewBox="0 0 20 20">
  <defs>
    <style>
      .cls-1 {
        fill: #003b5c;
      }

      .cls-2 {
        fill: #005eb8;
      }

      .cls-3 {
        fill: #fbfefe;
      }
    </style>
  </defs>
  <rect class="cls-3" y="0" width="20" height="20" rx="2" ry="2"/>
  <g>
    <path class="cls-2" d="M17.43,7.88c-.31,0-.57,.25-.57,.57,0,4.65-3.77,8.43-8.43,8.43-.31,0-.57,.25-.57,.57s.25,.57,.57,.57c5.28,0,9.56-4.28,9.56-9.56,0-.31-.25-.57-.57-.57Z"/>
    <path class="cls-1" d="M14.02,11.5c.54-.89,1.07-2.07,.97-3.73-.21-3.43-3.32-6.03-6.26-5.75-1.15,.11-2.33,1.05-2.22,2.72,.05,.73,.4,1.16,.98,1.49,.55,.31,1.26,.51,2.06,.74,.97,.27,2.1,.58,2.96,1.22,1.04,.76,1.75,1.65,1.5,3.31Z"/>
    <path class="cls-2" d="M2.98,5.5c-.54,.89-1.07,2.07-.97,3.73,.21,3.43,3.32,6.03,6.26,5.75,1.15-.11,2.33-1.05,2.22-2.72-.05-.73-.4-1.16-.98-1.49-.55-.31-1.26-.51-2.06-.74-.97-.27-2.1-.58-2.96-1.22-1.04-.76-1.75-1.65-1.5-3.31Z"/>
  </g>
</svg>