<svg width="20" height="20" viewBox="0 0 20 20" fill="none" xmlns="http://www.w3.org/2000/svg">
<g clip-path="url(#clip0_490_363)">
<path d="M20 0H0V20H20V0Z" fill="url(#paint0_linear_490_363)"/>
<path fill-rule="evenodd" clip-rule="evenodd" d="M15.209 10.7232L15.305 10.0472C16.1902 10.5774 16.2017 10.7964 16.2015 10.8024C16.2 10.8037 16.049 10.9297 15.209 10.7232ZM14.7232 10.5882C13.1932 10.1252 11.0625 9.14765 10.2002 8.74015C10.2002 8.73665 10.2012 8.7334 10.2012 8.7299C10.2012 8.39865 9.93172 8.12915 9.60022 8.12915C9.26922 8.12915 8.99972 8.39865 8.99972 8.7299C8.99972 9.06115 9.26922 9.33065 9.60022 9.33065C9.74572 9.33065 9.87772 9.2764 9.98197 9.19015C10.9965 9.6704 13.1107 10.6337 14.652 11.0887L14.0425 15.3902C14.0407 15.4019 14.04 15.4137 14.04 15.4254C14.04 15.8042 12.3632 16.4999 9.62347 16.4999C6.85472 16.4999 5.16022 15.8042 5.16022 15.4254C5.16022 15.4139 5.15947 15.4027 5.15797 15.3914L3.88447 6.08965C4.98672 6.8484 7.35747 7.2499 9.62497 7.2499C11.889 7.2499 14.2557 6.8499 15.3602 6.0934L14.7232 10.5882ZM3.74997 5.1194C3.76797 4.7904 5.65847 3.4999 9.62497 3.4999C13.591 3.4999 15.4817 4.79015 15.5 5.1194V5.23165C15.2825 5.9694 12.8325 6.7499 9.62497 6.7499C6.41197 6.7499 3.96072 5.9669 3.74997 5.22815V5.1194ZM16 5.1249C16 4.25865 13.5165 2.9999 9.62497 2.9999C5.73347 2.9999 3.24997 4.25865 3.24997 5.1249L3.27347 5.3134L4.66047 15.4444C4.69372 16.5774 7.71522 16.9999 9.62347 16.9999C11.9915 16.9999 14.5072 16.4554 14.5397 15.4452L15.1387 11.2209C15.472 11.3007 15.7462 11.3414 15.9665 11.3414C16.2622 11.3414 16.4622 11.2692 16.5835 11.1247C16.683 11.0062 16.721 10.8627 16.6925 10.7099C16.6277 10.3639 16.217 9.9909 15.3805 9.51365L15.9745 5.32315L16 5.1249Z" fill="white"/>
</g>
<defs>
<linearGradient id="paint0_linear_490_363" x1="0" y1="2000" x2="2000" y2="0" gradientUnits="userSpaceOnUse">
<stop stop-color="#1B660F"/>
<stop offset="1" stop-color="#6CAE3E"/>
</linearGradient>
<clipPath id="clip0_490_363">
<rect width="20" height="20" rx="2" fill="white"/>
</clipPath>
</defs>
</svg>
