<svg width="20" height="20" viewBox="0 0 20 20" fill="none" xmlns="http://www.w3.org/2000/svg">
<path d="M0 2C0 0.895431 0.895431 0 2 0H18C19.1046 0 20 0.895431 20 2V18C20 19.1046 19.1046 20 18 20H2C0.895431 20 0 19.1046 0 18V2Z" fill="white"/>
<g clip-path="url(#clip0_1139_434)">
<path d="M12.8756 15.2349C12.6075 15.2577 12.3393 15.2802 12.0716 15.3038C11.9309 15.3162 11.7903 15.3305 11.6497 15.3433C11.5881 15.3491 11.5511 15.3274 11.528 15.2624C11.4628 15.0808 11.3927 14.9008 11.318 14.7231C11.2868 14.6488 11.3087 14.6178 11.3785 14.5969C11.5811 14.5354 11.7842 14.4761 11.9841 14.4061C12.1779 14.3383 12.3678 14.2601 12.5581 14.1835C12.5921 14.1699 12.6209 14.1432 12.6495 14.0987C12.6117 14.0941 12.5736 14.0856 12.5358 14.0852C12.0126 14.0828 11.4894 14.0817 10.9662 14.0797C10.8202 14.0794 10.8156 14.0689 10.8445 13.9222C10.8884 13.7012 10.9281 13.479 10.9689 13.2571C10.9828 13.1817 10.9462 13.1484 10.8738 13.148C10.7516 13.1476 10.6299 13.1453 10.5078 13.148C10.4342 13.1495 10.4014 13.1193 10.4026 13.0454C10.4041 12.9324 10.4038 12.8197 10.4018 12.7067C10.4007 12.63 10.4323 12.596 10.5112 12.5975C10.6684 12.601 10.826 12.5975 10.9832 12.5987C11.0498 12.5994 11.0995 12.572 11.1142 12.5081C11.1446 12.373 11.1681 12.2363 11.1928 12.1001C11.1959 12.0826 11.1874 12.0633 11.1847 12.0459C11.1743 12.0439 11.1666 12.0397 11.1627 12.042C11.0267 12.1252 11.0283 12.1233 10.9123 12.0087C10.8002 11.898 10.6831 11.7927 10.5694 11.6839C10.4939 11.6115 10.4958 11.5883 10.5721 11.514C10.8792 11.2151 11.17 10.902 11.4162 10.5497C11.4848 10.4514 11.5649 10.413 11.6832 10.4181C11.8851 10.4262 12.0877 10.4192 12.29 10.4216C12.3956 10.4227 12.4152 10.4622 12.3613 10.5543C12.342 10.5876 12.3208 10.6201 12.3008 10.6534C12.2461 10.744 12.2669 10.7858 12.3709 10.7866C12.5605 10.7882 12.7496 10.7866 12.9392 10.7866C13.4335 10.7866 13.9278 10.7866 14.4221 10.7874C14.5762 10.7874 14.5831 10.7959 14.5835 10.9531C14.5835 11.0626 14.5843 11.1726 14.5835 11.2821C14.5831 11.3924 14.5665 11.4114 14.4548 11.4133C14.288 11.416 14.1208 11.4149 13.954 11.4149C13.2605 11.4149 12.567 11.4141 11.8739 11.4141C11.7345 11.4141 11.6181 11.502 11.5646 11.6595C11.6208 11.6642 11.6728 11.6723 11.7248 11.6723C12.5208 11.6731 13.3171 11.6731 14.1131 11.6735C14.271 11.6735 14.2834 11.6878 14.2757 11.8454C14.2653 12.0482 14.2545 12.251 14.2448 12.4543C14.2391 12.5743 14.2602 12.5963 14.3793 12.5975C14.4533 12.5983 14.5268 12.5994 14.6008 12.5967C14.6991 12.5932 14.7172 12.5642 14.6671 12.4771C14.6112 12.3796 14.5503 12.2847 14.4852 12.1934C14.4278 12.1132 14.4405 12.0513 14.501 11.9781C14.7908 11.6251 15.0096 11.2291 15.1872 10.8094C15.2234 10.7235 15.2581 10.6368 15.2935 10.5505C15.3174 10.4924 15.3586 10.4669 15.4222 10.4734C15.6553 10.4967 15.8884 10.5183 16.1215 10.5408C16.197 10.5481 16.2124 10.595 16.1896 10.6569C16.1588 10.7413 16.1245 10.8249 16.0872 10.9066C16.0321 11.0258 16.049 11.0595 16.1773 11.0595C16.6843 11.0611 17.1917 11.0607 17.6987 11.0607C17.8636 11.0607 17.8771 11.0735 17.8779 11.243C17.8783 11.3816 17.879 11.5206 17.8771 11.6592C17.8752 11.7815 17.8555 11.8001 17.7376 11.802C17.6991 11.8028 17.6606 11.802 17.6221 11.802C17.4599 11.802 17.4545 11.8004 17.4052 11.9588C17.2888 12.3319 17.115 12.6734 16.8654 12.9742C16.8026 13.0496 16.8427 13.0961 16.9062 13.1247C17.1224 13.2223 17.3389 13.3183 17.5596 13.4046C17.6783 13.4511 17.8054 13.4762 17.928 13.513C17.9965 13.5335 18.0239 13.5719 17.9788 13.6415C17.8478 13.844 17.7176 14.0468 17.5885 14.2505C17.5396 14.3279 17.4841 14.3434 17.394 14.3097C16.9802 14.1548 16.5888 13.959 16.2359 13.6903C16.1723 13.6419 16.1111 13.6396 16.0402 13.6791C15.8217 13.8006 15.6029 13.9222 15.3806 14.0364C15.2581 14.0991 15.1282 14.1471 15.0015 14.2013C14.9175 14.2373 14.8582 14.209 14.8023 14.1386C14.7087 14.0201 14.6074 13.9083 14.5068 13.7956C14.4872 13.7735 14.4567 13.7612 14.4317 13.7441C14.4209 13.7472 14.4101 13.7503 14.3997 13.7534C14.3997 13.8254 14.3978 13.897 14.4001 13.9686C14.4028 14.0434 14.3724 14.0662 14.2972 14.0856C14.1497 14.1235 14.0087 14.1866 13.8661 14.2423C13.5529 14.3654 13.2401 14.4901 12.9276 14.6159C12.8675 14.6399 12.8113 14.6728 12.7531 14.7018C12.7546 14.7123 12.7566 14.7227 12.7581 14.7328C12.807 14.7328 12.8563 14.7359 12.9049 14.7324C13.4554 14.6918 14.0067 14.6589 14.5557 14.6035C14.6933 14.5896 14.827 14.5106 14.9568 14.4498C15.2065 14.3329 15.4526 14.2087 15.6996 14.0859C15.7689 14.0515 15.834 14.0484 15.8992 14.0948C16.0741 14.2199 16.2501 14.3434 16.4231 14.4711C16.4509 14.4916 16.4659 14.5296 16.4871 14.5594C16.4597 14.578 16.4347 14.602 16.4046 14.6143C16.1057 14.7382 15.8067 14.8633 15.5058 14.9817C15.2434 15.0851 14.9791 15.183 14.7137 15.2782C14.3639 15.4037 14.0125 15.5248 13.6612 15.646C13.4855 15.7064 13.3083 15.7621 13.1318 15.8206C13.1152 15.826 13.1002 15.8364 13.0844 15.8697C13.1353 15.8748 13.1869 15.8875 13.237 15.8841C13.7941 15.8477 14.3512 15.8082 14.9086 15.7706C15.171 15.7528 15.4338 15.7385 15.6961 15.7184C15.7296 15.7157 15.7612 15.6905 15.794 15.6758C15.7751 15.6491 15.7605 15.6173 15.7362 15.5972C15.6534 15.5271 15.5674 15.4613 15.4469 15.3653C15.5131 15.3166 15.5651 15.2806 15.6148 15.2411C15.7504 15.1327 15.8861 15.0247 16.0186 14.9128C16.0752 14.8652 16.1249 14.8633 16.1819 14.9078C16.6073 15.2399 17.0334 15.5709 17.4587 15.903C17.5523 15.9762 17.6429 16.0532 17.7372 16.1256C17.7931 16.1682 17.8004 16.2131 17.7542 16.2638C17.609 16.4229 17.4626 16.5805 17.3162 16.7388C17.2568 16.8031 17.1998 16.7872 17.1405 16.7361C17.0018 16.6165 16.86 16.5007 16.7217 16.3803C16.6481 16.3165 16.5714 16.2843 16.4693 16.2898C15.9693 16.3161 15.4692 16.3354 14.9687 16.3571C14.8562 16.3621 14.8378 16.3799 14.837 16.4972C14.8354 16.7489 14.8431 17.0009 14.8316 17.2517C14.8258 17.3752 14.8039 17.5041 14.7576 17.6179C14.6744 17.8223 14.491 17.921 14.2864 17.9388C13.8838 17.9733 13.4793 17.9822 13.0756 18.0008C13.0039 18.0039 12.9607 17.9625 12.9438 17.8963C12.8953 17.7062 12.8471 17.5157 12.8024 17.3245C12.7781 17.22 12.7546 17.2014 12.6591 17.2409C12.4368 17.3326 12.2157 17.4271 11.9941 17.52C11.6659 17.6578 11.3376 17.7956 11.0094 17.933C10.9493 17.9582 10.9046 17.9365 10.8684 17.8854C10.7258 17.683 10.5817 17.4817 10.4396 17.2792C10.396 17.2173 10.4319 17.1832 10.4901 17.1658C10.7332 17.0942 10.9774 17.0272 11.2194 16.9521C11.5314 16.8557 11.8423 16.7543 12.1532 16.6525C12.2415 16.6238 12.327 16.5871 12.4133 16.5538C12.4903 16.524 12.5516 16.5332 12.6082 16.6041C12.7084 16.7299 12.817 16.8487 12.9222 16.9703C13.0043 17.0651 13.0012 17.0868 12.8941 17.1522C12.8814 17.16 12.8698 17.17 12.8402 17.1913C12.8852 17.201 12.9111 17.2107 12.9376 17.2115C13.1303 17.2157 13.3229 17.2242 13.5151 17.22C13.724 17.2157 13.7987 17.1364 13.8033 16.9293C13.8064 16.7973 13.8029 16.6649 13.8052 16.5325C13.8068 16.4465 13.7721 16.4101 13.6839 16.4156C13.3252 16.4388 12.9661 16.457 12.6075 16.4802C12.1975 16.5069 11.788 16.5367 11.3785 16.5665C11.1107 16.5863 11.1103 16.5874 11.0183 16.3385C10.9736 16.2177 10.9316 16.0962 10.8865 15.9754C10.8576 15.8984 10.8803 15.8504 10.9601 15.8303C11.2459 15.7575 11.5333 15.6901 11.8169 15.61C12.1313 15.5213 12.443 15.4226 12.755 15.3247C12.7993 15.3108 12.8375 15.2763 12.8783 15.2511C12.8783 15.2457 12.8783 15.2399 12.8779 15.2345L12.8756 15.2349ZM14.4922 13.1476C14.1674 13.153 14.1986 13.1 14.1824 13.4348C14.1736 13.6202 14.2001 13.6435 14.3831 13.6094C14.3989 13.6063 14.4147 13.6032 14.4298 13.5978C14.7842 13.4755 15.1352 13.345 15.46 13.1538C15.552 13.0996 15.5594 13.0667 15.4989 12.9792C15.4002 12.8367 15.302 12.6943 15.2049 12.5507C15.1506 12.4705 15.1282 12.467 15.057 12.5344C14.9942 12.5936 14.9383 12.6633 14.867 12.7094C14.8065 12.7481 14.7857 12.7891 14.785 12.8569C14.7811 13.1464 14.7796 13.1464 14.4922 13.1476ZM16.1234 11.8055C16.1234 11.8055 16.1234 11.8055 16.1234 11.8051C16.0016 11.8051 15.8795 11.8028 15.7578 11.8059C15.668 11.8082 15.6449 11.8419 15.6919 11.9115C15.8244 12.1082 15.9635 12.3006 16.101 12.4938C16.153 12.5665 16.2116 12.56 16.2536 12.4887C16.3638 12.301 16.4713 12.1113 16.5734 11.9189C16.608 11.8539 16.5811 11.8059 16.4994 11.8055C16.3742 11.8055 16.249 11.8055 16.1241 11.8055H16.1234ZM12.0142 13.6199C12.0142 13.6199 12.0142 13.6199 12.0142 13.6202C12.0847 13.6202 12.1552 13.6241 12.2253 13.6191C12.2773 13.6152 12.3289 13.6005 12.3805 13.5904C12.3605 13.5421 12.3486 13.4882 12.3193 13.4468C12.0658 13.0849 12.2052 13.1592 11.8358 13.1468C11.7614 13.1441 11.719 13.1774 11.7025 13.244C11.6813 13.3311 11.669 13.4205 11.6489 13.5084C11.6316 13.5846 11.6624 13.6191 11.736 13.6202C11.8288 13.6214 11.9217 13.6202 12.0145 13.6202L12.0142 13.6199ZM13.1318 13.1487C13.0517 13.1487 12.9715 13.146 12.8918 13.1503C12.8629 13.1518 12.8194 13.1623 12.8109 13.1817C12.8016 13.2026 12.8201 13.2409 12.8344 13.2672C12.8914 13.3698 12.9492 13.472 13.012 13.5707C13.0266 13.5935 13.0621 13.6137 13.0894 13.6156C13.1723 13.6218 13.2566 13.6268 13.3383 13.6156C13.3718 13.611 13.4196 13.5684 13.4261 13.5362C13.445 13.4391 13.4481 13.3388 13.455 13.2393C13.4593 13.1751 13.4273 13.146 13.3622 13.148C13.2855 13.1507 13.2085 13.1487 13.1318 13.1487ZM12.9819 12.5894C13.1457 12.5894 13.2998 12.594 13.4531 12.5847C13.4785 12.5832 13.5136 12.522 13.5209 12.4841C13.5359 12.4059 13.5344 12.3242 13.5406 12.2441C13.546 12.1767 13.5202 12.1396 13.4493 12.1399C13.2925 12.1403 13.1357 12.1392 12.9792 12.1411C12.9538 12.1411 12.9284 12.1554 12.8895 12.1674C12.9226 12.2174 12.945 12.2553 12.9715 12.2901C13.0432 12.3846 13.0467 12.4843 12.9819 12.5894ZM12.159 12.5983V12.5991C12.2326 12.5991 12.3066 12.601 12.3802 12.5987C12.4645 12.5956 12.4892 12.5534 12.4476 12.4794C12.4129 12.4179 12.3644 12.3641 12.3343 12.3006C12.2673 12.1605 12.1567 12.114 12.0134 12.1419C11.9772 12.1488 11.9286 12.181 11.9182 12.2123C11.8882 12.3033 11.8712 12.3989 11.8562 12.4938C11.8458 12.5592 11.8778 12.5983 11.9483 12.5983C12.0188 12.5983 12.0893 12.5983 12.1598 12.5983H12.159Z" fill="#629ED7"/>
<path d="M7.10975 4.16278C7.77086 4.16278 8.43198 4.16278 9.09347 4.16278C9.22947 4.16278 9.25066 4.18291 9.25066 4.31878C9.25066 5.60244 9.25297 6.88609 9.24912 8.16975C9.24835 8.44382 9.22292 8.71789 9.10388 8.97145C8.95401 9.29004 8.69974 9.4685 8.35338 9.49792C8.00202 9.52773 7.64912 9.53973 7.29699 9.55947C7.20876 9.5645 7.17332 9.51379 7.15675 9.43327C7.11438 9.22849 7.06583 9.02487 7.02345 8.8197C7.0065 8.73764 6.95873 8.70783 6.88091 8.70821C6.32882 8.70899 5.77674 8.70822 5.22466 8.70976C5.11909 8.70976 5.09752 8.73531 5.09752 8.84487C5.09752 9.08216 5.0979 9.05932 4.881 9.0601C4.69145 9.06087 4.50229 9.06048 4.31274 9.0601C4.16326 9.05971 4.15324 9.05042 4.15324 8.90216C4.15324 8.37956 4.15324 7.85696 4.15324 7.33475C4.15324 6.77693 4.15324 6.21872 4.15324 5.66089C4.15324 5.51031 4.16826 5.49598 4.32044 5.49598C5.33484 5.49598 6.34886 5.49598 7.36326 5.49598C7.54048 5.49598 7.5451 5.5014 7.5451 5.68218C7.5451 6.58531 7.5451 7.48843 7.54587 8.39156C7.54587 8.55298 7.55358 8.56305 7.71693 8.55492C7.83636 8.54873 7.96427 8.57273 8.06559 8.47943C8.17192 8.3815 8.21469 8.25607 8.21584 8.11516C8.21777 7.81515 8.21816 7.51514 8.21816 7.21513C8.21816 6.52802 8.21816 5.84128 8.21816 5.15417C8.21816 5.01519 8.20621 5.00319 8.07176 5.00319C7.0928 5.00358 6.11385 5.00435 5.13489 5.00513C4.97655 5.00513 4.9646 4.99468 4.9646 4.83674C4.9646 4.66563 4.9646 4.49492 4.96537 4.32382C4.96576 4.18175 4.98579 4.16162 5.12718 4.16162C5.7883 4.16162 6.44941 4.16162 7.11052 4.16162L7.10975 4.16278ZM5.84339 6.73744C6.0549 6.73744 6.26602 6.73667 6.47753 6.73822C6.55998 6.73899 6.6039 6.70957 6.59812 6.61899C6.5935 6.54195 6.59388 6.46453 6.59812 6.3875C6.60313 6.2911 6.55805 6.25394 6.46636 6.2551C6.30301 6.25704 6.13966 6.2551 5.97631 6.2551C5.7359 6.2551 5.49588 6.2551 5.25548 6.2551C5.11601 6.2551 5.09906 6.27214 5.09752 6.40801C5.09675 6.47227 5.09713 6.53692 5.09713 6.60118C5.09713 6.71925 5.111 6.73551 5.22851 6.73667C5.43347 6.7386 5.63843 6.73705 5.84339 6.73705V6.73744ZM5.8484 7.46598V7.46676C5.63959 7.46676 5.43116 7.46792 5.22234 7.46637C5.1345 7.46559 5.09097 7.50043 5.09598 7.59295C5.09983 7.66689 5.09598 7.74122 5.09713 7.81554C5.09868 7.92587 5.12218 7.95064 5.23506 7.9518C5.40843 7.95374 5.5818 7.9518 5.75516 7.9518C5.98941 7.9518 6.22365 7.95258 6.45789 7.95064C6.5777 7.94987 6.59542 7.92935 6.59658 7.80741C6.59735 7.73657 6.59889 7.66534 6.59735 7.5945C6.59504 7.48495 6.57655 7.46714 6.46482 7.46637C6.25947 7.46521 6.05413 7.46637 5.8484 7.46637V7.46598Z" fill="#629ED7"/>
<path d="M5.81068 3.21237C5.87926 3.12566 5.95747 3.04475 6.01487 2.95068C6.17206 2.69287 6.32771 2.43351 6.46948 2.16717C6.53228 2.04949 6.60163 1.99414 6.73801 2.00033C6.95569 2.01039 7.17413 2.00188 7.39258 2.00304C7.52742 2.00381 7.54167 2.02549 7.49351 2.14898C7.4573 2.24189 7.42108 2.33479 7.37986 2.42576C7.32824 2.54035 7.34519 2.57209 7.46886 2.57209C8.08489 2.57248 8.70132 2.57209 9.31735 2.57286C9.4861 2.57286 9.48687 2.57519 9.48687 2.74861C9.48687 2.89378 9.48533 3.03894 9.48687 3.18411C9.48802 3.27237 9.45219 3.31224 9.36012 3.31108C9.08427 3.30799 8.80803 3.30953 8.53219 3.31031C8.39465 3.31031 8.38039 3.33973 8.4428 3.46554C8.48827 3.55767 8.52602 3.65367 8.56493 3.7489C8.58997 3.81084 8.56686 3.84568 8.50059 3.85807C8.24555 3.90684 7.99012 3.95484 7.73623 4.00904C7.64801 4.02762 7.60563 3.99743 7.57789 3.91652C7.52356 3.75819 7.46192 3.60258 7.40683 3.44463C7.37254 3.3467 7.31475 3.30489 7.20572 3.30799C6.8247 3.31921 6.93373 3.26773 6.71952 3.56309C6.62552 3.69316 6.52149 3.81587 6.42479 3.94401C6.37856 4.00556 6.32694 4.01949 6.25759 3.98581C6.02412 3.872 5.78988 3.76052 5.55679 3.64632C5.49785 3.61729 5.48822 3.57316 5.53522 3.52244C5.58453 3.46902 5.63423 3.41521 5.68393 3.36179C5.60649 3.29328 5.0783 3.28902 4.98506 3.35676C5.04593 3.45586 5.10719 3.55651 5.16922 3.65638C5.2351 3.76245 5.23317 3.78413 5.12106 3.82671C4.87218 3.92117 4.62099 4.00981 4.37057 4.09962C4.29313 4.1275 4.26655 4.06324 4.24035 4.01562C4.12361 3.80503 4.01073 3.59212 3.89631 3.37999C3.8886 3.36605 3.88128 3.35057 3.86972 3.3405C3.79884 3.2774 3.49371 3.30837 3.4286 3.38154C3.14042 3.70555 2.85147 4.02917 2.56252 4.35241C2.53902 4.37873 2.51437 4.40428 2.48778 4.42751C2.44155 4.46738 2.39879 4.46467 2.37105 4.4066C2.25046 4.15421 2.13219 3.90065 2.0116 3.64787C1.97885 3.57896 2.02238 3.54102 2.06284 3.49767C2.25123 3.2956 2.44964 3.10127 2.6234 2.8872C2.81333 2.653 2.98516 2.4037 3.15467 2.15363C3.22248 2.05336 3.29453 1.99762 3.41897 2.00072C3.67247 2.00652 3.92597 2.0011 4.17948 2.00304C4.30238 2.00381 4.32125 2.04369 4.25768 2.15053C4.2049 2.23879 4.15289 2.32744 4.10242 2.41725C4.02884 2.54848 4.04155 2.57132 4.18911 2.5717C4.65451 2.57286 5.11991 2.57248 5.58492 2.57248C5.70332 2.57248 5.76278 2.63119 5.7633 2.74861C5.7633 2.86475 5.76252 2.98088 5.76407 3.09701C5.76445 3.13069 5.771 3.16437 5.77485 3.19805L5.81107 3.21237H5.81068Z" fill="#629ED7"/>
<path d="M3.50484 7.23023C3.50484 7.94909 3.50484 8.66796 3.50484 9.38721C3.50484 9.42282 3.50368 9.45805 3.50253 9.49366C3.50022 9.55986 3.47055 9.59121 3.40043 9.59044C3.13422 9.58773 2.868 9.58734 2.60178 9.59005C2.51818 9.59083 2.48582 9.55366 2.4862 9.47431C2.48736 9.31946 2.4862 9.165 2.4862 9.01016C2.4862 7.67541 2.4862 6.34066 2.4862 5.0059C2.4862 4.87854 2.50123 4.86267 2.63106 4.86229C2.88148 4.86151 3.13152 4.86577 3.38155 4.86035C3.47864 4.85803 3.50561 4.90177 3.50484 4.98732C3.5033 5.15804 3.50484 5.32914 3.50484 5.49985C3.50484 6.07703 3.50484 6.65383 3.50484 7.23101V7.23023Z" fill="#629ED7"/>
<path d="M15.7655 16.5139C15.9273 16.5607 16.0725 16.5994 16.2162 16.6451C16.6069 16.7694 16.9968 16.8956 17.3863 17.0222C17.523 17.0667 17.6587 17.1147 17.7947 17.1627C17.8702 17.1894 17.8952 17.2366 17.8497 17.3109C17.7357 17.4971 17.6263 17.6864 17.5057 17.868C17.4864 17.897 17.4113 17.9168 17.3766 17.9032C17.0515 17.7766 16.7309 17.6381 16.4062 17.5107C16.0902 17.3872 15.7709 17.2718 15.4523 17.1553C15.3517 17.1186 15.3363 17.0922 15.3925 17.0036C15.4823 16.8627 15.5752 16.7241 15.6715 16.5878C15.695 16.5545 15.7377 16.5352 15.7655 16.5139Z" fill="#629ED7"/>
<path d="M3.89319 5.22927C3.87007 5.20914 3.83886 5.1921 3.82191 5.16578C3.61772 4.85106 3.41739 4.53363 3.21127 4.22007C3.15772 4.13839 3.21127 4.1082 3.26367 4.07839C3.39465 4.00407 3.52834 3.93477 3.66087 3.86354C3.70864 3.83761 3.75796 3.81399 3.80419 3.78574C3.872 3.74431 3.92362 3.75941 3.96985 3.82135C4.16441 4.08033 4.36013 4.33853 4.55507 4.5975C4.58589 4.63854 4.61286 4.68267 4.64329 4.7237C4.68644 4.78177 4.6718 4.82512 4.61209 4.85764C4.41214 4.96603 4.21257 5.07481 4.01223 5.18165C3.97871 5.19946 3.94134 5.21068 3.89319 5.23004V5.22927Z" fill="#629ED7"/>
<path d="M7.02808 16.9715H7.02885C7.02885 17.1747 7.02731 17.3779 7.03039 17.5808C7.03077 17.616 7.05042 17.6508 7.06121 17.6857C7.09742 17.671 7.14057 17.664 7.1687 17.64C7.70344 17.1828 8.23588 16.7237 8.76947 16.265C9.03761 16.0346 9.30614 15.8055 9.57467 15.5755C9.72646 15.4451 9.72646 15.4273 9.57274 15.2949C9.49492 15.2279 9.41671 15.1609 9.33889 15.094C8.61536 14.4723 7.89222 13.8506 7.16754 13.2304C7.13903 13.206 7.09627 13.1983 7.06044 13.1824C7.05004 13.218 7.03116 13.2533 7.03077 13.2889C7.02846 13.6404 7.02962 13.9919 7.02923 14.3434C7.02923 14.458 7.01382 14.473 6.90094 14.47C6.56653 14.4599 6.24561 14.3801 5.94009 14.2493C5.47084 14.0484 5.08018 13.7426 4.78083 13.3233C4.48148 12.9037 4.31351 12.4376 4.29193 11.9216C4.28384 11.7284 4.28847 11.5345 4.28808 11.3413C4.2877 11.1815 4.28076 11.1729 4.11895 11.1726C3.63121 11.1722 3.14346 11.1726 2.65572 11.1726C2.62374 11.1726 2.59138 11.1722 2.5594 11.1733C2.45268 11.178 2.42957 11.2004 2.4288 11.3069C2.42764 11.4586 2.43034 11.61 2.42841 11.7617C2.4234 12.1512 2.47272 12.5352 2.57443 12.9091C2.73971 13.5161 3.02095 14.0646 3.42278 14.5509C3.90783 15.1373 4.50152 15.5744 5.19961 15.8659C5.73783 16.0904 6.29916 16.2154 6.88437 16.2216C7.00843 16.2228 7.02808 16.2441 7.02885 16.3707C7.03 16.5704 7.02885 16.7705 7.02885 16.9707L7.02808 16.9715Z" fill="#629ED7"/>
</g>
<defs>
<clipPath id="clip0_1139_434">
<rect width="16" height="16" fill="white" transform="translate(2 2)"/>
</clipPath>
</defs>
</svg>
