<svg width="20" height="20" viewBox="0 0 20 20" fill="none" xmlns="http://www.w3.org/2000/svg">
<path d="M0 2C0 0.895431 0.895431 0 2 0H18C19.1046 0 20 0.895431 20 2V18C20 19.1046 19.1046 20 18 20H2C0.895431 20 0 19.1046 0 18V2Z" fill="white"/>
<g clip-path="url(#clip0_1161_191)">
<path d="M2.62204 5.67425C3.17024 5.26573 3.75536 5.41929 4.33765 5.36714C4.33765 4.88328 4.33765 4.40811 4.33765 3.93295C4.33765 3.55629 4.53932 3.25207 4.87448 3.12748C4.97958 3.08982 5.09603 3.06954 5.20681 3.06664C6.57589 3.06374 7.94496 3.06084 9.3112 3.06664C9.68897 3.06664 9.94745 3.26656 10.1179 3.60555C10.382 4.13286 10.6575 4.65439 10.9132 5.1875C10.987 5.34396 11.0808 5.38742 11.2427 5.38452C12.91 5.37872 14.5745 5.38452 16.2418 5.37873C16.6309 5.37873 17.0059 5.4077 17.3865 5.67715C17.3723 5.36714 17.395 5.09768 17.341 4.84561C17.2558 4.44578 16.915 4.21399 16.4832 4.21399C14.8528 4.21399 13.2224 4.21399 11.592 4.21399C11.5296 4.21399 11.4642 4.21978 11.4017 4.21109C11.254 4.18502 11.1489 4.0981 11.1489 3.93874C11.1489 3.7707 11.2427 3.67219 11.4103 3.6548C11.4727 3.64901 11.5381 3.6519 11.6006 3.6519C13.1969 3.6519 14.7903 3.6519 16.3866 3.6519C17.3552 3.6519 17.9375 4.24007 17.9375 5.22806C17.9375 8.62666 17.9375 12.0252 17.9375 15.4238C17.9375 16.3365 17.3382 16.9421 16.4378 16.9421C12.163 16.9421 7.88815 16.9421 3.6105 16.9421C2.64477 16.9421 2.06532 16.3539 2.06532 15.363C2.06532 12.9843 2.06532 10.6055 2.06532 8.22682C2.06532 7.19247 2.06532 6.15811 2.071 5.12376C2.07384 4.32409 2.6334 3.70406 3.37759 3.6606C3.6105 3.64611 3.73548 3.73303 3.74684 3.91846C3.7582 4.0981 3.64743 4.19661 3.41167 4.21978C2.95437 4.26614 2.6334 4.61382 2.62204 5.0832C2.6192 5.26283 2.62204 5.44247 2.62204 5.68295V5.67425ZM9.98721 16.3742C12.1147 16.3742 14.2393 16.3742 16.3668 16.3742C17.0627 16.3742 17.3779 16.0526 17.3779 15.3398C17.3779 12.5352 17.3779 9.73055 17.3779 6.92591C17.3779 6.28849 17.0456 5.94661 16.4236 5.94661C14.6171 5.94661 12.8077 5.94661 11.0012 5.9495C10.774 5.9495 10.6377 5.87127 10.5354 5.65977C10.2428 5.05712 9.9304 4.46606 9.63216 3.86921C9.54695 3.69826 9.43049 3.62583 9.24587 3.62583C7.9194 3.62583 6.59577 3.62583 5.2693 3.62583C4.9881 3.62583 4.89153 3.73303 4.89153 4.02566C4.89153 4.53849 4.89153 5.05132 4.89153 5.56416C4.89153 5.8481 4.80347 5.94371 4.52227 5.94661C4.18995 5.9524 3.85478 5.94661 3.52245 5.94661C2.97993 5.94661 2.62772 6.30298 2.62772 6.85058C2.62772 9.70737 2.62488 12.5613 2.62488 15.418C2.62488 16.012 2.97993 16.3713 3.5679 16.3713C5.70956 16.3713 7.84839 16.3713 9.99005 16.3713L9.98721 16.3742Z" fill="#498FD0"/>
<path d="M3.60767 17C2.60217 17 2 16.3858 2 15.3543C2 12.9756 2 10.5969 2 8.21813V7.74876C2 6.88535 2 5.99296 2.00568 5.11507C2.00852 4.29222 2.59648 3.63452 3.37192 3.58816C3.73265 3.56788 3.80082 3.77939 3.80934 3.90687C3.81786 4.05753 3.75821 4.24296 3.41736 4.27773C2.98846 4.32119 2.6959 4.6428 2.68738 5.0774C2.68738 5.19619 2.68738 5.31498 2.68738 5.45406C2.68738 5.48593 2.68738 5.5178 2.68738 5.55257C3.07367 5.31209 3.47701 5.31209 3.86615 5.31498C3.99965 5.31498 4.13882 5.31498 4.27516 5.30629C4.27516 5.17881 4.27516 5.05422 4.27516 4.92964C4.27516 4.60224 4.27516 4.26325 4.27516 3.93295C4.27516 3.52442 4.49388 3.19992 4.85461 3.06664C4.96538 3.02608 5.08752 3.0029 5.20966 3.0029C6.6185 3 7.99893 3 9.31404 3C9.6975 3 9.98722 3.19412 10.1775 3.57368C10.2798 3.78228 10.3877 3.99089 10.4928 4.19371C10.6519 4.50662 10.8195 4.83113 10.9757 5.15563C11.0353 5.28022 11.1007 5.31788 11.2455 5.31788C12.0522 5.31788 12.8731 5.31498 13.6655 5.31498C14.5091 5.31498 15.384 5.31498 16.2418 5.31209C16.5826 5.31209 16.9462 5.32947 17.3183 5.55257C17.3183 5.49752 17.3183 5.44247 17.3183 5.38742C17.3183 5.19909 17.3155 5.02235 17.2814 4.8572C17.2047 4.49793 16.9008 4.27483 16.4861 4.27483C15.3329 4.27483 14.1825 4.27483 13.0293 4.27483H11.5949C11.5778 4.27483 11.5608 4.27483 11.5438 4.27483C11.4955 4.27483 11.4443 4.27483 11.3932 4.26904C11.2001 4.23717 11.0893 4.11258 11.0865 3.93295C11.0865 3.73303 11.2001 3.60555 11.4046 3.58237C11.4557 3.57657 11.5068 3.57657 11.5551 3.57657C11.5693 3.57657 11.5864 3.57657 11.6006 3.57657H12.4186C13.7422 3.57657 15.0659 3.57657 16.3867 3.57657C17.3978 3.57657 18 4.19081 18 5.21647C18 8.80339 18 12.1382 18 15.4123C18 16.3597 17.3723 16.9971 16.4378 16.9971H11.0211C8.54997 16.9971 6.08166 16.9971 3.61051 16.9971L3.60767 17ZM3.42304 3.71854C3.42304 3.71854 3.39464 3.71854 3.38044 3.71854C2.67318 3.75911 2.13634 4.36176 2.1335 5.11796C2.13066 5.99586 2.13066 6.88825 2.13066 7.75166V8.22103C2.13066 10.5998 2.13066 12.9785 2.13066 15.3572C2.13066 16.3046 2.68454 16.8725 3.61051 16.8725C6.08166 16.8725 8.54997 16.8725 11.0211 16.8725H16.4378C17.2956 16.8725 17.8722 16.2873 17.8722 15.418C17.8722 12.144 17.8722 8.80919 17.8722 5.22227C17.8722 4.27773 17.3155 3.71275 16.3867 3.71275C15.063 3.71275 13.7394 3.71275 12.4186 3.71275H11.6006C11.5835 3.71275 11.5693 3.71275 11.5523 3.71275C11.504 3.71275 11.4585 3.71275 11.4159 3.71565C11.2796 3.73013 11.2114 3.80546 11.2114 3.93584C11.2114 4.05174 11.2796 4.12127 11.4103 4.14445C11.45 4.15025 11.4898 4.15025 11.5352 4.14735C11.5523 4.14735 11.5722 4.14735 11.5892 4.14735H13.0236C14.1768 4.14735 15.3272 4.14735 16.4804 4.14735C16.9576 4.14735 17.3098 4.41101 17.4007 4.83113C17.4376 5.00786 17.4404 5.19329 17.4404 5.38742C17.4404 5.47724 17.4404 5.57285 17.4461 5.67136L17.4518 5.80174L17.3467 5.72641C16.9689 5.45985 16.594 5.43957 16.2389 5.43957C15.3783 5.44247 14.5063 5.44247 13.6599 5.44247C12.8674 5.44247 12.0465 5.44247 11.2398 5.44536C11.0751 5.44536 10.9473 5.4048 10.8535 5.21068C10.6973 4.88907 10.5326 4.56457 10.3735 4.25166C10.2684 4.04884 10.1633 3.83733 10.0582 3.62873C9.89064 3.29263 9.64353 3.12748 9.30836 3.12748C7.99609 3.12459 6.61282 3.12748 5.20398 3.12748C5.09888 3.12748 4.99095 3.14776 4.89437 3.18253C4.58477 3.29553 4.40014 3.57368 4.3973 3.92715C4.3973 4.25745 4.3973 4.59644 4.3973 4.92384C4.3973 5.06871 4.3973 5.21358 4.3973 5.36134V5.42219L4.34049 5.42798C4.18143 5.44247 4.01953 5.44247 3.86331 5.44247C3.44009 5.44247 3.03959 5.43957 2.65897 5.72641L2.55672 5.80174V5.67425C2.55672 5.59603 2.55672 5.52359 2.55672 5.45406C2.55672 5.31498 2.55672 5.19619 2.55672 5.0745C2.56524 4.57616 2.91461 4.19661 3.40316 4.14735C3.6588 4.12127 3.6872 4.00828 3.67868 3.91556C3.673 3.82864 3.63891 3.71854 3.4202 3.71854H3.42304ZM13.5406 16.4379C12.9498 16.4379 12.3561 16.4379 11.7653 16.4379H9.98722C8.71472 16.4379 7.44506 16.4379 6.17255 16.4379H3.56506C2.94301 16.4379 2.55672 16.0468 2.55672 15.4209C2.55672 12.5642 2.55672 9.71027 2.55956 6.85348C2.55956 6.26531 2.93733 5.88576 3.51678 5.88286C3.64459 5.88286 3.76957 5.88286 3.89739 5.88286C4.09906 5.88286 4.30925 5.88286 4.5166 5.88286C4.76087 5.87997 4.82052 5.81623 4.82052 5.56416C4.82052 5.28311 4.82052 5.00207 4.82052 4.72103C4.82052 4.48924 4.82052 4.25745 4.82052 4.02276C4.82052 3.69536 4.94834 3.55919 5.26363 3.55919C5.89988 3.55919 6.53613 3.55919 7.17238 3.55919C7.85975 3.55919 8.54997 3.55919 9.24019 3.55919C9.44754 3.55919 9.58672 3.64901 9.68329 3.83733C9.81111 4.0923 9.94177 4.35306 10.0696 4.60224C10.24 4.93833 10.419 5.28601 10.5865 5.63079C10.6774 5.81623 10.7854 5.88576 10.9927 5.88576H10.9956C12.4243 5.87997 13.8786 5.88286 15.2817 5.88286H16.4179C17.074 5.88286 17.4348 6.25373 17.4348 6.92591V8.88162C17.4348 11.0344 17.4348 13.1871 17.4348 15.3398C17.4348 16.0902 17.0939 16.4379 16.3611 16.4408C15.4181 16.4408 14.4779 16.4408 13.5349 16.4408L13.5406 16.4379ZM9.98722 16.3075H11.7653C13.2991 16.3075 14.8329 16.3075 16.3668 16.3075C17.0314 16.3075 17.3126 16.0178 17.3126 15.3369C17.3126 13.1842 17.3126 11.0315 17.3126 8.87873V6.92301C17.3126 6.32616 17.003 6.01035 16.4207 6.01035H15.2846C13.8786 6.01035 12.4271 6.01035 10.9984 6.01325H10.9956C10.7428 6.01325 10.5865 5.91474 10.4758 5.68584C10.3082 5.34106 10.1321 4.99627 9.96165 4.66018C9.83384 4.41101 9.70034 4.15025 9.57252 3.89528C9.49867 3.74752 9.40494 3.68957 9.24303 3.68957C8.55281 3.68957 7.86544 3.68957 7.17522 3.68957C6.53897 3.68957 5.90272 3.68957 5.26647 3.68957C5.02219 3.68957 4.95118 3.7649 4.95118 4.02276C4.95118 4.25455 4.95118 4.48634 4.95118 4.72103C4.95118 5.00207 4.95118 5.28311 4.95118 5.56416C4.95118 5.88576 4.83188 6.00745 4.51944 6.01035C4.31209 6.01325 4.1019 6.01035 3.90023 6.01035C3.77241 6.01035 3.64743 6.01035 3.51962 6.01035C3.01402 6.01035 2.69022 6.34354 2.68738 6.85058C2.68738 9.70737 2.68454 12.5613 2.68454 15.418C2.68454 15.9743 3.01402 16.3046 3.56506 16.3046H6.17255C7.44506 16.3046 8.71472 16.3046 9.98722 16.3046V16.3075Z" fill="#498FD0"/>
</g>
<defs>
<clipPath id="clip0_1161_191">
<rect width="16" height="14" fill="white" transform="translate(2 3)"/>
</clipPath>
</defs>
</svg>
