<svg width="20" height="20" viewBox="0 0 20 20" fill="none" xmlns="http://www.w3.org/2000/svg">
<path d="M0 2C0 0.895431 0.895431 0 2 0H18C19.1046 0 20 0.895431 20 2V18C20 19.1046 19.1046 20 18 20H2C0.895431 20 0 19.1046 0 18V2Z" fill="white"/>
<path d="M4.52781 18C4.1161 17.8643 4 17.6165 4 17.2876C4.00716 12.4198 4.0046 7.55195 4.00869 2.68413C4.00869 2.5521 4.03018 2.40986 4.09717 2.29043C4.20509 2.09898 4.43012 2.00716 4.70323 2.00236C4.99578 1.99756 5.28833 2.00056 5.58087 2.00056C8.75131 2.00056 11.9217 2.00056 15.0922 2.00056C15.7586 2.00056 15.9949 2.18361 15.9949 2.69973C15.9949 7.56215 15.9928 12.4246 16 17.287C16 17.6159 15.8844 17.8643 15.4722 18H4.52781ZM14.5853 8.05247C14.5091 8.04887 14.4493 8.04407 14.3895 8.04407C11.4645 8.04407 8.53957 8.04467 5.61463 8.04107C5.44483 8.04107 5.39726 8.07708 5.39778 8.20671C5.40391 9.40401 5.40136 10.6013 5.40187 11.798C5.40187 11.8478 5.41056 11.897 5.41465 11.9462H14.5853V8.05247ZM14.5838 3.07723H5.41261V6.9662H14.5843V3.07783L14.5838 3.07723ZM5.41261 16.9293H14.5843V13.0349H5.41261V16.9293Z" fill="#498FD0"/>
<path d="M10.0044 15.5082C10.3301 15.5082 10.6564 15.5112 10.9822 15.5076C11.418 15.5022 11.7126 15.2927 11.7197 14.9902C11.7269 14.6806 11.4292 14.4483 10.9945 14.4441C10.3291 14.4381 9.66322 14.4375 8.99783 14.4441C8.57384 14.4489 8.27874 14.6782 8.28079 14.9806C8.28232 15.2849 8.57538 15.5004 9.00653 15.507C9.33896 15.5118 9.67191 15.5082 10.0049 15.5082H10.0044Z" fill="white"/>
<path d="M9.99361 10.5329C9.66731 10.5329 9.34152 10.5353 9.01522 10.5329C8.57896 10.5293 8.27772 10.3079 8.28027 9.9964C8.28283 9.69273 8.58254 9.47187 9.00755 9.47007C9.66629 9.46707 10.3255 9.46707 10.9843 9.47007C11.421 9.47187 11.7223 9.69513 11.7192 10.0066C11.7167 10.3103 11.417 10.5275 10.9919 10.5341C10.9781 10.5341 10.9648 10.5341 10.951 10.5341C10.6319 10.5341 10.3122 10.5341 9.9931 10.5341L9.99361 10.5329Z" fill="#498FD0"/>
<path d="M9.99309 4.49303C10.326 4.49303 10.659 4.48943 10.9914 4.49363C11.4236 4.49963 11.7167 4.71388 11.7197 5.01816C11.7228 5.32064 11.4287 5.55169 11.0047 5.55649C10.3327 5.5637 9.65963 5.5643 8.9876 5.55649C8.56566 5.55109 8.27413 5.31703 8.27976 5.01336C8.28538 4.71628 8.57537 4.50143 8.99425 4.49483C9.32668 4.48943 9.65963 4.49363 9.99258 4.49363L9.99309 4.49303Z" fill="#498FD0"/>
<path d="M10.0043 15.5082C9.67139 15.5082 9.33844 15.5118 9.006 15.507C8.57537 15.501 8.28231 15.2849 8.28026 14.9806C8.27873 14.6782 8.57332 14.4489 8.99731 14.4441C9.6627 14.4369 10.3286 14.4375 10.994 14.4441C11.4287 14.4483 11.7269 14.6806 11.7192 14.9902C11.712 15.2927 11.4175 15.5022 10.9817 15.5076C10.6559 15.5118 10.3296 15.5082 10.0038 15.5082H10.0043Z" fill="#498FD0"/>
</svg>
