<svg width="20" height="20" viewBox="0 0 20 20" fill="none" xmlns="http://www.w3.org/2000/svg">
<path d="M0 2C0 0.895431 0.895431 0 2 0H18C19.1046 0 20 0.895431 20 2V18C20 19.1046 19.1046 20 18 20H2C0.895431 20 0 19.1046 0 18V2Z" fill="white"/>
<rect x="10" y="8" width="2" height="4" rx="0.2" fill="#498FD0"/>
<rect x="7" y="8" width="2" height="4" rx="0.2" fill="#498FD0"/>
<path d="M14 10V6L16.5009 8L19 10L16.5009 12L14 14V10Z" fill="#498FD0"/>
<path d="M1.00587 9.9254C1.04701 9.87873 1.80017 9.05483 3.10451 9.51622C3.55453 9.6757 3.87848 9.85443 4.15822 10.0113C4.59492 10.2554 4.8598 10.4017 5.34181 10.3483L5.46681 10.3297C5.75243 10.2783 6.0011 10.1672 6.29689 10.0338C6.78427 9.81253 7.34823 9.55707 8.24904 9.53575C9.63796 9.50426 13.7965 9.51405 13.9219 9.51427L16.3887 9.44591H16.3897C16.6016 9.43909 16.7453 9.63749 16.749 9.84142C16.7527 10.0451 16.6182 10.2506 16.4072 10.2565L13.9326 10.3258H13.9297C13.8793 10.3258 9.65809 10.3155 8.26271 10.3473C7.48913 10.3652 7.0196 10.5762 6.55373 10.7877C6.20077 10.9473 5.85327 11.1062 5.41017 11.1559C5.32072 11.1661 5.23561 11.1695 5.15627 11.1695H5.10841L5.10548 11.1656C4.72455 11.1566 4.42834 11.0454 4.14455 10.9L3.8506 10.7399C3.58789 10.5933 3.29499 10.4296 2.89748 10.2897C1.98644 9.96695 1.50124 10.5011 1.50002 10.5016L1.49806 10.5035C1.42887 10.582 1.33471 10.6229 1.2383 10.6188C1.16652 10.6156 1.09836 10.588 1.04201 10.5397L0.989273 10.484C0.866795 10.3237 0.872048 10.0771 1.00587 9.9254Z" fill="#498FD0" stroke="#498FD0" stroke-width="0.2"/>
</svg>
