<svg width="20" height="20" viewBox="0 0 20 20" fill="none" xmlns="http://www.w3.org/2000/svg">
<path d="M0 2C0 0.895431 0.895431 0 2 0H18C19.1046 0 20 0.895431 20 2V18C20 19.1046 19.1046 20 18 20H2C0.895431 20 0 19.1046 0 18V2Z" fill="white"/>
<g clip-path="url(#clip0_1800_675)">
<path d="M1.11623 7.68718C1.75635 7.1892 2.39477 6.68948 3.03703 6.19453C3.36093 5.94488 3.74766 5.99169 3.99294 6.31458C4.46299 6.93219 4.92834 7.55413 5.39069 8.17737C5.57102 8.42051 5.57401 8.72693 5.4142 8.96617C5.25908 9.19804 4.97363 9.32286 4.70015 9.23098C4.55742 9.18287 4.42239 9.07279 4.31599 8.95967C4.16899 8.80364 4.05148 8.61858 3.90534 8.42484C3.78056 8.9692 3.71774 9.49189 3.73911 10.0194C3.83611 12.449 4.91039 14.3058 6.94784 15.5826C7.43499 15.8877 7.96785 16.1001 8.52422 16.2435C8.97119 16.3588 9.19896 16.6379 9.15323 17.0159C9.10495 17.4163 8.74215 17.682 8.34859 17.5893C7.63155 17.4207 6.95639 17.1411 6.32054 16.7653C4.65699 15.7819 3.49597 14.3708 2.84815 12.5331C2.37767 11.1974 2.28836 9.82735 2.54134 8.43308C2.55031 8.3841 2.558 8.33513 2.57168 8.25191C2.40673 8.37717 2.26358 8.47945 2.12769 8.59084C1.89438 8.78154 1.63756 8.83658 1.36963 8.69702C1.09657 8.55487 0.979489 8.31086 1.01026 7.99794C1.01111 7.98797 1.00385 7.97713 1.00043 7.96673L1.11666 7.68675L1.11623 7.68718Z" fill="#498FD0"/>
<path d="M12.5816 17.4566C12.7987 17.5494 12.9722 17.6209 13.1431 17.6972C13.5055 17.858 13.6627 18.2333 13.5183 18.5857C13.3696 18.9471 12.9957 19.0958 12.6196 18.9367C11.9445 18.6507 11.2702 18.3629 10.5971 18.0725C10.2365 17.9169 10.0715 17.5719 10.2168 17.2031C10.5087 16.462 10.8146 15.726 11.133 14.9962C11.2873 14.6425 11.6697 14.5095 11.9979 14.6564C12.3355 14.8076 12.4799 15.1817 12.3372 15.547C12.256 15.7551 12.1667 15.9601 12.0598 16.2171C12.3508 16.1027 12.6038 16.016 12.8465 15.9059C15.7395 14.5974 17.2689 11.3404 16.4565 8.23197C16.4202 8.09371 16.3929 7.94116 16.4117 7.80246C16.4548 7.48348 16.7219 7.2594 17.0308 7.2451C17.3479 7.2308 17.6141 7.43147 17.7056 7.75912C17.9056 8.47685 18.0047 9.20931 17.9996 9.95564C17.9756 13.3158 15.9202 16.2479 12.7978 17.3782C12.741 17.3986 12.6842 17.4194 12.5816 17.4566Z" fill="#498FD0"/>
<path d="M15.4476 4.01578C15.4224 3.81208 15.3951 3.61748 15.3754 3.42245C15.3365 3.02805 15.5878 2.70169 15.9591 2.65835C16.3241 2.61588 16.6424 2.86812 16.6933 3.25559C16.7907 4.00148 16.8838 4.74781 16.9714 5.49501C17.0193 5.90024 16.7796 6.21013 16.377 6.26431C15.6254 6.36529 14.8729 6.46194 14.12 6.55382C13.7277 6.60193 13.4029 6.34969 13.3568 5.97479C13.3102 5.59556 13.5576 5.27874 13.9512 5.21892C14.1695 5.18599 14.3892 5.16041 14.6289 5.09324C14.3268 4.8631 14.0409 4.60652 13.7204 4.40672C11.7022 3.1481 9.60235 3.00898 7.43798 3.98545C6.7376 4.3014 6.13081 4.76211 5.59666 5.31904C5.4236 5.49934 5.22319 5.60162 4.97235 5.56045C4.70955 5.51754 4.52623 5.36325 4.44248 5.10711C4.35659 4.84359 4.42154 4.60609 4.61041 4.40889C5.23772 3.75487 5.95262 3.21961 6.76239 2.82174C8.52337 1.9571 10.354 1.77333 12.2449 2.27695C13.3875 2.5812 14.4037 3.13943 15.3006 3.92043C15.3382 3.95337 15.3771 3.98458 15.416 4.01578C15.4194 4.01838 15.4267 4.01578 15.4481 4.01578H15.4476Z" fill="#498FD0"/>
<path d="M8.72292 9.04549C8.60755 9.04549 8.50114 9.00128 8.42295 8.92153C8.34475 8.84135 8.30159 8.73127 8.30244 8.61078C8.30714 7.83758 8.30629 7.05138 8.30586 6.29118C8.30586 6.0177 8.30543 5.74465 8.30543 5.47117C8.30543 5.45037 8.30543 5.42956 8.30672 5.40876C8.31654 5.15435 8.47679 4.99572 8.72549 4.99572H8.87676C9.07632 4.99572 9.27587 4.99572 9.47586 4.99615C9.67542 4.99615 9.87497 4.99659 10.0745 4.99659H10.0839C10.4809 4.99659 10.8779 4.99659 11.2749 4.99572H11.8522C11.8701 4.99529 11.8881 4.99572 11.906 4.99572C12.1184 5.00309 12.2675 5.13918 12.2953 5.35068C12.3009 5.39272 12.3004 5.43216 12.3004 5.4703V5.49284C12.3004 6.50832 12.3004 7.52422 12.3004 8.5397V8.56657C12.3004 8.60254 12.3009 8.63982 12.297 8.67882C12.2761 8.88556 12.1299 9.02728 11.9244 9.03942C11.9056 9.04072 11.8872 9.04072 11.8684 9.04072H11.8261H10.4019H10.2955C10.1489 9.04072 10.0027 9.04072 9.85617 9.03985C9.71003 9.03942 9.56388 9.03899 9.41731 9.03899C9.14939 9.03899 8.93145 9.04072 8.73232 9.04462H8.72378L8.72292 9.04549ZM9.05068 8.28442C9.21263 8.29006 9.53312 8.29352 9.95317 8.29352C10.6326 8.29352 11.3116 8.28529 11.5501 8.27489V5.75549H9.05025V8.28486L9.05068 8.28442Z" fill="#498FD0"/>
<path d="M11.8513 5.10364C11.868 5.10364 11.8851 5.10364 11.9017 5.1045C12.0633 5.11014 12.1675 5.20419 12.1889 5.36542C12.1945 5.40746 12.1927 5.4508 12.1927 5.49371C12.1927 6.50918 12.1927 7.52509 12.1927 8.54056C12.1927 8.58347 12.1945 8.62638 12.1902 8.66885C12.1748 8.82315 12.0705 8.92326 11.9176 8.93193C11.9009 8.9328 11.8842 8.93323 11.8676 8.93323C11.8535 8.93323 11.8398 8.93323 11.8257 8.93323C11.4941 8.93323 11.1625 8.93323 10.8309 8.93323C10.6523 8.93323 10.4736 8.93323 10.295 8.93323C10.0023 8.93323 9.7096 8.9315 9.41689 8.9315C9.18785 8.9315 8.9588 8.9328 8.72976 8.93713C8.72762 8.93713 8.72549 8.93713 8.72335 8.93713C8.55328 8.93713 8.40842 8.80884 8.4097 8.61164C8.41611 7.56496 8.41269 6.51828 8.41226 5.4716C8.41226 5.4521 8.41226 5.43259 8.41312 5.41309C8.42038 5.21632 8.53234 5.10407 8.72506 5.10407C8.77548 5.10407 8.82591 5.10407 8.8759 5.10407C9.27459 5.10407 9.67328 5.10537 10.072 5.10537H10.0831C10.6625 5.10537 11.2415 5.1045 11.821 5.10407C11.8312 5.10407 11.8411 5.10407 11.8513 5.10407M9.95317 8.40187C10.7087 8.40187 11.6095 8.39104 11.6573 8.37457V5.6467H8.94385V8.3867C9.04854 8.39711 9.47116 8.40187 9.95317 8.40187ZM11.8513 4.88737H11.8342H11.821H11.2552C10.8646 4.88823 10.4741 4.88867 10.0831 4.88867H10.072C9.87284 4.88867 9.67328 4.88867 9.47415 4.88823C9.27459 4.88823 9.07503 4.8878 8.8759 4.8878H8.72463C8.41739 4.8878 8.211 5.09107 8.19946 5.40529C8.1986 5.42739 8.19818 5.44993 8.19818 5.47203C8.19818 5.74508 8.19818 6.01813 8.1986 6.29118C8.19946 7.05181 8.19989 7.83801 8.19519 8.61078C8.19433 8.7603 8.24817 8.89813 8.34688 8.99868C8.44559 9.09923 8.57892 9.1547 8.72292 9.1547H8.73361C8.93231 9.1508 9.14939 9.14907 9.41646 9.14907C9.5626 9.14907 9.70875 9.1495 9.85489 9.14994C10.0015 9.15037 10.148 9.1508 10.2946 9.1508H10.5083H10.5625H10.8305H11.8257H11.8453H11.8676C11.8842 9.1508 11.9064 9.1508 11.9299 9.14907C12.1868 9.1339 12.3765 8.95013 12.4026 8.69139C12.4073 8.64588 12.4068 8.60384 12.4064 8.56614V8.541C12.4064 7.52552 12.4064 6.50961 12.4064 5.49414V5.47203C12.4064 5.43216 12.4073 5.38665 12.4004 5.33724C12.3654 5.0694 12.1769 4.89734 11.9086 4.88823C11.8894 4.8878 11.8701 4.88737 11.8509 4.88737H11.8513ZM9.15751 5.8634H11.4437V8.17C11.1629 8.17824 10.5916 8.18517 9.95317 8.18517C9.57414 8.18517 9.3169 8.18257 9.15751 8.1791V5.86384V5.8634Z" fill="#498FD0"/>
<path d="M14.3494 13.5698C14.3328 13.5698 14.3165 13.5694 14.2999 13.5685C14.2858 13.5681 14.2717 13.5677 14.2576 13.5677H12.3556V13.5655C12.3556 13.5655 11.039 13.5655 10.6326 13.5655C10.5954 13.5655 10.5493 13.5655 10.5023 13.5581C10.3963 13.5421 10.3036 13.4814 10.2485 13.3921C10.1933 13.3033 10.1801 13.1932 10.2117 13.0905C10.2258 13.0441 10.2476 13.0021 10.269 12.9639C10.4322 12.6701 10.5959 12.3762 10.7595 12.0828C10.9428 11.7538 11.1262 11.4249 11.3091 11.0955C11.4851 10.7791 11.6603 10.4619 11.8359 10.145L12.0752 9.71293C12.0829 9.69862 12.0906 9.68432 12.0983 9.67002C12.1167 9.63491 12.1359 9.59894 12.1594 9.5634C12.2325 9.45461 12.3427 9.3922 12.4624 9.3922C12.5607 9.3922 12.6555 9.43511 12.7295 9.51313C12.7833 9.5699 12.8226 9.63578 12.8508 9.68692C13.1017 10.1385 13.3521 10.5906 13.6025 11.0426C13.7819 11.3668 13.9618 11.691 14.1413 12.0148C14.2443 12.2003 14.3477 12.3853 14.4516 12.5704C14.5221 12.6965 14.5926 12.8222 14.6631 12.9483C14.6802 12.9791 14.6998 13.0159 14.7152 13.0571C14.7592 13.1737 14.7507 13.2968 14.6917 13.3939C14.6327 13.4909 14.5293 13.5542 14.4071 13.5672C14.3896 13.569 14.3712 13.5698 14.3499 13.5698H14.3494ZM13.7213 12.8131C13.4828 12.358 12.7299 10.9988 12.4654 10.5451C12.4205 10.6253 12.3761 10.705 12.3316 10.7847C12.1667 11.0799 11.9962 11.385 11.8312 11.6845C11.753 11.8262 11.674 11.9675 11.5945 12.1088C11.4655 12.3385 11.333 12.5747 11.2061 12.8135H13.7213V12.8131Z" fill="#498FD0"/>
<path d="M12.462 9.50056C12.5286 9.50056 12.5961 9.52916 12.6521 9.58811C12.694 9.63231 12.7278 9.68606 12.7577 9.74023C13.1884 10.5156 13.6179 11.2923 14.0482 12.0681C14.2212 12.3797 14.396 12.6904 14.5699 13.0016C14.587 13.032 14.6033 13.0632 14.6152 13.0957C14.6823 13.2734 14.5823 13.4394 14.3956 13.4593C14.3802 13.461 14.3648 13.4615 14.3494 13.4615C14.3191 13.4615 14.2883 13.4593 14.2576 13.4593C13.8986 13.4593 13.5392 13.4593 13.1803 13.4593C12.941 13.4593 12.7017 13.4593 12.4624 13.4593V13.4571C12.238 13.4571 12.0141 13.4571 11.7898 13.4571C11.4039 13.4571 11.0185 13.4571 10.6326 13.4571C10.5942 13.4571 10.5557 13.4571 10.5177 13.4511C10.3608 13.4272 10.266 13.276 10.313 13.123C10.3241 13.0861 10.3425 13.051 10.3613 13.0177C10.7078 12.3949 11.0552 11.7721 11.4014 11.1492C11.6573 10.6885 11.912 10.2274 12.1675 9.76667C12.194 9.71943 12.2171 9.66959 12.247 9.62495C12.3017 9.54347 12.3808 9.50143 12.4615 9.50143M11.0279 12.9223H13.8931C13.8657 12.8248 12.5534 10.4528 12.4598 10.334C12.215 10.7735 11.974 11.2017 11.7372 11.6325C11.5014 12.0607 11.2544 12.4828 11.0279 12.9227M12.4615 9.28515C12.306 9.28515 12.1633 9.3649 12.0701 9.50359C12.0432 9.5439 12.0218 9.58464 12.003 9.62061C11.9958 9.63405 11.9885 9.64792 11.9812 9.66135L11.7454 10.0874C11.5689 10.4064 11.3924 10.7249 11.2155 11.0435C11.0356 11.3668 10.8557 11.6901 10.6758 12.013C10.5091 12.3125 10.342 12.612 10.1754 12.9119C10.151 12.9553 10.1267 13.0034 10.1091 13.0593C10.0681 13.1923 10.0856 13.3349 10.1574 13.4506C10.2292 13.5668 10.3493 13.6457 10.486 13.6665C10.5369 13.6743 10.5843 13.6747 10.6322 13.6747C11.0181 13.6747 11.4035 13.6747 11.7894 13.6747H12.1257H12.2487L12.462 13.6769H12.8209H13.1799H14.2571C14.2699 13.6769 14.2828 13.6773 14.296 13.6777C14.314 13.6782 14.3315 13.679 14.349 13.679C14.3738 13.679 14.396 13.6777 14.4174 13.6756C14.5729 13.6591 14.7058 13.5772 14.7819 13.4515C14.8584 13.3254 14.8703 13.1676 14.8143 13.0194C14.7964 12.9717 14.7746 12.9301 14.7554 12.8959C14.6853 12.7702 14.6148 12.6445 14.5443 12.5184C14.4404 12.3333 14.337 12.1482 14.2341 11.9623C14.0542 11.6377 13.8743 11.3135 13.6943 10.9889C13.4444 10.5373 13.194 10.0857 12.9431 9.63448C12.9115 9.5777 12.8675 9.50446 12.8055 9.43901C12.7115 9.33933 12.5893 9.28472 12.4611 9.28472L12.4615 9.28515ZM11.3855 12.706C11.4851 12.5223 11.5872 12.3407 11.6872 12.1626C11.765 12.0239 11.8458 11.8804 11.924 11.7382C12.0881 11.4401 12.2581 11.1358 12.4226 10.8415C12.4372 10.8151 12.4521 10.7891 12.4667 10.7626C12.7478 11.2537 13.2798 12.215 13.5427 12.7056H11.386L11.3855 12.706Z" fill="#498FD0"/>
<path d="M7.90631 13.5898C7.35892 13.5898 6.82135 13.3614 6.43206 12.9631C6.04021 12.5622 5.82655 12.0304 5.83125 11.4661C5.84065 10.318 6.77434 9.37877 7.91187 9.37227H7.92255C8.4661 9.37227 9.00153 9.60024 9.39124 9.99768C9.78395 10.3981 9.99034 10.9221 9.98735 11.5133C9.98179 12.6744 9.07075 13.5863 7.91357 13.5898H7.90588H7.90631ZM7.9093 10.168C7.13372 10.1736 6.61495 10.8398 6.61709 11.4587C6.61965 12.2089 7.18927 12.7966 7.91357 12.7966H7.92084C8.62848 12.7927 9.2045 12.2111 9.20536 11.5003C9.20536 11.1328 9.06733 10.7925 8.81607 10.5429C8.57592 10.3045 8.24731 10.1676 7.914 10.1676H7.90973L7.9093 10.168Z" fill="#498FD0"/>
<path d="M7.92255 9.50229C8.87803 9.50229 9.86556 10.2694 9.85958 11.5124C9.85445 12.6068 8.98144 13.4563 7.91357 13.4593C7.91144 13.4593 7.90887 13.4593 7.90631 13.4593C6.84998 13.4593 5.95047 12.583 5.95945 11.4669C5.96842 10.3886 6.85254 9.50793 7.91272 9.50229C7.91614 9.50229 7.91913 9.50229 7.92255 9.50229ZM7.91315 12.9267C7.91571 12.9267 7.91828 12.9267 7.92127 12.9267C8.69471 12.9223 9.33227 12.2809 9.33313 11.5007C9.33398 10.6504 8.6648 10.038 7.91357 10.038C7.91187 10.038 7.91058 10.038 7.90887 10.038C7.08372 10.0441 6.48633 10.7488 6.4889 11.4591C6.49189 12.29 7.13201 12.9267 7.91357 12.9267M7.92298 9.24225H7.91187C6.70469 9.24875 5.71374 10.246 5.70391 11.4648C5.69878 12.0642 5.92526 12.6285 6.3419 13.0545C6.75511 13.4771 7.32558 13.7198 7.90716 13.7198H7.91528C8.50114 13.7181 9.05195 13.4914 9.46517 13.0814C9.88266 12.6675 10.1138 12.1105 10.1168 11.5142C10.1198 10.8966 9.89505 10.3258 9.48311 9.90623C9.06904 9.48452 8.50071 9.24225 7.9234 9.24225H7.92298ZM7.91357 12.6666C7.26063 12.6666 6.74785 12.1357 6.74529 11.4583C6.74358 10.9018 7.21149 10.3028 7.91101 10.298H7.914C8.21398 10.298 8.51011 10.4211 8.72633 10.6361C8.95281 10.861 9.07716 11.1679 9.07716 11.5003C9.07673 12.14 8.55754 12.6631 7.92041 12.6666H7.914H7.91357Z" fill="#498FD0"/>
</g>
<defs>
<clipPath id="clip0_1800_675">
<rect width="17" height="17" fill="white" transform="translate(1 2)"/>
</clipPath>
</defs>
</svg>
