<svg width="20" height="20" viewBox="0 0 20 20" fill="none" xmlns="http://www.w3.org/2000/svg">
<path d="M0 2C0 0.895431 0.895431 0 2 0H18C19.1046 0 20 0.895431 20 2V18C20 19.1046 19.1046 20 18 20H2C0.895431 20 0 19.1046 0 18V2Z" fill="white"/>
<path d="M2 15.5139C2.18812 15.0323 2.37624 14.5507 2.56436 14.0702C2.59031 14.0041 2.6141 13.9356 2.64545 13.8718C2.74383 13.6733 2.95033 13.5944 3.13737 13.6791C3.32441 13.7639 3.41631 13.9762 3.34604 14.1898C3.27576 14.4021 3.19359 14.6099 3.1071 14.8466C3.5374 14.6563 3.94283 14.481 4.34502 14.2942C4.37854 14.2791 4.40016 14.1956 4.40124 14.1433C4.40449 12.8459 4.40341 11.5497 4.40341 10.2523C4.40341 9.5699 4.40341 8.8887 4.40341 8.20634C4.40341 7.88488 4.46936 7.78857 4.75478 7.676C6.32245 7.06327 7.88905 6.44937 9.4578 5.84244C9.5843 5.7937 9.63079 5.73336 9.62538 5.58366C9.61241 5.21115 9.62106 4.83863 9.62106 4.43363C9.44266 4.61466 9.29563 4.78641 9.12805 4.93031C8.90101 5.12527 8.56909 5.0011 8.5226 4.69705C8.5053 4.58217 8.54531 4.41738 8.61774 4.33498C8.98101 3.91953 9.3605 3.52033 9.74106 3.12229C9.89567 2.95982 10.1022 2.95866 10.2589 3.12229C10.6395 3.52033 11.0147 3.92302 11.3866 4.3315C11.5412 4.50093 11.5347 4.72026 11.3909 4.88853C11.2525 5.051 11.0374 5.07769 10.873 4.93147C10.7076 4.78409 10.5584 4.61582 10.3789 4.43363C10.3789 4.87809 10.3746 5.2889 10.3844 5.70087C10.3844 5.74496 10.4622 5.80415 10.5141 5.82504C11.5055 6.21728 12.4991 6.60372 13.4916 6.99248C14.0808 7.22341 14.67 7.45319 15.2582 7.68412C15.5317 7.79089 15.5977 7.88953 15.5977 8.20518C15.5977 10.1733 15.5988 12.1404 15.5944 14.1085C15.5944 14.235 15.6279 14.2954 15.7361 14.3406C16.1155 14.4996 16.4907 14.669 16.8961 14.8466C16.8172 14.6365 16.7469 14.4532 16.6777 14.2698C16.5794 14.0052 16.6507 13.7755 16.8615 13.6803C17.0735 13.5851 17.281 13.6861 17.3859 13.9472C17.5935 14.4683 17.7957 14.9916 18 15.5139V15.7146C17.9135 15.8133 17.8443 15.9525 17.7384 16.0036C17.2756 16.2264 16.8042 16.4306 16.3307 16.6256C16.2377 16.6639 16.1123 16.6639 16.0161 16.6337C15.8636 16.5861 15.788 16.4457 15.7826 16.274C15.7771 16.0941 15.8572 15.9606 16.0064 15.8864C16.1912 15.7947 16.3804 15.7146 16.5988 15.6148C16.1318 15.4059 15.6993 15.2098 15.2636 15.0218C15.2236 15.0044 15.162 15.0253 15.1155 15.0427C13.4948 15.6763 11.8731 16.3088 10.2546 16.9482C10.0784 17.0178 9.91837 17.0167 9.74431 16.9482C8.12474 16.31 6.50409 15.6763 4.88236 15.045C4.82181 15.0218 4.73748 15.0218 4.67694 15.0474C4.29637 15.2087 3.91905 15.3792 3.54064 15.5487C3.50172 15.5661 3.46496 15.5905 3.41091 15.6206C3.61092 15.7123 3.78931 15.7866 3.96121 15.8759C4.03257 15.9131 4.10284 15.9723 4.1515 16.0396C4.25204 16.1788 4.23583 16.3773 4.12987 16.52C4.025 16.6627 3.84337 16.7103 3.66282 16.6314C3.23143 16.4422 2.8033 16.2415 2.36867 16.0593C2.20542 15.9897 2.07136 15.8957 2 15.7146C2 15.6473 2 15.5812 2 15.5139ZM5.18076 13.9078C5.2186 13.8927 5.23806 13.8857 5.25644 13.8776C6.67707 13.2625 8.09771 12.6463 9.52051 12.0348C9.60484 11.9988 9.6243 11.95 9.62322 11.8607C9.61889 11.5091 9.61781 11.1563 9.62538 10.8046C9.62754 10.6932 9.58646 10.6526 9.4978 10.6143C8.28151 10.0898 7.06737 9.56177 5.85323 9.03492C5.63484 8.94092 5.41645 8.84924 5.18076 8.74944V13.9066V13.9078ZM14.8171 8.76337C14.7738 8.77613 14.7446 8.78193 14.7165 8.79354C13.3045 9.40395 11.8936 10.0155 10.4806 10.6236C10.3984 10.6596 10.3757 10.7072 10.3768 10.7988C10.3822 11.1447 10.3854 11.4916 10.3768 11.8375C10.3735 11.9605 10.4157 12.0104 10.5173 12.0545C11.6417 12.5372 12.7651 13.0246 13.8884 13.512C14.1943 13.6443 14.5003 13.7755 14.816 13.9124V8.76337H14.8171ZM9.61781 12.8854C8.35286 13.4366 7.10845 13.9774 5.83485 14.5321C7.10953 15.0299 8.35719 15.5173 9.61781 16.0105V12.8854ZM14.1662 14.5321C12.8926 13.9774 11.6461 13.4354 10.3865 12.8865V16.0094C11.6482 15.5162 12.8959 15.0288 14.1662 14.5321ZM10.3822 9.77762C11.6439 9.23104 12.8861 8.69258 14.1684 8.13671C12.8807 7.63306 11.6363 7.14682 10.3822 6.6571V9.77762ZM5.83377 8.13671C7.11926 8.69374 8.36475 9.23336 9.61673 9.7753V6.6571C8.36259 7.14682 7.11926 7.63306 5.83377 8.13671Z" fill="#498FD0"/>
</svg>
