<svg width="20" height="20" viewBox="0 0 20 20" fill="none" xmlns="http://www.w3.org/2000/svg">
<rect width="20" height="20" rx="2" fill="#FBFEFE"/>
<path d="M6.66667 6.66667H5.33333C4.97971 6.66667 4.64057 6.80714 4.39052 7.05719C4.14048 7.30724 4 7.64638 4 8V13.3333H5.33333V10.6667H6.66667V13.3333H8V8C8 7.64638 7.85952 7.30724 7.60948 7.05719C7.35943 6.80714 7.02029 6.66667 6.66667 6.66667ZM6.66667 9.33333H5.33333V8H6.66667M11.3333 6.66667H8.66667V13.3333H10V10.6667H11.3333C11.687 10.6667 12.0261 10.5262 12.2761 10.2761C12.5262 10.0261 12.6667 9.68695 12.6667 9.33333V8C12.6667 7.64638 12.5262 7.30724 12.2761 7.05719C12.0261 6.80714 11.687 6.66667 11.3333 6.66667ZM11.3333 9.33333H10V8H11.3333M15.3333 8V12H16V13.3333H13.3333V12H14V8H13.3333V6.66667H16V8H15.3333Z" fill="#498FD0"/>
</svg>
