<svg width="20" height="20" viewBox="0 0 20 20" fill="none" xmlns="http://www.w3.org/2000/svg">
<rect width="20" height="20" rx="2" fill="white"/>
<path d="M7.93 5.55L4.39 9.1C3.89 9.6 3.89 10.4 4.39 10.9L7.93 14.45L6.99 15.39L3.45 11.84C2.43 10.82 2.43 9.18 3.45 8.16L6.99 4.61L7.93 5.55Z" fill="#498FD0"/>
<path d="M12.07 5.55L15.61 9.1C16.11 9.6 16.11 10.4 15.61 10.9L12.07 14.45L13.01 15.39L16.55 11.84C17.57 10.82 17.57 9.18 16.55 8.16L13.01 4.61L12.07 5.55Z" fill="#498FD0"/>
<path d="M11.25 4L9.99 4L8.75 16H10.01L11.25 4Z" fill="#498FD0"/>
</svg>
