<svg width="20" height="20" viewBox="0 0 20 20" fill="none" xmlns="http://www.w3.org/2000/svg">
<path d="M0 2C0 0.895431 0.895431 0 2 0H18C19.1046 0 20 0.895431 20 2V18C20 19.1046 19.1046 20 18 20H2C0.895431 20 0 19.1046 0 18V2Z" fill="white"/>
<path d="M4.00035 9.99204C4.00035 7.64618 4.00071 5.30067 4 2.9548C4 2.73237 4.01774 2.51668 4.16219 2.33227C4.34389 2.1006 4.58415 2.00111 4.87481 2.00288C5.41318 2.00572 5.9512 2.00359 6.48957 2.00359C8.38825 2.00359 10.2869 2.0075 12.1856 2.00039C12.5401 1.99897 12.8166 2.11019 13.0679 2.3678C13.9306 3.25434 14.8058 4.12916 15.6849 4.99935C15.9028 5.21503 16.0004 5.45701 16.0004 5.75904C15.9975 9.53225 15.9989 13.3055 15.9982 17.0787C15.9982 17.687 15.6849 17.9997 15.0766 17.9997C11.6934 18.0004 8.30982 18.0004 4.92663 17.9997C4.30911 17.9997 4.00106 17.6881 4.00106 17.0645C4 14.7069 4.00035 12.3493 4.00035 9.99204ZM4.53269 10.0031C4.53269 12.3603 4.53269 14.7175 4.53269 17.0748C4.53269 17.3843 4.61397 17.4663 4.92095 17.4663C8.30982 17.4667 11.6987 17.4667 15.0876 17.4663C15.3775 17.4663 15.4648 17.3821 15.4648 17.0993C15.4655 13.3563 15.4648 9.61291 15.468 5.8699C15.468 5.73026 15.4286 5.68726 15.2881 5.68868C14.5904 5.69508 13.8923 5.69259 13.1946 5.69117C12.6204 5.69011 12.3169 5.38701 12.3155 4.81352C12.3141 4.13235 12.3155 3.45119 12.3151 2.77003C12.3151 2.61464 12.239 2.53682 12.0866 2.53658C9.71484 2.53658 7.34345 2.53658 4.9717 2.53658C4.59338 2.53658 4.53234 2.59876 4.53234 2.98429C4.53234 5.32376 4.53234 7.66323 4.53234 10.0027L4.53269 10.0031ZM12.8588 2.99744C12.861 2.98962 12.85 3.01094 12.85 3.03191C12.8489 3.65373 12.8461 4.27555 12.851 4.89737C12.8525 5.07006 12.9444 5.15534 13.1236 5.15641C13.7386 5.15996 14.3537 5.15783 14.9687 5.15641C14.99 5.15641 15.0113 5.14681 15.0081 5.14752C14.2926 4.43154 13.5732 3.712 12.8588 2.99709V2.99744Z" fill="#498FD0" stroke="#498FD0" stroke-width="0.5"/>
<path d="M8.07635 15.814C6.62839 15.8019 5.71099 14.2151 6.43462 12.9291C6.62307 12.5944 6.84949 12.2814 7.06136 11.9602C7.60186 11.1393 8.15053 10.3239 8.68357 9.49809C9.14458 8.78389 9.92996 8.84181 10.353 9.20992C10.7192 9.5283 10.8371 10.1292 10.5752 10.5385C9.95303 11.5107 9.31315 12.4718 8.68038 13.4372C8.5764 13.5957 8.47419 13.7553 8.36807 13.912C8.2499 14.0861 8.09836 14.1365 7.96598 14.0505C7.8187 13.955 7.79918 13.8036 7.92233 13.6163C8.62466 12.5479 9.32983 11.4812 10.0318 10.4123C10.0861 10.3296 10.1393 10.2386 10.1628 10.1437C10.2284 9.87865 10.0918 9.61606 9.85153 9.51408C9.61268 9.41246 9.3348 9.49241 9.17865 9.72266C8.89012 10.1494 8.6094 10.5811 8.32549 11.0111C7.86235 11.7125 7.39176 12.4093 6.93786 13.1167C6.34944 14.0338 6.96767 15.2324 8.0547 15.2757C8.60692 15.2977 9.0296 15.043 9.33303 14.5807C10.0936 13.4227 10.8576 12.2672 11.6207 11.1109C11.9142 10.6661 12.2119 10.2244 12.5001 9.77596C12.9217 9.11967 12.8195 8.36105 12.2534 7.88704C11.6523 7.3839 10.7941 7.45887 10.2852 8.05973C10.2508 8.10024 10.2213 8.14537 10.1858 8.18481C10.0701 8.31415 9.93351 8.33227 9.8093 8.23704C9.69857 8.15212 9.67337 8.00679 9.76351 7.87105C9.98994 7.52994 10.2994 7.28512 10.6823 7.1469C11.4879 6.85589 12.3475 7.09324 12.8646 7.73603C13.3997 8.40156 13.4445 9.29733 12.9593 10.0428C12.2361 11.1543 11.5011 12.2583 10.7707 13.3651C10.4382 13.8693 10.1063 14.3739 9.77274 14.877C9.37455 15.4772 8.82092 15.8002 8.07742 15.814H8.07635Z" fill="#498FD0" stroke="#498FD0" stroke-width="0.5"/>
</svg>
