<svg width="20" height="20" viewBox="0 0 20 20" fill="none" xmlns="http://www.w3.org/2000/svg">
<path d="M0 2C0 0.895431 0.895431 0 2 0H18C19.1046 0 20 0.895431 20 2V18C20 19.1046 19.1046 20 18 20H2C0.895431 20 0 19.1046 0 18V2Z" fill="white"/>
<path d="M17.9991 10.0255C17.9991 11.8781 18.0012 13.7314 17.998 15.584C17.9965 16.7107 17.3058 17.6176 16.2176 17.9128C16.0118 17.9689 15.7909 17.9943 15.5773 17.9943C11.8631 17.999 8.14841 17.999 4.43421 17.9969C3.04457 17.9964 2.0026 16.9576 2.00156 15.57C1.99948 11.8558 1.99948 8.14108 2.00156 4.42688C2.00312 3.04192 3.04665 2.00202 4.43629 2.00098C8.14166 1.99942 11.8475 1.99994 15.5534 2.00098C16.9597 2.00098 17.9975 3.03724 17.9991 4.44091C18.0012 6.30243 17.9991 8.16395 17.9991 10.0255ZM11.8928 13.1342C12.8349 12.3511 13.7647 11.5783 14.7027 10.7982C15.4838 11.4478 16.2514 12.0865 17.0595 12.759C17.0595 12.6644 17.0595 12.6244 17.0595 12.5844C17.0595 9.89191 17.061 7.19993 17.0574 4.50743C17.0558 3.53354 16.4837 2.94733 15.5124 2.94577C11.8153 2.93902 8.11879 2.93954 4.42174 2.94162C3.5653 2.94162 2.94375 3.56108 2.94219 4.41649C2.93803 7.03103 2.94063 9.64558 2.94115 12.2606C2.94115 12.3329 2.95207 12.4046 2.96142 12.5189C4.21854 11.1236 5.44292 9.76406 6.67718 8.39417C8.4306 9.98805 10.158 11.558 11.8928 13.1348V13.1342ZM6.74058 9.72405C5.49178 11.1163 4.25544 12.4924 3.0243 13.8732C2.97389 13.9294 2.94895 14.0265 2.94791 14.1055C2.94063 14.5644 2.93803 15.0233 2.94479 15.4817C2.95882 16.4841 3.51177 17.0516 4.50593 17.0537C8.20246 17.0605 11.8985 17.061 15.595 17.0568C16.4374 17.0558 17.0439 16.44 17.0584 15.5934C17.0662 15.1174 17.0647 14.6413 17.0558 14.1653C17.0543 14.0811 17.0226 13.9688 16.9633 13.9184C16.2145 13.2818 15.4583 12.654 14.7011 12.0216C13.7496 12.8141 12.8136 13.5936 11.8663 14.3825C10.1544 12.8266 8.45399 11.281 6.74058 9.72405Z" fill="#629ED7" stroke="#629ED7" stroke-width="0.2"/>
<path d="M13.2841 9.05989C11.9849 9.05833 10.9382 8.00024 10.9403 6.69011C10.9418 5.42312 11.9942 4.36763 13.2721 4.35152C14.563 4.33541 15.6648 5.43767 15.6486 6.72805C15.6325 8.01739 14.5739 9.06145 13.2841 9.05989ZM14.6909 6.71558C14.6966 5.93397 14.087 5.3145 13.308 5.30931C12.5243 5.30411 11.8908 5.91214 11.8794 6.6818C11.8674 7.46133 12.5009 8.11717 13.2706 8.12133C14.062 8.12549 14.6852 7.50914 14.6909 6.7161V6.71558Z" fill="#629ED7" stroke="#629ED7" stroke-width="0.2"/>
</svg>
