<svg width="20" height="20" viewBox="0 0 20 20" fill="none" xmlns="http://www.w3.org/2000/svg">
<rect width="20" height="20" rx="2" fill="#FBFEFE"/>
<g clip-path="url(#clip0_490_510)">
<path d="M10.0008 18C5.57649 18 1.99998 14.4251 1.99998 10.0008C1.99998 5.57649 5.57649 1.99998 10.0008 1.99998C14.4251 1.99998 18 5.57649 18 10.0008C18 14.4251 14.4251 18 10.0008 18Z" fill="#DE5833"/>
<path d="M17.3475 10.0008C17.3475 11.0005 17.1605 11.9602 16.7733 12.8664C16.4012 13.7342 15.8805 14.5203 15.2012 15.2012C14.5336 15.8671 13.7476 16.4012 12.8664 16.7733C11.9602 17.1472 11.0005 17.3475 10.0008 17.3475C8.99949 17.3475 8.03985 17.1605 7.13363 16.7733C6.26578 16.4012 5.47972 15.8805 4.7988 15.2012C4.1329 14.5336 3.59884 13.7476 3.22667 12.8664C2.85283 11.9602 2.65256 10.9872 2.65256 10.0008C2.65256 8.99948 2.83948 8.03985 3.22667 7.13362C3.59884 6.26578 4.11954 5.47971 4.7988 4.79879C5.46637 4.13289 6.25243 3.59883 7.13363 3.22666C8.03985 2.85282 8.99949 2.65255 10.0008 2.65255C11.0005 2.65255 11.9602 2.83947 12.8664 3.22666C13.7342 3.59883 14.5203 4.11954 15.2012 4.79879C15.8671 5.46636 16.4012 6.25243 16.7733 7.13362C17.1605 8.03985 17.3475 8.99948 17.3475 10.0008ZM16.7867 9.98748C16.7867 6.22572 13.7476 3.18661 9.98749 3.18661C6.22573 3.18661 3.18661 6.23907 3.18661 9.98748C3.18661 12.9331 5.06583 15.4399 7.67936 16.3878C7.3339 14.9342 6.34589 10.7735 6.11892 8.44039C5.96037 6.78648 6.85325 5.89361 8.57391 5.66663C7.82623 5.42631 6.50611 5.49306 6.50611 5.49306C6.53281 5.03912 7.20038 4.94566 7.20038 4.94566C6.85325 4.77376 6.54616 4.6803 6.54616 4.6803C8.38699 4.42662 9.54689 5.05247 10.0392 5.70669C12.0403 6.18567 12.3607 8.48044 12.3607 9.13299C12.3607 11.88 10.0526 8.93272 10.0526 12.374C10.0526 13.8677 11.1741 15.8805 11.5997 16.5998C14.5737 15.8805 16.7867 13.2002 16.7867 9.98748Z" fill="white"/>
<path d="M9.627 11.1073C9.627 10.2261 10.827 9.94743 11.2809 9.94743C12.5076 9.94743 14.2399 9.1597 14.6672 9.17305C15.1078 9.1864 15.3865 9.35997 15.3865 9.56024C15.3865 9.85397 12.9331 10.9605 11.9869 10.867C11.0806 10.7869 10.867 10.8804 10.867 11.2542C10.867 11.573 11.5196 11.8667 12.2405 11.8667C13.3203 11.8667 14.3734 11.386 14.6939 11.613C14.9742 11.8133 13.9595 12.5343 12.7996 12.5343C11.6397 12.5343 9.627 11.9869 9.627 11.1073Z" fill="#FED30A"/>
<path d="M11.7599 7.37394C11.4395 6.96005 10.867 6.9467 10.6667 7.42568C10.9738 7.18702 11.346 7.13362 11.7599 7.37394ZM8.18672 7.38729C7.74612 7.12026 7.01346 7.09356 7.05352 7.93303C7.28049 7.41233 7.57255 7.32054 8.18672 7.38729ZM11.9335 8.6006C11.9335 8.83926 11.7332 9.03953 11.4929 9.03953C11.2542 9.03953 11.0539 8.83926 11.0539 8.6006C11.0539 8.36028 11.2542 8.16001 11.4929 8.16001C11.7332 8.16001 11.9335 8.36028 11.9335 8.6006ZM11.7866 8.42703C11.7866 8.34693 11.7332 8.29352 11.6531 8.29352C11.573 8.29352 11.5196 8.36028 11.5196 8.42703C11.5196 8.50714 11.5863 8.56055 11.6531 8.56055C11.7198 8.56055 11.7732 8.50714 11.7866 8.42703ZM8.58726 8.90602C8.58726 9.1864 8.36029 9.41337 8.07991 9.41337C7.79953 9.41337 7.57255 9.1864 7.57255 8.90602C7.57255 8.62731 7.79953 8.40033 8.07991 8.40033C8.36029 8.40033 8.58726 8.62731 8.58726 8.90602ZM8.41369 8.7191C8.41369 8.63899 8.34694 8.5739 8.26683 8.5739C8.18505 8.5739 8.11996 8.63899 8.11996 8.7191C8.11996 8.80087 8.18505 8.86596 8.26683 8.86596C8.34694 8.86596 8.41369 8.80087 8.41369 8.7191Z" fill="#2D4F8D"/>
<path d="M6.35923 8.0532C6.81318 11.346 7.83957 15.6401 8.0532 16.5213L7.69271 16.4012C7.34724 14.9475 6.35923 10.7735 6.13226 8.44039C6.04047 7.42568 6.33253 6.70637 6.9734 6.23908C6.57286 6.65297 6.23907 7.17367 6.35923 8.0532ZM6.51945 5.49307C6.51945 5.42631 6.54615 5.35955 6.57286 5.30615C6.86659 5.30615 7.95974 5.3195 8.65401 5.65328C8.65401 5.65328 8.61395 5.66663 8.56055 5.66663C7.79952 5.42631 6.5061 5.50642 6.51945 5.49307ZM7.17367 4.94566H7.20037C6.85324 4.77376 6.54615 4.6803 6.54615 4.6803C6.63961 4.66695 6.71972 4.66695 6.81318 4.65359C6.91999 4.707 7.09356 4.79879 7.30719 4.94566H7.17367Z" fill="#D5D7D8"/>
<path d="M12.7729 15.9606C12.5877 16.0273 11.6931 15.7069 11.2809 15.5467C11.2675 15.5734 11.2542 15.6001 11.2275 15.6134C11.0406 15.7336 10.5199 15.8004 10.2395 15.7336H10.2261C9.77386 15.9873 8.86596 16.4813 8.70741 16.3878C8.49379 16.2677 8.45374 14.6004 8.49379 14.1999C8.50714 13.8944 9.57359 14.3868 10.106 14.6405C10.3062 14.4268 11.1607 14.3467 11.2008 14.4802C11.2141 14.5069 11.2275 14.5603 11.2408 14.6271C11.573 14.3868 12.4542 13.7609 12.6795 13.8143C12.9598 13.8811 13.0132 15.8938 12.7729 15.9606Z" fill="#67BD47"/>
<path d="M11.2008 15.6268C11.1874 15.6935 11.1741 15.7336 11.134 15.7603C10.9204 15.8805 10.3997 15.9472 10.1193 15.8805C9.82727 15.8404 9.93409 15.5467 9.93409 14.8941C9.93409 14.8407 9.98749 14.7873 10.0526 14.7473C10.0526 15.3998 9.96079 15.6802 10.2395 15.7336C10.5065 15.8004 11.0005 15.7469 11.2008 15.6268Z" fill="#43A347"/>
</g>
<g clip-path="url(#clip1_490_510)">
<path d="M10.0008 18C5.57649 18 1.99998 14.4251 1.99998 10.0008C1.99998 5.57649 5.57649 1.99998 10.0008 1.99998C14.4251 1.99998 18 5.57649 18 10.0008C18 14.4251 14.4251 18 10.0008 18Z" fill="#DE5833"/>
<path d="M17.3475 10.0008C17.3475 11.0005 17.1605 11.9602 16.7733 12.8664C16.4012 13.7342 15.8805 14.5203 15.2012 15.2012C14.5336 15.8671 13.7476 16.4012 12.8664 16.7733C11.9602 17.1472 11.0005 17.3475 10.0008 17.3475C8.99949 17.3475 8.03985 17.1605 7.13363 16.7733C6.26578 16.4012 5.47972 15.8805 4.7988 15.2012C4.1329 14.5336 3.59884 13.7476 3.22667 12.8664C2.85283 11.9602 2.65256 10.9872 2.65256 10.0008C2.65256 8.99948 2.83948 8.03985 3.22667 7.13362C3.59884 6.26578 4.11954 5.47971 4.7988 4.79879C5.46637 4.13289 6.25243 3.59883 7.13363 3.22666C8.03985 2.85282 8.99949 2.65255 10.0008 2.65255C11.0005 2.65255 11.9602 2.83947 12.8664 3.22666C13.7342 3.59883 14.5203 4.11954 15.2012 4.79879C15.8671 5.46636 16.4012 6.25243 16.7733 7.13362C17.1605 8.03985 17.3475 8.99948 17.3475 10.0008ZM16.7867 9.98748C16.7867 6.22572 13.7476 3.18661 9.98749 3.18661C6.22573 3.18661 3.18661 6.23907 3.18661 9.98748C3.18661 12.9331 5.06583 15.4399 7.67936 16.3878C7.3339 14.9342 6.34589 10.7735 6.11892 8.44039C5.96037 6.78648 6.85325 5.89361 8.57391 5.66663C7.82623 5.42631 6.50611 5.49306 6.50611 5.49306C6.53281 5.03912 7.20038 4.94566 7.20038 4.94566C6.85325 4.77376 6.54616 4.6803 6.54616 4.6803C8.38699 4.42662 9.54689 5.05247 10.0392 5.70669C12.0403 6.18567 12.3607 8.48044 12.3607 9.13299C12.3607 11.88 10.0526 8.93272 10.0526 12.374C10.0526 13.8677 11.1741 15.8805 11.5997 16.5998C14.5737 15.8805 16.7867 13.2002 16.7867 9.98748Z" fill="white"/>
<path d="M9.627 11.1073C9.627 10.2261 10.827 9.94743 11.2809 9.94743C12.5076 9.94743 14.2399 9.1597 14.6672 9.17305C15.1078 9.1864 15.3865 9.35997 15.3865 9.56024C15.3865 9.85397 12.9331 10.9605 11.9869 10.867C11.0806 10.7869 10.867 10.8804 10.867 11.2542C10.867 11.573 11.5196 11.8667 12.2405 11.8667C13.3203 11.8667 14.3734 11.386 14.6939 11.613C14.9742 11.8133 13.9595 12.5343 12.7996 12.5343C11.6397 12.5343 9.627 11.9869 9.627 11.1073Z" fill="#FED30A"/>
<path d="M11.7599 7.37394C11.4395 6.96005 10.867 6.9467 10.6667 7.42568C10.9738 7.18702 11.346 7.13362 11.7599 7.37394ZM8.18672 7.38729C7.74612 7.12026 7.01346 7.09356 7.05352 7.93303C7.28049 7.41233 7.57255 7.32054 8.18672 7.38729ZM11.9335 8.6006C11.9335 8.83926 11.7332 9.03953 11.4929 9.03953C11.2542 9.03953 11.0539 8.83926 11.0539 8.6006C11.0539 8.36028 11.2542 8.16001 11.4929 8.16001C11.7332 8.16001 11.9335 8.36028 11.9335 8.6006ZM11.7866 8.42703C11.7866 8.34693 11.7332 8.29352 11.6531 8.29352C11.573 8.29352 11.5196 8.36028 11.5196 8.42703C11.5196 8.50714 11.5863 8.56055 11.6531 8.56055C11.7198 8.56055 11.7732 8.50714 11.7866 8.42703ZM8.58726 8.90602C8.58726 9.1864 8.36029 9.41337 8.07991 9.41337C7.79953 9.41337 7.57255 9.1864 7.57255 8.90602C7.57255 8.62731 7.79953 8.40033 8.07991 8.40033C8.36029 8.40033 8.58726 8.62731 8.58726 8.90602ZM8.41369 8.7191C8.41369 8.63899 8.34694 8.5739 8.26683 8.5739C8.18505 8.5739 8.11996 8.63899 8.11996 8.7191C8.11996 8.80087 8.18505 8.86596 8.26683 8.86596C8.34694 8.86596 8.41369 8.80087 8.41369 8.7191Z" fill="#2D4F8D"/>
<path d="M6.35923 8.0532C6.81318 11.346 7.83957 15.6401 8.0532 16.5213L7.69271 16.4012C7.34724 14.9475 6.35923 10.7735 6.13226 8.44039C6.04047 7.42568 6.33253 6.70637 6.9734 6.23908C6.57286 6.65297 6.23907 7.17367 6.35923 8.0532ZM6.51945 5.49307C6.51945 5.42631 6.54615 5.35955 6.57286 5.30615C6.86659 5.30615 7.95974 5.3195 8.65401 5.65328C8.65401 5.65328 8.61395 5.66663 8.56055 5.66663C7.79952 5.42631 6.5061 5.50642 6.51945 5.49307ZM7.17367 4.94566H7.20037C6.85324 4.77376 6.54615 4.6803 6.54615 4.6803C6.63961 4.66695 6.71972 4.66695 6.81318 4.65359C6.91999 4.707 7.09356 4.79879 7.30719 4.94566H7.17367Z" fill="#D5D7D8"/>
<path d="M12.7729 15.9606C12.5877 16.0273 11.6931 15.7069 11.2809 15.5467C11.2675 15.5734 11.2542 15.6001 11.2275 15.6134C11.0406 15.7336 10.5199 15.8004 10.2395 15.7336H10.2261C9.77386 15.9873 8.86596 16.4813 8.70741 16.3878C8.49379 16.2677 8.45374 14.6004 8.49379 14.1999C8.50714 13.8944 9.57359 14.3868 10.106 14.6405C10.3062 14.4268 11.1607 14.3467 11.2008 14.4802C11.2141 14.5069 11.2275 14.5603 11.2408 14.6271C11.573 14.3868 12.4542 13.7609 12.6795 13.8143C12.9598 13.8811 13.0132 15.8938 12.7729 15.9606Z" fill="#67BD47"/>
<path d="M11.2008 15.6268C11.1874 15.6935 11.1741 15.7336 11.134 15.7603C10.9204 15.8805 10.3997 15.9472 10.1193 15.8805C9.82727 15.8404 9.93409 15.5467 9.93409 14.8941C9.93409 14.8407 9.98749 14.7873 10.0526 14.7473C10.0526 15.3998 9.96079 15.6802 10.2395 15.7336C10.5065 15.8004 11.0005 15.7469 11.2008 15.6268Z" fill="#43A347"/>
</g>
<defs>
<clipPath id="clip0_490_510">
<rect width="16" height="16" fill="white" transform="translate(2 2)"/>
</clipPath>
<clipPath id="clip1_490_510">
<rect width="16" height="16" fill="white" transform="translate(2 2)"/>
</clipPath>
</defs>
</svg>
