<svg width="20" height="20" viewBox="0 0 20 20" fill="none" xmlns="http://www.w3.org/2000/svg">
<path d="M0 2C0 0.895431 0.895431 0 2 0H18C19.1046 0 20 0.895431 20 2V18C20 19.1046 19.1046 20 18 20H2C0.895431 20 0 19.1046 0 18V2Z" fill="white"/>
<path d="M10.6693 10.6808V16.6515C10.7507 16.6559 10.8276 16.663 10.9051 16.6634C11.2736 16.6652 11.6426 16.6577 12.0111 16.6674C12.3748 16.6772 12.6442 16.9461 12.6584 17.2925C12.6725 17.6451 12.4363 17.93 12.0797 17.987C12.0217 17.9963 11.9625 17.9976 11.9036 17.9976C10.6352 17.9981 9.3672 18.0038 8.09878 17.991C7.92623 17.9892 7.73466 17.9246 7.58689 17.8326C7.36214 17.6924 7.28649 17.3947 7.35905 17.1439C7.43382 16.8864 7.66741 16.682 7.93818 16.6718C8.31379 16.6581 8.68985 16.6652 9.06591 16.6639C9.14555 16.6639 9.22518 16.6639 9.31942 16.6639V10.6755H3.34406C3.34052 10.7542 3.33433 10.8325 3.33389 10.9113C3.33079 11.2944 3.34052 11.6783 3.32416 12.061C3.31044 12.3773 3.04853 12.629 2.74237 12.656C2.41365 12.6847 2.119 12.4905 2.03405 12.1813C2.01105 12.0973 2.00175 12.007 2.00175 11.9194C1.99998 10.6365 1.9991 9.35366 2.00131 8.07078C2.00175 7.6952 2.21367 7.41253 2.52956 7.34882C2.93394 7.26743 3.31 7.54878 3.32769 7.96638C3.34362 8.33443 3.333 8.70337 3.33433 9.07187C3.33433 9.15105 3.33433 9.23068 3.33433 9.32181H9.31677V3.33429C8.91416 3.33429 8.51067 3.34136 8.10762 3.3303C7.96472 3.32632 7.81032 3.3042 7.68334 3.24448C7.42408 3.12239 7.3033 2.85033 7.34445 2.56146C7.38028 2.31063 7.58247 2.09122 7.84261 2.02884C7.9134 2.01159 7.98817 2.00186 8.06117 2.00186C9.35172 2.00009 10.6418 1.99876 11.9324 2.00186C12.3 2.00274 12.5721 2.20491 12.6456 2.51413C12.742 2.92111 12.4531 3.31305 12.027 3.32942C11.6589 3.34358 11.29 3.33384 10.921 3.33473C10.8422 3.33473 10.763 3.33473 10.6741 3.33473V9.31871H16.6641C16.6641 8.89536 16.6676 8.47688 16.6627 8.05883C16.6596 7.80358 16.7455 7.59434 16.9578 7.45101C17.1622 7.31299 17.3865 7.29486 17.6095 7.40058C17.8582 7.51914 17.9851 7.72838 17.9949 8.00044C18.0042 8.26542 17.998 8.53129 17.998 8.79671C17.998 9.84381 18.002 10.8905 17.9966 11.9376C17.9936 12.51 17.4529 12.8444 16.9906 12.5666C16.7618 12.429 16.6619 12.2202 16.6641 11.9553C16.6672 11.5363 16.665 11.117 16.665 10.6812H10.6693V10.6808Z" fill="#498FD0"/>
</svg>
