<svg width="20" height="20" viewBox="0 0 20 20" fill="none" xmlns="http://www.w3.org/2000/svg">
<rect width="20" height="20" rx="2" fill="#FBFEFE"/>
<g clip-path="url(#clip0_490_509)">
<path d="M13.875 10C13.8756 10.9119 13.5544 11.7947 12.9679 12.493C12.3814 13.1913 11.5673 13.6602 10.669 13.8171C9.77075 13.974 8.8459 13.8089 8.05743 13.3508C7.26895 12.8927 6.66744 12.171 6.35886 11.313L4.14246 13.086C4.83163 14.3961 5.93989 15.4375 7.29027 16.0439C8.64065 16.6503 10.1553 16.7868 11.5923 16.4315C13.0293 16.0762 14.3059 15.2497 15.2181 14.0839C16.1304 12.9181 16.6257 11.4803 16.625 10" fill="#00AC47"/>
<path d="M13.875 10C13.8745 10.6165 13.7267 11.224 13.4439 11.7718C13.1611 12.3196 12.7515 12.7919 12.2492 13.1494L14.4404 14.9023C15.1275 14.2837 15.677 13.5276 16.0533 12.6832C16.4297 11.8387 16.6244 10.9245 16.625 10" fill="#4285F4"/>
<path d="M6.125 10C6.12596 9.55208 6.2051 9.10776 6.35885 8.68705L4.14245 6.91395C3.63849 7.86454 3.375 8.92408 3.375 10C3.375 11.0759 3.63849 12.1355 4.14245 13.086L6.35885 11.3129C6.2051 10.8922 6.12596 10.4479 6.125 10Z" fill="#FFBA00"/>
<path d="M10 6.125C10.8199 6.12523 11.6184 6.38725 12.279 6.8729L14.309 4.97825C13.5554 4.32853 12.6649 3.85738 11.7038 3.59996C10.7427 3.34254 9.73582 3.3055 8.7584 3.4916C7.78097 3.6777 6.85819 4.08214 6.05893 4.67473C5.25966 5.26732 4.60454 6.03277 4.14246 6.91395L6.35886 8.68705C6.62916 7.93773 7.12366 7.28984 7.77513 6.83144C8.4266 6.37304 9.20343 6.12638 10 6.125Z" fill="#EA4435"/>
<path d="M16.625 9.5V10L15.5 11.75H10.25V9H16.125C16.2576 9 16.3848 9.05268 16.4786 9.14645C16.5723 9.24021 16.625 9.36739 16.625 9.5Z" fill="#4285F4"/>
</g>
<defs>
<clipPath id="clip0_490_509">
<rect width="16" height="16" fill="white" transform="translate(2 2)"/>
</clipPath>
</defs>
</svg>
