<svg width="20" height="20" viewBox="0 0 20 20" fill="none" xmlns="http://www.w3.org/2000/svg">
<path d="M0 2C0 0.895431 0.895431 0 2 0H18C19.1046 0 20 0.895431 20 2V18C20 19.1046 19.1046 20 18 20H2C0.895431 20 0 19.1046 0 18V2Z" fill="white"/>
<path d="M17 13.6954H15.1092V17.9593C13.5345 16.6003 12.0177 15.291 10.4516 13.9393V17.9905H9.54332V13.9918C7.97774 15.3463 6.46949 16.6516 4.91015 18V13.7043H3V6.78733H4.88233V2.07255C4.90447 2.06027 4.92661 2.048 4.94875 2.03516C6.45927 3.40193 7.96923 4.76926 9.53027 6.1818V2.0106H10.4379V6.20859C12.0126 4.78377 13.526 3.41365 15.0876 2V6.75831H16.9994V13.6954H17ZM9.53935 8.2674C9.4508 8.33102 9.41901 8.34944 9.39176 8.37399C8.23943 9.40144 7.08539 10.4267 5.94044 11.4625C5.8587 11.5362 5.80988 11.6846 5.80874 11.799C5.79966 13.1245 5.8025 14.4494 5.80363 15.7749C5.80363 15.8435 5.81442 15.9122 5.82407 16.0193C5.93476 15.9289 6.01366 15.8675 6.08973 15.8022C7.17281 14.8657 8.25305 13.9254 9.34124 12.995C9.49167 12.8661 9.54446 12.7344 9.54332 12.5424C9.53538 11.2264 9.53935 9.91043 9.53935 8.59444C9.53935 8.50515 9.53935 8.41585 9.53935 8.26851V8.2674ZM14.1708 15.963C14.1901 15.9021 14.2003 15.8848 14.2003 15.8681C14.2009 14.4874 14.2043 13.1061 14.1935 11.7253C14.193 11.6249 14.1135 11.5016 14.0335 11.429C12.9146 10.4205 11.7895 9.41875 10.6644 8.41697C10.6145 8.37288 10.5532 8.34051 10.4777 8.28972C10.4714 8.36339 10.4652 8.39967 10.4652 8.43538C10.4652 9.81611 10.4595 11.1974 10.4731 12.5781C10.4743 12.7015 10.5679 12.8544 10.6667 12.9409C11.7441 13.8841 12.8306 14.8172 13.9148 15.7526C13.9909 15.8179 14.0698 15.8798 14.1714 15.963H14.1708ZM4.89766 12.7997C4.89766 12.3393 4.90731 11.8961 4.89312 11.4541C4.88687 11.2593 4.95216 11.1299 5.09804 11.0009C6.26286 9.97126 7.42031 8.9332 8.58286 7.90129C8.65495 7.83766 8.75315 7.8025 8.83887 7.75395C8.81049 7.72995 8.78154 7.70595 8.75315 7.68196H3.90313V12.8002H4.89766V12.7997ZM11.2809 7.6747C11.2656 7.69535 11.2503 7.716 11.2349 7.73721C11.3155 7.79637 11.4018 7.84883 11.4756 7.91468C12.6172 8.92818 13.7542 9.9467 14.9008 10.9552C15.0564 11.0919 15.1205 11.2292 15.1137 11.4329C15.0989 11.8833 15.1092 12.3348 15.1092 12.7986H16.0963V7.6747H11.2809ZM14.1816 4.02086C13.161 4.94506 12.1812 5.83187 11.1651 6.75217H14.1816V4.02142V4.02086ZM5.81839 4.02309V6.74882H8.82922C7.81142 5.82741 6.83562 4.9445 5.81839 4.02309Z" fill="#20808D"/>
</svg>
