<svg width="20" height="20" viewBox="0 0 20 20" fill="none" xmlns="http://www.w3.org/2000/svg">
<g clip-path="url(#clip0_490_358)">
<path d="M20 0H0V20H20V0Z" fill="url(#paint0_linear_490_358)"/>
<path fill-rule="evenodd" clip-rule="evenodd" d="M13.5085 6.50839C13.5085 6.64839 13.3945 6.76239 13.2542 6.76239C13.1145 6.76239 13.0005 6.64839 13.0005 6.50839C13.0005 6.3684 13.1145 6.2544 13.2542 6.2544C13.3945 6.2544 13.5085 6.3684 13.5085 6.50839ZM12.0005 9.00011C12.0005 8.86236 12.1125 8.75011 12.2505 8.75011C12.3885 8.75011 12.5005 8.86236 12.5005 9.00011C12.5005 9.13786 12.3885 9.25011 12.2505 9.25011C12.1125 9.25011 12.0005 9.13786 12.0005 9.00011ZM12.0005 13.75C12.0005 13.6123 12.1125 13.5 12.2505 13.5C12.3885 13.5 12.5005 13.6123 12.5005 13.75C12.5005 13.8878 12.3885 14 12.2505 14C12.1125 14 12.0005 13.8878 12.0005 13.75ZM14.5005 10.5001C14.5005 10.6378 14.3885 10.7501 14.2505 10.7501C14.1125 10.7501 14.0005 10.6378 14.0005 10.5001C14.0005 10.3623 14.1125 10.2501 14.2505 10.2501C14.3885 10.2501 14.5005 10.3623 14.5005 10.5001ZM16.25 11.3181L14.9907 10.5956C14.9947 10.5641 15.0005 10.5328 15.0005 10.5001C15.0005 10.0866 14.664 9.7501 14.2505 9.7501C13.8367 9.7501 13.5005 10.0866 13.5005 10.5001C13.5005 10.9136 13.8367 11.2501 14.2505 11.2501C14.4502 11.2501 14.6307 11.1703 14.7652 11.0428L15.9715 11.7348L14.8887 12.2763C14.804 12.3188 14.7505 12.4053 14.7505 12.5001V14.6103L11.7457 16.4593L10.2507 15.605V14H11.5465C11.65 14.2903 11.925 14.5 12.2505 14.5C12.664 14.5 13.0005 14.1635 13.0005 13.75C13.0005 13.3363 12.664 13.0001 12.2505 13.0001C11.925 13.0001 11.65 13.2096 11.5465 13.5H10.2507V10.0001C10.2507 9.91235 10.2045 9.83085 10.1292 9.7856L8.879 9.03561L8.62175 9.46435L9.75075 10.1416V10.8768L8.2505 12.0308V11.0001C8.2505 10.9241 8.216 10.8521 8.15675 10.8048L7.0005 9.87985V8.63386L8.389 7.70813C8.45875 7.66163 8.5005 7.58363 8.5005 7.50013V6.00015H8.0005V7.36638L6.75325 8.19762L5.5005 7.36588V5.39366L6.7505 4.66467V6.75014H7.2505V4.37292L8.25125 3.78918L9.75025 4.65392L9.7505 7.75013C9.7505 7.83988 9.7985 7.92262 9.8765 7.96712L11.5105 8.90086C11.506 8.93361 11.5005 8.96611 11.5005 9.00011C11.5005 9.4136 11.8367 9.7501 12.2505 9.7501C12.664 9.7501 13.0005 9.4136 13.0005 9.00011C13.0005 8.58662 12.664 8.25012 12.2505 8.25012C12.052 8.25012 11.8725 8.32887 11.7382 8.45512L10.2505 7.60488L10.2502 4.65442L11.741 3.79418L14.5005 5.63391V6.25015H13.9627C13.8572 5.96115 13.5795 5.7544 13.2542 5.7544C12.8385 5.7544 12.5005 6.09265 12.5005 6.50839C12.5005 6.92414 12.8385 7.26238 13.2542 7.26238C13.5857 7.26238 13.8677 7.04764 13.9687 6.75014H14.5005V7.50013C14.5005 7.58988 14.5485 7.67263 14.6265 7.71713L16.25 8.64511V11.3181ZM8.255 16.4593L7.46675 15.9743L8.89575 14.9535L8.60525 14.5465L7.0045 15.6898L5.2505 14.6103V12.6416L6.379 11.9643L6.12175 11.5356L4.9895 12.2151L3.7505 11.5956L3.75025 10.1543L5.11225 9.4736L4.88875 9.02636L3.75025 9.59535L3.7505 8.64511L5.24075 7.79363L6.5005 8.62986V9.8701L5.11225 10.7918L5.38875 11.2083L6.7395 10.3113L7.7505 11.1201V12.4156L6.598 13.3018L6.90275 13.698L9.75075 11.5076V15.6048L8.255 16.4593ZM16.624 8.28312L15.0005 7.35513V5.50016C15.0005 5.41641 14.9587 5.33841 14.889 5.29216L11.889 3.29219C11.81 3.23969 11.708 3.23619 11.6255 3.28369L10.001 4.22117L8.3755 3.28369C8.2975 3.23869 8.20175 3.23869 8.1245 3.28419L5.1245 5.03416C5.0475 5.07891 5.0005 5.16116 5.0005 5.25016V7.35513L3.3765 8.28312C3.2985 8.32737 3.2505 8.41037 3.2505 8.50012V8.60436C3.25025 8.60961 3.25 8.61461 3.25 8.61986V11.3408C3.25 11.3458 3.25025 11.3508 3.2505 11.3556V11.7501C3.2505 11.8448 3.304 11.9313 3.38875 11.9736L4.7505 12.6546V14.75C4.7505 14.8368 4.79525 14.9173 4.86925 14.9628L8.11925 16.9628C8.1595 16.9875 8.205 17 8.2505 17C8.29325 17 8.336 16.989 8.3745 16.967L10.0007 16.038L11.6265 16.967C11.7052 17.0123 11.8032 17.0105 11.8815 16.9628L15.1315 14.9628C15.2055 14.9173 15.2505 14.8368 15.2505 14.75V12.6546L16.6117 11.9736C16.6965 11.9313 16.75 11.8448 16.75 11.7501V8.50012C16.75 8.41037 16.7017 8.32762 16.624 8.28312Z" fill="white"/>
</g>
<defs>
<linearGradient id="paint0_linear_490_358" x1="0" y1="2000" x2="2000" y2="0" gradientUnits="userSpaceOnUse">
<stop stop-color="#055F4E"/>
<stop offset="1" stop-color="#56C0A7"/>
</linearGradient>
<clipPath id="clip0_490_358">
<rect width="20" height="20" rx="2" fill="white"/>
</clipPath>
</defs>
</svg>
